Monda-Light-Italic.ufo
<glyph name="exclam" format="1">
  <advance width="840"/>
  <unicode hex="0021"/>
  <outline>
    <contour>
      <point x="219" y="0" type="line"/>
      <point x="395" y="0" type="line"/>
      <point x="425" y="183" type="line"/>
      <point x="248" y="183" type="line"/>
    </contour>
    <contour>
      <point x="338" y="348" type="curve"/>
      <point x="382" y="348" type="line"/>
      <point x="382" y="348"/>
      <point x="533" y="881"/>
      <point x="621" y="1427" type="curve"/>
      <point x="453" y="1427" type="line"/>
      <point x="365" y="881"/>
      <point x="338" y="348"/>
    </contour>
  </outline>
</glyph>
<glyph name="quotedbl" format="1">
  <advance width="810"/>
  <unicode hex="0022"/>
  <outline>
    <contour>
      <point x="143" y="965" type="line"/>
      <point x="251" y="965" type="line"/>
      <point x="382" y="1500" type="line"/>
      <point x="206" y="1500" type="line"/>
    </contour>
    <contour>
      <point x="464" y="965" type="line"/>
      <point x="572" y="965" type="line"/>
      <point x="690" y="1500" type="line"/>
      <point x="514" y="1500" type="line"/>
    </contour>
  </outline>
</glyph>
<glyph name="numbersign" format="1">
  <advance width="1196"/>
  <unicode hex="0023"/>
  <outline>
    <contour>
      <point x="40" y="0" type="line"/>
      <point x="202" y="0" type="line"/>
      <point x="362" y="473" type="line"/>
      <point x="685" y="473" type="line"/>
      <point x="521" y="0" type="line"/>
      <point x="682" y="0" type="line"/>
      <point x="844" y="473" type="line"/>
      <point x="1094" y="473" type="line"/>
      <point x="1111" y="580" type="line"/>
      <point x="879" y="580" type="line"/>
      <point x="994" y="918" type="line"/>
      <point x="1189" y="918" type="line"/>
      <point x="1205" y="1025" type="line"/>
      <point x="1028" y="1025" type="line"/>
      <point x="1166" y="1427" type="line"/>
      <point x="1013" y="1427" type="line"/>
      <point x="873" y="1025" type="line"/>
      <point x="547" y="1025" type="line"/>
      <point x="685" y="1427" type="line"/>
      <point x="532" y="1427" type="line"/>
      <point x="393" y="1025" type="line"/>
      <point x="148" y="1025" type="line"/>
      <point x="132" y="918" type="line"/>
      <point x="356" y="918" type="line"/>
      <point x="241" y="580" type="line"/>
      <point x="55" y="580" type="line"/>
      <point x="37" y="473" type="line"/>
      <point x="204" y="473" type="line"/>
    </contour>
    <contour>
      <point x="399" y="580" type="line"/>
      <point x="513" y="918" type="line"/>
      <point x="838" y="918" type="line"/>
      <point x="723" y="580" type="line"/>
    </contour>
  </outline>
</glyph>
<glyph name="percent" format="1">
  <advance width="2008"/>
  <unicode hex="0025"/>
  <outline>
    <contour>
      <point x="464" y="794" type="curve" smooth="yes"/>
      <point x="359.286" y="794"/>
      <point x="329.15" y="850.325"/>
      <point x="329.15" y="936.234" type="curve" smooth="yes"/>
      <point x="329.15" y="969.285"/>
      <point x="333.61" y="1006.71"/>
      <point x="340" y="1047" type="curve" smooth="yes"/>
      <point x="356" y="1145" type="line" smooth="yes"/>
      <point x="378" y="1285"/>
      <point x="406" y="1382"/>
      <point x="556" y="1382" type="curve" smooth="yes"/>
      <point x="665.807" y="1382"/>
      <point x="696.292" y="1330.7"/>
      <point x="696.292" y="1248.11" type="curve" smooth="yes"/>
      <point x="696.292" y="1217.13"/>
      <point x="692.002" y="1181.74"/>
      <point x="686" y="1143" type="curve" smooth="yes"/>
      <point x="670" y="1047" type="line"/>
      <point x="647" y="902"/>
      <point x="608" y="794"/>
    </contour>
    <contour>
      <point x="448" y="686" type="curve" smooth="yes"/>
      <point x="678" y="686"/>
      <point x="770" y="836"/>
      <point x="807" y="1065" type="curve"/>
      <point x="815" y="1119" type="line" smooth="yes"/>
      <point x="821.737" y="1163.85"/>
      <point x="825.473" y="1205.14"/>
      <point x="825.473" y="1242.59" type="curve" smooth="yes"/>
      <point x="825.473" y="1399.67"/>
      <point x="759.727" y="1489"/>
      <point x="574" y="1489" type="curve" smooth="yes"/>
      <point x="343" y="1489"/>
      <point x="255" y="1351"/>
      <point x="218" y="1118" type="curve"/>
      <point x="210" y="1065" type="line" smooth="yes"/>
      <point x="203.098" y="1020.04"/>
      <point x="199.23" y="978.075"/>
      <point x="199.23" y="939.672" type="curve" smooth="yes"/>
      <point x="199.23" y="783.32"/>
      <point x="263.354" y="686"/>
    </contour>
    <contour>
      <point x="1448" y="89" type="curve" smooth="yes"/>
      <point x="1344.25" y="89"/>
      <point x="1313.69" y="145.063"/>
      <point x="1313.69" y="230.261" type="curve" smooth="yes"/>
      <point x="1313.69" y="263.313"/>
      <point x="1318.29" y="300.75"/>
      <point x="1325" y="341" type="curve" smooth="yes"/>
      <point x="1341" y="440" type="line"/>
      <point x="1362" y="579"/>
      <point x="1391" y="676"/>
      <point x="1541" y="676" type="curve" smooth="yes"/>
      <point x="1649.61" y="676"/>
      <point x="1680.1" y="625.816"/>
      <point x="1680.1" y="545.17" type="curve" smooth="yes"/>
      <point x="1680.1" y="513.696"/>
      <point x="1675.46" y="477.582"/>
      <point x="1669" y="438" type="curve" smooth="yes"/>
      <point x="1655" y="341" type="line"/>
      <point x="1631" y="197"/>
      <point x="1593" y="89"/>
    </contour>
    <contour>
      <point x="1430" y="-19" type="curve" smooth="yes"/>
      <point x="1660" y="-19"/>
      <point x="1755" y="131"/>
      <point x="1791" y="360" type="curve"/>
      <point x="1800" y="414" type="line" smooth="yes"/>
      <point x="1806.63" y="458.14"/>
      <point x="1810.28" y="498.834"/>
      <point x="1810.28" y="535.804" type="curve" smooth="yes"/>
      <point x="1810.28" y="693.99"/>
      <point x="1743.43" y="784"/>
      <point x="1557" y="784" type="curve" smooth="yes"/>
      <point x="1326" y="784"/>
      <point x="1240" y="646"/>
      <point x="1203" y="413" type="curve"/>
      <point x="1194" y="360" type="line" smooth="yes"/>
      <point x="1186.73" y="313.945"/>
      <point x="1182.64" y="271.031"/>
      <point x="1182.64" y="231.869" type="curve" smooth="yes"/>
      <point x="1182.64" y="77.1579"/>
      <point x="1246.46" y="-19"/>
    </contour>
    <contour>
      <point x="536" y="0" type="line"/>
      <point x="675" y="0" type="line"/>
      <point x="1442" y="1446" type="line"/>
      <point x="1308" y="1446" type="line"/>
    </contour>
  </outline>
</glyph>
<glyph name="ampersand" format="1">
  <advance width="1484"/>
  <unicode hex="0026"/>
  <outline>
    <contour>
      <point x="594" y="-22" type="curve" smooth="yes"/>
      <point x="847" y="-22"/>
      <point x="1002" y="35"/>
      <point x="1091" y="121" type="curve"/>
      <point x="1219" y="-17" type="line"/>
      <point x="1301" y="60" type="line"/>
      <point x="1151" y="232" type="line"/>
      <point x="1179" y="311"/>
      <point x="1189" y="384"/>
      <point x="1203" y="471" type="curve" smooth="yes"/>
      <point x="1248" y="752" type="line"/>
      <point x="1109" y="752" type="line"/>
      <point x="1055" y="409" type="line" smooth="yes"/>
      <point x="1052" y="393"/>
      <point x="1049" y="370"/>
      <point x="1044" y="356" type="curve"/>
      <point x="567" y="881" type="line"/>
      <point x="502.66" y="960.381"/>
      <point x="472.532" y="1013.93"/>
      <point x="472.532" y="1074.9" type="curve" smooth="yes"/>
      <point x="472.532" y="1086.89"/>
      <point x="473.698" y="1099.18"/>
      <point x="476" y="1112" type="curve" smooth="yes"/>
      <point x="495" y="1241"/>
      <point x="555" y="1347"/>
      <point x="769" y="1347" type="curve" smooth="yes"/>
      <point x="934.682" y="1347"/>
      <point x="1007.94" y="1317.49"/>
      <point x="1007.94" y="1216.02" type="curve" smooth="yes"/>
      <point x="1007.94" y="1202.36"/>
      <point x="1006.61" y="1187.38"/>
      <point x="1004" y="1171" type="curve" smooth="yes"/>
      <point x="992" y="1100" type="line"/>
      <point x="1115" y="1100" type="line"/>
      <point x="1132" y="1212" type="line" smooth="yes"/>
      <point x="1136.09" y="1236.73"/>
      <point x="1138.08" y="1259.1"/>
      <point x="1138.08" y="1279.34" type="curve" smooth="yes"/>
      <point x="1138.08" y="1452.17"/>
      <point x="992.906" y="1469"/>
      <point x="770" y="1469" type="curve" smooth="yes"/>
      <point x="452" y="1469"/>
      <point x="356" y="1280"/>
      <point x="332" y="1128" type="curve" smooth="yes"/>
      <point x="328.357" y="1104.62"/>
      <point x="326.626" y="1083.27"/>
      <point x="326.626" y="1063.54" type="curve" smooth="yes"/>
      <point x="326.626" y="953.249"/>
      <point x="380.662" y="893.276"/>
      <point x="457" y="811" type="curve"/>
      <point x="255" y="754"/>
      <point x="178" y="627"/>
      <point x="146" y="426" type="curve" smooth="yes"/>
      <point x="141.575" y="398.499"/>
      <point x="138.673" y="368.501"/>
      <point x="138.673" y="337.481" type="curve" smooth="yes"/>
      <point x="138.673" y="172.233"/>
      <point x="221.016" y="-22"/>
    </contour>
    <contour>
      <point x="610" y="85" type="curve" smooth="yes"/>
      <point x="389.972" y="85"/>
      <point x="299.957" y="189.159"/>
      <point x="299.957" y="349.223" type="curve" smooth="yes"/>
      <point x="299.957" y="375.392"/>
      <point x="302.363" y="403.054"/>
      <point x="307" y="432" type="curve" smooth="yes"/>
      <point x="326" y="554"/>
      <point x="361" y="687"/>
      <point x="527" y="734" type="curve"/>
      <point x="1022" y="201" type="line"/>
      <point x="946" y="99"/>
      <point x="842" y="85"/>
    </contour>
  </outline>
</glyph>
<glyph name="quotesingle" format="1">
  <advance width="972"/>
  <unicode hex="0027"/>
  <outline>
    <contour>
      <point x="112" y="965" type="line"/>
      <point x="219" y="965" type="line"/>
      <point x="351" y="1500" type="line"/>
      <point x="175" y="1500" type="line"/>
    </contour>
  </outline>
</glyph>
<glyph name="parenleft" format="1">
  <advance width="661"/>
  <unicode hex="0028"/>
  <outline>
    <contour>
      <point x="426" y="-145" type="curve"/>
      <point x="444" y="-34" type="line"/>
      <point x="254.421" y="-34"/>
      <point x="205.584" y="38.3017"/>
      <point x="205.584" y="148.804" type="curve" smooth="yes"/>
      <point x="205.584" y="224.824"/>
      <point x="228.697" y="318.924"/>
      <point x="245" y="420" type="curve" smooth="yes"/>
      <point x="334" y="982" type="line" smooth="yes"/>
      <point x="373" y="1230"/>
      <point x="357" y="1450"/>
      <point x="679" y="1450" type="curve"/>
      <point x="697" y="1562" type="line"/>
      <point x="207" y="1562"/>
      <point x="231" y="1219"/>
      <point x="188" y="943" type="curve"/>
      <point x="109" y="452" type="line" smooth="yes"/>
      <point x="92.6296" y="344.195"/>
      <point x="61.7517" y="227.462"/>
      <point x="61.7517" y="126.054" type="curve" smooth="yes"/>
      <point x="61.7517" y="-26.5169"/>
      <point x="131.646" y="-144.399"/>
    </contour>
  </outline>
</glyph>
<glyph name="parenright" format="1">
  <advance width="661"/>
  <unicode hex="0029"/>
  <outline>
    <contour>
      <point x="-46" y="-145" type="line"/>
      <point x="444" y="-144"/>
      <point x="420" y="199"/>
      <point x="464" y="475" type="curve" smooth="yes"/>
      <point x="542" y="966" type="line" smooth="yes"/>
      <point x="584" y="1235"/>
      <point x="715" y="1562"/>
      <point x="225" y="1562" type="curve"/>
      <point x="207" y="1452" type="line"/>
      <point x="527" y="1452"/>
      <point x="446" y="1245"/>
      <point x="406" y="998" type="curve" smooth="yes"/>
      <point x="317" y="437" type="line" smooth="yes"/>
      <point x="278" y="187"/>
      <point x="294" y="-33"/>
      <point x="-28" y="-33" type="curve"/>
    </contour>
  </outline>
</glyph>
<glyph name="asterisk" format="1">
  <advance width="1040"/>
  <unicode hex="002A"/>
  <outline>
    <contour>
      <point x="364" y="599" type="line"/>
      <point x="542" y="599" type="line"/>
      <point x="562" y="912" type="line"/>
      <point x="779" y="722" type="line"/>
      <point x="899" y="875" type="line"/>
      <point x="641" y="1017" type="line"/>
      <point x="951" y="1134" type="line"/>
      <point x="895" y="1295" type="line"/>
      <point x="595" y="1121" type="line"/>
      <point x="676" y="1446" type="line"/>
      <point x="498" y="1446" type="line"/>
      <point x="477" y="1133" type="line"/>
      <point x="260" y="1323" type="line"/>
      <point x="140" y="1170" type="line"/>
      <point x="398" y="1028" type="line"/>
      <point x="89" y="911" type="line"/>
      <point x="144" y="750" type="line"/>
      <point x="444" y="924" type="line"/>
    </contour>
  </outline>
</glyph>
<glyph name="plus" format="1">
  <advance width="1059"/>
  <unicode hex="002B"/>
  <outline>
    <contour>
      <point x="395" y="156" type="line"/>
      <point x="538" y="156" type="line"/>
      <point x="591" y="498" type="line"/>
      <point x="868" y="498" type="line"/>
      <point x="891" y="638" type="line"/>
      <point x="614" y="638" type="line"/>
      <point x="666" y="968" type="line"/>
      <point x="523" y="968" type="line"/>
      <point x="471" y="638" type="line"/>
      <point x="192" y="638" type="line"/>
      <point x="170" y="498" type="line"/>
      <point x="448" y="498" type="line"/>
    </contour>
  </outline>
</glyph>
<glyph name="comma" format="1">
  <advance width="565"/>
  <unicode hex="002C"/>
  <outline>
    <contour>
      <point x="194" y="-307" type="line"/>
      <point x="257" y="-255"/>
      <point x="377" y="-137"/>
      <point x="407" y="48" type="curve" smooth="yes"/>
      <point x="432" y="207" type="line"/>
      <point x="214" y="207" type="line"/>
      <point x="181" y="0" type="line"/>
      <point x="307" y="0" type="line"/>
      <point x="287" y="-128"/>
      <point x="187" y="-211"/>
      <point x="135" y="-265" type="curve"/>
    </contour>
  </outline>
</glyph>
<glyph name="hyphen" format="1">
  <advance width="1058"/>
  <unicode hex="002D"/>
  <unicode hex="2015"/>
  <outline>
    <contour>
      <point x="526" y="566" type="move" name="_mid"/>
    </contour>
    <contour>
      <point x="186" y="502" type="line"/>
      <point x="819" y="502" type="line"/>
      <point x="840" y="642" type="line"/>
      <point x="206" y="642" type="line"/>
    </contour>
  </outline>
</glyph>
<glyph name="slash" format="1">
  <advance width="614"/>
  <unicode hex="002F"/>
  <outline>
    <contour>
      <point x="-80" y="0" type="line"/>
      <point x="74" y="0" type="line"/>
      <point x="694" y="1500" type="line"/>
      <point x="547" y="1500" type="line"/>
    </contour>
  </outline>
</glyph>
<glyph name="zero" format="1">
  <advance width="1148"/>
  <unicode hex="0030"/>
  <outline>
    <contour>
      <point x="486" y="101" type="curve" smooth="yes"/>
      <point x="278.426" y="101"/>
      <point x="221.867" y="202.07"/>
      <point x="221.867" y="359.326" type="curve" smooth="yes"/>
      <point x="221.867" y="452.831"/>
      <point x="241.864" y="566.201"/>
      <point x="262" y="690" type="curve"/>
      <point x="266" y="722" type="line"/>
      <point x="318" y="1056"/>
      <point x="357" y="1328"/>
      <point x="680" y="1328" type="curve" smooth="yes"/>
      <point x="886.999" y="1328"/>
      <point x="942.858" y="1216.29"/>
      <point x="942.858" y="1048.14" type="curve" smooth="yes"/>
      <point x="942.858" y="953.906"/>
      <point x="925.316" y="841.952"/>
      <point x="907" y="722" type="curve" smooth="yes"/>
      <point x="902" y="690" type="line"/>
      <point x="849" y="358"/>
      <point x="817" y="101"/>
    </contour>
    <contour>
      <point x="466" y="-23" type="curve"/>
      <point x="1004" y="-23"/>
      <point x="1005" y="389"/>
      <point x="1055" y="712" type="curve"/>
      <point x="1052" y="688" type="line"/>
      <point x="1071.98" y="815.705"/>
      <point x="1104.54" y="960.443"/>
      <point x="1104.54" y="1089.27" type="curve" smooth="yes"/>
      <point x="1104.54" y="1289.31"/>
      <point x="1026.03" y="1451"/>
      <point x="700" y="1451" type="curve" smooth="yes"/>
      <point x="183.624" y="1451"/>
      <point x="168.083" y="1037.41"/>
      <point x="121" y="715" type="curve"/>
      <point x="101.159" y="587.222"/>
      <point x="67.6175" y="444.642"/>
      <point x="67.6175" y="319.129" type="curve" smooth="yes"/>
      <point x="67.6175" y="128.349"/>
      <point x="145.111" y="-23"/>
    </contour>
  </outline>
</glyph>
<glyph name="one" format="1">
  <advance width="1173"/>
  <unicode hex="0031"/>
  <outline>
    <contour>
      <point x="66" y="0" type="line"/>
      <point x="1006" y="0" type="line"/>
      <point x="1026" y="123" type="line"/>
      <point x="655" y="123" type="line"/>
      <point x="862" y="1428" type="line"/>
      <point x="723" y="1428" type="line"/>
      <point x="305" y="1391" type="line"/>
      <point x="297" y="1267" type="line"/>
      <point x="698" y="1299" type="line"/>
      <point x="512" y="123" type="line"/>
      <point x="87" y="123" type="line"/>
    </contour>
  </outline>
</glyph>
<glyph name="two" format="1">
  <advance width="1173"/>
  <unicode hex="0032"/>
  <outline>
    <contour>
      <point x="89" y="0" type="line"/>
      <point x="925" y="0" type="line"/>
      <point x="942" y="109" type="line"/>
      <point x="245" y="109" type="line"/>
      <point x="783" y="614" type="line"/>
      <point x="928" y="756"/>
      <point x="1061" y="829"/>
      <point x="1097" y="1058" type="curve" smooth="yes"/>
      <point x="1100.94" y="1082.41"/>
      <point x="1102.93" y="1106.3"/>
      <point x="1102.93" y="1129.48" type="curve" smooth="yes"/>
      <point x="1102.93" y="1312.37"/>
      <point x="979.142" y="1451"/>
      <point x="712" y="1451" type="curve" smooth="yes"/>
      <point x="479" y="1451"/>
      <point x="239" y="1345"/>
      <point x="191" y="1043" type="curve"/>
      <point x="333" y="1043" type="line"/>
      <point x="372" y="1294"/>
      <point x="470" y="1329"/>
      <point x="713" y="1329" type="curve" smooth="yes"/>
      <point x="897.023" y="1329"/>
      <point x="973.016" y="1287.34"/>
      <point x="973.016" y="1147.06" type="curve" smooth="yes"/>
      <point x="973.016" y="1120.4"/>
      <point x="970.27" y="1090.18"/>
      <point x="965" y="1056" type="curve" smooth="yes"/>
      <point x="938" y="891"/>
      <point x="853" y="837"/>
      <point x="667" y="660" type="curve" smooth="yes"/>
      <point x="99" y="117" type="line"/>
    </contour>
  </outline>
</glyph>
<glyph name="three" format="1">
  <advance width="1173"/>
  <unicode hex="0033"/>
  <outline>
    <contour>
      <point x="547" y="-23" type="curve" smooth="yes"/>
      <point x="840.975" y="-23"/>
      <point x="1030.59" y="163.955"/>
      <point x="1030.59" y="503.998" type="curve" smooth="yes"/>
      <point x="1030.59" y="683.429"/>
      <point x="943.761" y="736.817"/>
      <point x="802" y="761" type="curve"/>
      <point x="989" y="785"/>
      <point x="1060" y="886"/>
      <point x="1092" y="1085" type="curve" smooth="yes"/>
      <point x="1096.87" y="1115.37"/>
      <point x="1099.2" y="1143.56"/>
      <point x="1099.2" y="1169.67" type="curve" smooth="yes"/>
      <point x="1099.2" y="1373.95"/>
      <point x="956.543" y="1451"/>
      <point x="773" y="1451" type="curve" smooth="yes"/>
      <point x="547" y="1451"/>
      <point x="328" y="1430"/>
      <point x="265" y="1020" type="curve"/>
      <point x="405" y="1020" type="line"/>
      <point x="453" y="1325"/>
      <point x="549" y="1326"/>
      <point x="751" y="1326" type="curve" smooth="yes"/>
      <point x="915.954" y="1326"/>
      <point x="970.414" y="1261.55"/>
      <point x="970.414" y="1154.1" type="curve" smooth="yes"/>
      <point x="970.414" y="1133.87"/>
      <point x="968.485" y="1112.13"/>
      <point x="965" y="1089" type="curve" smooth="yes"/>
      <point x="936" y="907"/>
      <point x="937" y="818"/>
      <point x="574" y="818" type="curve"/>
      <point x="555" y="699" type="line"/>
      <point x="827.339" y="699"/>
      <point x="903.285" y="661.828"/>
      <point x="903.285" y="517.263" type="curve" smooth="yes"/>
      <point x="903.285" y="478.162"/>
      <point x="897.729" y="431.204"/>
      <point x="889" y="375" type="curve" smooth="yes"/>
      <point x="861" y="202"/>
      <point x="777" y="103"/>
      <point x="583" y="103" type="curve" smooth="yes"/>
      <point x="378.639" y="103"/>
      <point x="294.808" y="124.914"/>
      <point x="294.808" y="335.611" type="curve" smooth="yes"/>
      <point x="294.808" y="363.076"/>
      <point x="296.232" y="393.749"/>
      <point x="299" y="428" type="curve"/>
      <point x="159" y="428" type="line"/>
      <point x="158.526" y="408.637"/>
      <point x="158.277" y="390.063"/>
      <point x="158.277" y="372.249" type="curve" smooth="yes"/>
      <point x="158.277" y="51.4955"/>
      <point x="239.1" y="-23"/>
    </contour>
  </outline>
</glyph>
<glyph name="four" format="1">
  <advance width="1173"/>
  <unicode hex="0034"/>
  <outline>
    <contour>
      <point x="636" y="0" type="line"/>
      <point x="761" y="0" type="line"/>
      <point x="823" y="392" type="line"/>
      <point x="1030" y="392" type="line"/>
      <point x="1047" y="493" type="line"/>
      <point x="840" y="493" type="line"/>
      <point x="891" y="822" type="line"/>
      <point x="766" y="822" type="line"/>
      <point x="715" y="493" type="line"/>
      <point x="256" y="493" type="line"/>
      <point x="969" y="1428" type="line"/>
      <point x="818" y="1428" type="line"/>
      <point x="92" y="494" type="line"/>
      <point x="76" y="392" type="line"/>
      <point x="698" y="392" type="line"/>
    </contour>
  </outline>
</glyph>
<glyph name="five" format="1">
  <advance width="1173"/>
  <unicode hex="0035"/>
  <outline>
    <contour>
      <point x="466" y="-23" type="curve" smooth="yes"/>
      <point x="728" y="-23"/>
      <point x="937" y="163"/>
      <point x="980" y="434" type="curve" smooth="yes"/>
      <point x="1026" y="729"/>
      <point x="923" y="883"/>
      <point x="623" y="883" type="curve" smooth="yes"/>
      <point x="521" y="883"/>
      <point x="432" y="842"/>
      <point x="362" y="790" type="curve"/>
      <point x="487" y="1312" type="line"/>
      <point x="1038" y="1312" type="line"/>
      <point x="1057" y="1428" type="line"/>
      <point x="383" y="1428" type="line"/>
      <point x="237" y="713" type="line"/>
      <point x="336" y="681" type="line"/>
      <point x="456" y="748"/>
      <point x="491" y="795"/>
      <point x="601" y="795" type="curve" smooth="yes"/>
      <point x="839" y="795"/>
      <point x="885" y="642"/>
      <point x="850" y="419" type="curve" smooth="yes"/>
      <point x="819" y="229"/>
      <point x="686" y="102"/>
      <point x="482" y="102" type="curve" smooth="yes"/>
      <point x="222" y="102"/>
      <point x="185" y="169"/>
      <point x="126" y="221" type="curve"/>
      <point x="69" y="96" type="line"/>
      <point x="176" y="35"/>
      <point x="244" y="-23"/>
    </contour>
  </outline>
</glyph>
<glyph name="six" format="1">
  <advance width="1173"/>
  <unicode hex="0036"/>
  <outline>
    <contour>
      <point x="494" y="-23" type="curve"/>
      <point x="737" y="-23"/>
      <point x="960" y="72"/>
      <point x="1013" y="408" type="curve" smooth="yes"/>
      <point x="1018.68" y="444.309"/>
      <point x="1021.45" y="478.102"/>
      <point x="1021.45" y="509.474" type="curve" smooth="yes"/>
      <point x="1021.45" y="748.537"/>
      <point x="860.939" y="847"/>
      <point x="609" y="847" type="curve" smooth="yes"/>
      <point x="531" y="847"/>
      <point x="461" y="827"/>
      <point x="410" y="803" type="curve"/>
      <point x="887" y="1427" type="line"/>
      <point x="759" y="1427" type="line"/>
      <point x="341" y="856" type="line" smooth="yes"/>
      <point x="209" y="675"/>
      <point x="142" y="519"/>
      <point x="126" y="406" type="curve" smooth="yes"/>
      <point x="119.301" y="364.563"/>
      <point x="116.095" y="326.805"/>
      <point x="116.095" y="292.451" type="curve" smooth="yes"/>
      <point x="116.095" y="49.8904"/>
      <point x="386.701" y="66.5662"/>
    </contour>
    <contour>
      <point x="510" y="105" type="curve" smooth="yes"/>
      <point x="343.829" y="105"/>
      <point x="244.54" y="127.057"/>
      <point x="244.54" y="295.402" type="curve" smooth="yes"/>
      <point x="244.54" y="326.635"/>
      <point x="247.958" y="362.903"/>
      <point x="255" y="405" type="curve" smooth="yes"/>
      <point x="294" y="656"/>
      <point x="423" y="708"/>
      <point x="607" y="708" type="curve" smooth="yes"/>
      <point x="756.706" y="708"/>
      <point x="885.958" y="698.152"/>
      <point x="885.958" y="500.423" type="curve" smooth="yes"/>
      <point x="885.958" y="470.977"/>
      <point x="883.092" y="437.366"/>
      <point x="877" y="399" type="curve" smooth="yes"/>
      <point x="834" y="135"/>
      <point x="704" y="105"/>
    </contour>
  </outline>
</glyph>
<glyph name="seven" format="1">
  <advance width="1173"/>
  <unicode hex="0037"/>
  <outline>
    <contour>
      <point x="264" y="0" type="line"/>
      <point x="413" y="0" type="line"/>
      <point x="1072" y="1300" type="line"/>
      <point x="1093" y="1428" type="line"/>
      <point x="282" y="1428" type="line"/>
      <point x="264" y="1319" type="line"/>
      <point x="948" y="1319" type="line"/>
    </contour>
  </outline>
</glyph>
<glyph name="eight" format="1">
  <advance width="1173"/>
  <unicode hex="0038"/>
  <outline>
    <contour>
      <point x="435" y="767" type="curve"/>
      <point x="272.202" y="699.635"/>
      <point x="63.1736" y="557.639"/>
      <point x="63.1736" y="283.067" type="curve" smooth="yes"/>
      <point x="63.1736" y="66.8145"/>
      <point x="226.798" y="-23"/>
      <point x="465" y="-23" type="curve" smooth="yes"/>
      <point x="733" y="-23"/>
      <point x="949" y="93"/>
      <point x="992" y="363" type="curve" smooth="yes"/>
      <point x="995.476" y="385.597"/>
      <point x="997.097" y="407.037"/>
      <point x="997.097" y="427.388" type="curve" smooth="yes"/>
      <point x="997.097" y="617.779"/>
      <point x="855.247" y="712.794"/>
      <point x="764" y="767" type="curve"/>
      <point x="893" y="838"/>
      <point x="1052" y="886"/>
      <point x="1085" y="1096" type="curve" smooth="yes"/>
      <point x="1089.11" y="1122.02"/>
      <point x="1091.05" y="1146.18"/>
      <point x="1091.05" y="1168.62" type="curve" smooth="yes"/>
      <point x="1091.05" y="1408.36"/>
      <point x="869.595" y="1451"/>
      <point x="705" y="1451" type="curve" smooth="yes"/>
      <point x="518" y="1451"/>
      <point x="261" y="1399"/>
      <point x="213" y="1092" type="curve" smooth="yes"/>
      <point x="210.058" y="1072.83"/>
      <point x="208.674" y="1055.02"/>
      <point x="208.674" y="1038.42" type="curve" smooth="yes"/>
      <point x="208.674" y="880.13"/>
      <point x="334.535" y="832.167"/>
    </contour>
    <contour>
      <point x="493" y="108" type="curve" smooth="yes"/>
      <point x="329.664" y="108"/>
      <point x="204.988" y="141.022"/>
      <point x="204.988" y="301.033" type="curve" smooth="yes"/>
      <point x="204.988" y="536.654"/>
      <point x="407.015" y="613.829"/>
      <point x="585" y="699" type="curve"/>
      <point x="709.149" y="627.269"/>
      <point x="854.441" y="557.23"/>
      <point x="854.441" y="403.332" type="curve" smooth="yes"/>
      <point x="854.441" y="389.881"/>
      <point x="853.331" y="375.789"/>
      <point x="851" y="361" type="curve" smooth="yes"/>
      <point x="818" y="149"/>
      <point x="670" y="108"/>
    </contour>
    <contour>
      <point x="605" y="832" type="curve"/>
      <point x="492.482" y="891.514"/>
      <point x="356.616" y="948.434"/>
      <point x="356.616" y="1071.11" type="curve" smooth="yes"/>
      <point x="356.616" y="1080.36"/>
      <point x="357.388" y="1089.98"/>
      <point x="359" y="1100" type="curve" smooth="yes"/>
      <point x="380" y="1238"/>
      <point x="472" y="1316"/>
      <point x="683" y="1316" type="curve" smooth="yes"/>
      <point x="866.832" y="1316"/>
      <point x="942.87" y="1256.63"/>
      <point x="942.87" y="1146.19" type="curve" smooth="yes"/>
      <point x="942.87" y="957.043"/>
      <point x="765.35" y="902.424"/>
    </contour>
  </outline>
</glyph>
<glyph name="nine" format="1">
  <advance width="1173"/>
  <unicode hex="0039"/>
  <outline>
    <contour>
      <point x="315" y="0" type="line"/>
      <point x="443" y="0" type="line"/>
      <point x="861" y="562" type="line"/>
      <point x="992" y="743"/>
      <point x="1060" y="905"/>
      <point x="1077" y="1018" type="curve" smooth="yes"/>
      <point x="1083.09" y="1056.66"/>
      <point x="1086" y="1092.21"/>
      <point x="1086" y="1124.84" type="curve" smooth="yes"/>
      <point x="1086" y="1370.72"/>
      <point x="920.882" y="1451"/>
      <point x="709" y="1451" type="curve" smooth="yes"/>
      <point x="476" y="1451"/>
      <point x="240" y="1348"/>
      <point x="187" y="1016" type="curve" smooth="yes"/>
      <point x="181.268" y="979.386"/>
      <point x="178.478" y="945.195"/>
      <point x="178.478" y="913.359" type="curve" smooth="yes"/>
      <point x="178.478" y="673.043"/>
      <point x="337.455" y="567"/>
      <point x="590" y="567" type="curve" smooth="yes"/>
      <point x="668" y="567"/>
      <point x="740" y="591"/>
      <point x="791" y="615" type="curve"/>
    </contour>
    <contour>
      <point x="587" y="700" type="curve" smooth="yes"/>
      <point x="437.128" y="700"/>
      <point x="307.997" y="729.19"/>
      <point x="307.997" y="923.563" type="curve" smooth="yes"/>
      <point x="307.997" y="950.966"/>
      <point x="310.563" y="981.651"/>
      <point x="316" y="1016" type="curve" smooth="yes"/>
      <point x="358" y="1282"/>
      <point x="496" y="1320"/>
      <point x="687" y="1320" type="curve" smooth="yes"/>
      <point x="856.16" y="1320"/>
      <point x="961.01" y="1291.82"/>
      <point x="961.01" y="1116.91" type="curve" smooth="yes"/>
      <point x="961.01" y="1086.06"/>
      <point x="957.748" y="1050.64"/>
      <point x="951" y="1010" type="curve" smooth="yes"/>
      <point x="913" y="771"/>
      <point x="772" y="700"/>
    </contour>
  </outline>
</glyph>
<glyph name="greater" format="1">
  <advance width="1386"/>
  <unicode hex="003E"/>
  <outline>
    <contour>
      <point x="146" y="-19" type="line"/>
      <point x="1197" y="488" type="line"/>
      <point x="1228" y="678" type="line"/>
      <point x="337" y="1182" type="line"/>
      <point x="305" y="987" type="line"/>
      <point x="1073" y="580" type="line"/>
      <point x="177" y="169" type="line"/>
    </contour>
  </outline>
</glyph>
<glyph name="question" format="1">
  <advance width="1238"/>
  <unicode hex="003F"/>
  <outline>
    <contour>
      <point x="432" y="431" type="line"/>
      <point x="551" y="431" type="line"/>
      <point x="816" y="691" type="line"/>
      <point x="982" y="863"/>
      <point x="1122" y="972"/>
      <point x="1149" y="1142" type="curve" smooth="yes"/>
      <point x="1150.97" y="1154.62"/>
      <point x="1152.02" y="1167.73"/>
      <point x="1152.02" y="1181.11" type="curve" smooth="yes"/>
      <point x="1152.02" y="1303.37"/>
      <point x="1064.42" y="1448"/>
      <point x="794" y="1448" type="curve" smooth="yes"/>
      <point x="506.783" y="1448"/>
      <point x="311.567" y="1410.97"/>
      <point x="265" y="1085" type="curve"/>
      <point x="416" y="1085" type="line"/>
      <point x="422" y="1119" type="line"/>
      <point x="443" y="1247"/>
      <point x="551" y="1322"/>
      <point x="775" y="1322" type="curve" smooth="yes"/>
      <point x="926.527" y="1322"/>
      <point x="985.088" y="1272.52"/>
      <point x="985.088" y="1178.1" type="curve" smooth="yes"/>
      <point x="985.088" y="1163.47"/>
      <point x="983.683" y="1147.77"/>
      <point x="981" y="1131" type="curve" smooth="yes"/>
      <point x="964" y="1016"/>
      <point x="881" y="938"/>
      <point x="785" y="828" type="curve"/>
    </contour>
    <contour>
      <point x="332" y="0" type="line"/>
      <point x="509" y="0" type="line"/>
      <point x="537" y="183" type="line"/>
      <point x="360" y="183" type="line"/>
    </contour>
  </outline>
</glyph>
<glyph name="at" format="1">
  <advance width="2048"/>
  <unicode hex="0040"/>
  <outline>
    <contour>
      <point x="990" y="-127" type="curve" smooth="yes"/>
      <point x="1200" y="-127"/>
      <point x="1422" y="-77"/>
      <point x="1505" y="-28" type="curve"/>
      <point x="1475" y="76" type="line"/>
      <point x="1403" y="26"/>
      <point x="1206" y="-24"/>
      <point x="991" y="-24" type="curve" smooth="yes"/>
      <point x="682.805" y="-24"/>
      <point x="518.526" y="80.6655"/>
      <point x="518.526" y="227.274" type="curve" smooth="yes"/>
      <point x="518.526" y="237.647"/>
      <point x="519.348" y="248.229"/>
      <point x="521" y="259" type="curve" smooth="yes"/>
      <point x="647" y="1053" type="line" smooth="yes"/>
      <point x="672" y="1208"/>
      <point x="861" y="1338"/>
      <point x="1170" y="1338" type="curve" smooth="yes"/>
      <point x="1495.42" y="1338"/>
      <point x="1563.83" y="1238.86"/>
      <point x="1563.83" y="1107.13" type="curve" smooth="yes"/>
      <point x="1563.83" y="1070.47"/>
      <point x="1558.53" y="1031.28"/>
      <point x="1552" y="991" type="curve"/>
      <point x="1550" y="991"/>
      <point x="1468" y="973"/>
      <point x="1272" y="927" type="curve" smooth="yes"/>
      <point x="858" y="836"/>
      <point x="766" y="753"/>
      <point x="741" y="596" type="curve" smooth="yes"/>
      <point x="738.556" y="579.124"/>
      <point x="737.236" y="561.895"/>
      <point x="737.236" y="544.626" type="curve" smooth="yes"/>
      <point x="737.236" y="413.512"/>
      <point x="813.308" y="280"/>
      <point x="1051" y="280" type="curve" smooth="yes"/>
      <point x="1303" y="280"/>
      <point x="1436" y="402"/>
      <point x="1495" y="477" type="curve"/>
      <point x="1500" y="394"/>
      <point x="1511" y="304"/>
      <point x="1669" y="304" type="curve"/>
      <point x="1708" y="421" type="line"/>
      <point x="1618.85" y="421"/>
      <point x="1597.61" y="437.277"/>
      <point x="1597.61" y="479.08" type="curve" smooth="yes"/>
      <point x="1597.61" y="493.076"/>
      <point x="1599.99" y="509.934"/>
      <point x="1603" y="530" type="curve"/>
      <point x="1602.52" y="524.936"/>
      <point x="1599.58" y="502.673"/>
      <point x="1599.58" y="500.795" type="curve" smooth="yes"/>
      <point x="1599.58" y="497.032"/>
      <point x="1612.32" y="575.066"/>
      <point x="1685" y="1037" type="curve" smooth="yes"/>
      <point x="1686.68" y="1048.07"/>
      <point x="1705" y="1099.18"/>
      <point x="1705" y="1162.23" type="curve" smooth="yes"/>
      <point x="1705" y="1287.18"/>
      <point x="1633.04" y="1459"/>
      <point x="1217" y="1459" type="curve" smooth="yes"/>
      <point x="684" y="1459"/>
      <point x="523" y="1222"/>
      <point x="484" y="970" type="curve" smooth="yes"/>
      <point x="382" y="322" type="line" smooth="yes"/>
      <point x="379.047" y="303.373"/>
      <point x="377.268" y="283.184"/>
      <point x="377.268" y="262.03" type="curve" smooth="yes"/>
      <point x="377.268" y="96.935"/>
      <point x="485.628" y="-127"/>
    </contour>
    <contour>
      <point x="1089" y="389" type="curve" smooth="yes"/>
      <point x="971.464" y="389"/>
      <point x="907.747" y="442.818"/>
      <point x="907.747" y="549.135" type="curve" smooth="yes"/>
      <point x="907.747" y="564.932"/>
      <point x="909.154" y="581.889"/>
      <point x="912" y="600" type="curve" smooth="yes"/>
      <point x="929" y="688"/>
      <point x="984" y="738"/>
      <point x="1237" y="799" type="curve" smooth="yes"/>
      <point x="1460" y="854"/>
      <point x="1504" y="861"/>
      <point x="1533" y="874" type="curve"/>
      <point x="1491" y="609" type="line"/>
      <point x="1421" y="464"/>
      <point x="1217" y="389"/>
    </contour>
  </outline>
</glyph>
<glyph name="A" format="1">
  <advance width="1361"/>
  <unicode hex="0041"/>
  <outline>
    <contour>
      <point x="1169" y="0" type="move" name="ogonek"/>
    </contour>
    <contour>
      <point x="791" y="1428" type="move" name="top"/>
    </contour>
    <contour>
      <point x="-27" y="0" type="line"/>
      <point x="124" y="0" type="line"/>
      <point x="275" y="283" type="line"/>
      <point x="957" y="283" type="line"/>
      <point x="1019" y="0" type="line"/>
      <point x="1160" y="0" type="line"/>
      <point x="819" y="1428" type="line"/>
      <point x="772" y="1428" type="line"/>
    </contour>
    <contour>
      <point x="335" y="393" type="line"/>
      <point x="763" y="1199" type="line"/>
      <point x="936" y="393" type="line"/>
    </contour>
  </outline>
</glyph>
<glyph name="B" format="1">
  <advance width="1377"/>
  <unicode hex="0042"/>
  <outline>
    <contour>
      <point x="778" y="1428" type="move" name="top"/>
    </contour>
    <contour>
      <point x="108" y="0" type="line"/>
      <point x="633" y="0" type="line" smooth="yes"/>
      <point x="976" y="0"/>
      <point x="1148" y="115"/>
      <point x="1197" y="389" type="curve" smooth="yes"/>
      <point x="1200.68" y="412.366"/>
      <point x="1202.46" y="435.128"/>
      <point x="1202.46" y="457.143" type="curve" smooth="yes"/>
      <point x="1202.46" y="602.837"/>
      <point x="1124.49" y="715.776"/>
      <point x="1002" y="754" type="curve"/>
      <point x="1131" y="805"/>
      <point x="1201" y="912"/>
      <point x="1224" y="1026" type="curve"/>
      <point x="1231.21" y="1072.3"/>
      <point x="1235.79" y="1115.5"/>
      <point x="1235.79" y="1155.11" type="curve" smooth="yes"/>
      <point x="1235.79" y="1324.27"/>
      <point x="1152.24" y="1428"/>
      <point x="833" y="1428" type="curve" smooth="yes"/>
      <point x="335" y="1428" type="line"/>
    </contour>
    <contour>
      <point x="271" y="114" type="line"/>
      <point x="364" y="692" type="line"/>
      <point x="813" y="692" type="line" smooth="yes"/>
      <point x="1003.95" y="692"/>
      <point x="1066.08" y="579.75"/>
      <point x="1066.08" y="469.68" type="curve" smooth="yes"/>
      <point x="1066.08" y="452.935"/>
      <point x="1064.64" y="436.241"/>
      <point x="1062" y="420" type="curve" smooth="yes"/>
      <point x="1022" y="165"/>
      <point x="880" y="114"/>
      <point x="660" y="114" type="curve" smooth="yes"/>
    </contour>
    <contour>
      <point x="1091.23" y="1124.94" type="curve" smooth="yes"/>
      <point x="1091.23" y="931.414"/>
      <point x="1018.49" y="804"/>
      <point x="789" y="804" type="curve" smooth="yes"/>
      <point x="380" y="804" type="line"/>
      <point x="461" y="1308" type="line"/>
      <point x="776" y="1308" type="line" smooth="yes"/>
      <point x="1002.21" y="1308"/>
      <point x="1091.23" y="1278.3"/>
    </contour>
  </outline>
</glyph>
<glyph name="C" format="1">
  <advance width="1424"/>
  <unicode hex="0043"/>
  <outline>
    <contour>
      <point x="865" y="1428" type="move" name="top"/>
    </contour>
    <contour>
      <point x="651" y="0" type="move" name="bot"/>
    </contour>
    <contour>
      <point x="629" y="-20" type="curve" smooth="yes"/>
      <point x="1057" y="-20"/>
      <point x="1161" y="121"/>
      <point x="1211" y="413" type="curve" smooth="yes"/>
      <point x="1211" y="419"/>
      <point x="1210" y="408"/>
      <point x="1210" y="413" type="curve"/>
      <point x="1079" y="413" type="line"/>
      <point x="1077" y="400"/>
      <point x="1080" y="415"/>
      <point x="1078" y="402" type="curve" smooth="yes"/>
      <point x="1024" y="114"/>
      <point x="920" y="100"/>
      <point x="654" y="100" type="curve" smooth="yes"/>
      <point x="377" y="100"/>
      <point x="249" y="167"/>
      <point x="295" y="456" type="curve" smooth="yes"/>
      <point x="374" y="956" type="line" smooth="yes"/>
      <point x="419" y="1245"/>
      <point x="564" y="1329"/>
      <point x="838" y="1329" type="curve" smooth="yes"/>
      <point x="1116" y="1329"/>
      <point x="1210" y="1303"/>
      <point x="1173" y="1008" type="curve" smooth="yes"/>
      <point x="1172" y="993"/>
      <point x="1176" y="1024"/>
      <point x="1174" y="1009" type="curve"/>
      <point x="1305" y="1016" type="line"/>
      <point x="1307" y="1023"/>
      <point x="1307" y="1020"/>
      <point x="1307" y="1026" type="curve" smooth="yes"/>
      <point x="1350" y="1324"/>
      <point x="1256" y="1448"/>
      <point x="858" y="1448" type="curve" smooth="yes"/>
      <point x="399" y="1448"/>
      <point x="272" y="1229"/>
      <point x="222" y="918" type="curve" smooth="yes"/>
      <point x="154" y="487" type="line" smooth="yes"/>
      <point x="106" y="180"/>
      <point x="171" y="-20"/>
    </contour>
  </outline>
</glyph>
<glyph name="D" format="1">
  <advance width="1497"/>
  <unicode hex="0044"/>
  <outline>
    <contour>
      <point x="792" y="1428" type="move" name="top"/>
    </contour>
    <contour>
      <point x="352" y="751" type="move" name="mid"/>
    </contour>
    <contour>
      <point x="269" y="101" type="line"/>
      <point x="464" y="1325" type="line"/>
      <point x="840" y="1325" type="line" smooth="yes"/>
      <point x="1046" y="1325"/>
      <point x="1254" y="1285"/>
      <point x="1201" y="954" type="curve" smooth="yes"/>
      <point x="1123" y="457" type="line" smooth="yes"/>
      <point x="1071" y="130"/>
      <point x="852" y="101"/>
      <point x="645" y="101" type="curve" smooth="yes"/>
    </contour>
    <contour>
      <point x="108" y="0" type="line"/>
      <point x="645" y="0" type="line" smooth="yes"/>
      <point x="983" y="0"/>
      <point x="1215" y="143"/>
      <point x="1267" y="466" type="curve" smooth="yes"/>
      <point x="1345" y="958" type="line" smooth="yes"/>
      <point x="1387" y="1226"/>
      <point x="1255" y="1428"/>
      <point x="870" y="1428" type="curve" smooth="yes"/>
      <point x="335" y="1428" type="line"/>
    </contour>
  </outline>
</glyph>
<glyph name="E" format="1">
  <advance width="1218"/>
  <unicode hex="0045"/>
  <outline>
    <contour>
      <point x="455" y="0" type="move" name="bot"/>
    </contour>
    <contour>
      <point x="701" y="0" type="move" name="ogonek"/>
    </contour>
    <contour>
      <point x="750" y="1428" type="move" name="top"/>
    </contour>
    <contour>
      <point x="108" y="0" type="line"/>
      <point x="985" y="0" type="line"/>
      <point x="1002" y="106" type="line"/>
      <point x="269" y="106" type="line"/>
      <point x="362" y="684" type="line"/>
      <point x="997" y="684" type="line"/>
      <point x="1013" y="796" type="line"/>
      <point x="378" y="796" type="line"/>
      <point x="463" y="1322" type="line"/>
      <point x="1183" y="1322" type="line"/>
      <point x="1200" y="1428" type="line"/>
      <point x="335" y="1428" type="line"/>
    </contour>
  </outline>
</glyph>
<glyph name="F" format="1">
  <advance width="1137"/>
  <unicode hex="0046"/>
  <outline>
    <contour>
      <point x="745" y="1428" type="move" name="top"/>
    </contour>
    <contour>
      <point x="108" y="0" type="line"/>
      <point x="251" y="0" type="line"/>
      <point x="360" y="682" type="line"/>
      <point x="962" y="682" type="line"/>
      <point x="979" y="794" type="line"/>
      <point x="377" y="794" type="line"/>
      <point x="462" y="1324" type="line"/>
      <point x="1096" y="1324" type="line"/>
      <point x="1113" y="1428" type="line"/>
      <point x="335" y="1428" type="line"/>
    </contour>
  </outline>
</glyph>
<glyph name="G" format="1">
  <advance width="1516"/>
  <unicode hex="0047"/>
  <outline>
    <contour>
      <point x="670" y="0" type="move" name="bot"/>
    </contour>
    <contour>
      <point x="862" y="1428" type="move" name="top"/>
    </contour>
    <contour>
      <point x="1231.97" y="1128.45" type="curve" smooth="yes"/>
      <point x="1231.97" y="1093.82"/>
      <point x="1226.33" y="1036.23"/>
      <point x="1224" y="1024" type="curve"/>
      <point x="1345" y="1035" type="line"/>
      <point x="1351.87" y="1069.33"/>
      <point x="1355.04" y="1117.8"/>
      <point x="1355.04" y="1154.03" type="curve" smooth="yes"/>
      <point x="1355.04" y="1338.66"/>
      <point x="1258.27" y="1448"/>
      <point x="884" y="1448" type="curve" smooth="yes"/>
      <point x="426" y="1448"/>
      <point x="279" y="1229"/>
      <point x="228" y="918" type="curve"/>
      <point x="160" y="487" type="line" smooth="yes"/>
      <point x="152.34" y="438.007"/>
      <point x="148.016" y="391.74"/>
      <point x="148.016" y="348.575" type="curve" smooth="yes"/>
      <point x="148.016" y="121.259"/>
      <point x="267.931" y="-20"/>
      <point x="652" y="-20" type="curve"/>
      <point x="918" y="-20"/>
      <point x="1095" y="69"/>
      <point x="1159" y="292" type="curve"/>
      <point x="1124" y="0" type="line"/>
      <point x="1206" y="0" type="line"/>
      <point x="1321" y="722" type="line"/>
      <point x="789" y="722" type="line"/>
      <point x="771" y="604" type="line"/>
      <point x="1141" y="604" type="line"/>
      <point x="1117" y="456" type="line" smooth="yes"/>
      <point x="1071" y="167"/>
      <point x="949" y="100"/>
      <point x="671" y="100" type="curve" smooth="yes"/>
      <point x="429.716" y="100"/>
      <point x="292.371" y="151.205"/>
      <point x="292.371" y="357.175" type="curve" smooth="yes"/>
      <point x="292.371" y="386.81"/>
      <point x="295.214" y="419.649"/>
      <point x="301" y="456" type="curve" smooth="yes"/>
      <point x="379" y="956" type="line" smooth="yes"/>
      <point x="425" y="1245"/>
      <point x="591" y="1329"/>
      <point x="865" y="1329" type="curve" smooth="yes"/>
      <point x="1127.56" y="1329"/>
      <point x="1231.97" y="1317.98"/>
    </contour>
  </outline>
</glyph>
<glyph name="H" format="1">
  <advance width="1444"/>
  <unicode hex="0048"/>
  <outline>
    <contour>
      <point x="812" y="1428" type="move" name="top"/>
    </contour>
    <contour>
      <point x="98" y="0" type="line"/>
      <point x="241" y="0" type="line"/>
      <point x="350" y="685" type="line"/>
      <point x="1085" y="685" type="line"/>
      <point x="975" y="0" type="line"/>
      <point x="1118" y="0" type="line"/>
      <point x="1346" y="1428" type="line"/>
      <point x="1203" y="1428" type="line"/>
      <point x="1100" y="782" type="line"/>
      <point x="365" y="782" type="line"/>
      <point x="469" y="1428" type="line"/>
      <point x="326" y="1428" type="line"/>
    </contour>
  </outline>
</glyph>
<glyph name="I" format="1">
  <advance width="1122"/>
  <unicode hex="0049"/>
  <outline>
    <contour>
      <point x="562" y="0" type="move" name="ogonek"/>
    </contour>
    <contour>
      <point x="665" y="1428" type="move" name="top"/>
    </contour>
    <contour>
      <point x="95" y="0" type="line"/>
      <point x="799" y="0" type="line"/>
      <point x="817" y="107" type="line"/>
      <point x="537" y="107" type="line"/>
      <point x="730" y="1322" type="line"/>
      <point x="1010" y="1322" type="line"/>
      <point x="1027" y="1428" type="line"/>
      <point x="323" y="1428" type="line"/>
      <point x="306" y="1322" type="line"/>
      <point x="586" y="1322" type="line"/>
      <point x="393" y="107" type="line"/>
      <point x="113" y="107" type="line"/>
    </contour>
  </outline>
</glyph>
<glyph name="J" format="1">
  <advance width="1196"/>
  <unicode hex="004A"/>
  <outline>
    <contour>
      <point x="764" y="1428" type="move" name="top"/>
    </contour>
    <contour>
      <point x="419" y="-12" type="curve" smooth="yes"/>
      <point x="740" y="-12"/>
      <point x="874" y="168"/>
      <point x="916" y="436" type="curve" smooth="yes"/>
      <point x="1073" y="1428" type="line"/>
      <point x="350" y="1428" type="line"/>
      <point x="330" y="1300" type="line"/>
      <point x="910" y="1300" type="line"/>
      <point x="772" y="431" type="line" smooth="yes"/>
      <point x="736" y="209"/>
      <point x="634" y="111"/>
      <point x="440" y="111" type="curve" smooth="yes"/>
      <point x="269" y="111"/>
      <point x="101" y="180"/>
      <point x="84" y="188" type="curve"/>
      <point x="20" y="72" type="line"/>
      <point x="44" y="54"/>
      <point x="236" y="-12"/>
    </contour>
  </outline>
</glyph>
<glyph name="K" format="1">
  <advance width="1387"/>
  <unicode hex="004B"/>
  <outline>
    <contour>
      <point x="551" y="0" type="move" name="bot"/>
    </contour>
    <contour>
      <point x="833" y="1428" type="move" name="top"/>
    </contour>
    <contour>
      <point x="108" y="0" type="line"/>
      <point x="251" y="0" type="line"/>
      <point x="320" y="424" type="line"/>
      <point x="628" y="697" type="line"/>
      <point x="1022" y="0" type="line"/>
      <point x="1177" y="0" type="line"/>
      <point x="722" y="794" type="line"/>
      <point x="1381" y="1428" type="line"/>
      <point x="1229" y="1428" type="line"/>
      <point x="797" y="1007"/>
      <point x="770" y="1027"/>
      <point x="347" y="595" type="curve"/>
      <point x="479" y="1428" type="line"/>
      <point x="335" y="1428" type="line"/>
    </contour>
  </outline>
</glyph>
<glyph name="L" format="1">
  <advance width="1116"/>
  <unicode hex="004C"/>
  <outline>
    <contour>
      <point x="799" y="1428" type="move" name="top"/>
    </contour>
    <contour>
      <point x="489" y="0" type="move" name="bot"/>
    </contour>
    <contour>
      <point x="229" y="673" type="move" name="mid"/>
    </contour>
    <contour>
      <point x="108" y="0" type="line"/>
      <point x="919" y="0" type="line"/>
      <point x="937" y="109" type="line"/>
      <point x="269" y="109" type="line"/>
      <point x="479" y="1428" type="line"/>
      <point x="335" y="1428" type="line"/>
    </contour>
  </outline>
</glyph>
<glyph name="M" format="1">
  <advance width="1694"/>
  <unicode hex="004D"/>
  <outline>
    <contour>
      <point x="941" y="1428" type="move" name="top"/>
    </contour>
    <contour>
      <point x="108" y="0" type="line"/>
      <point x="248" y="0" type="line"/>
      <point x="428" y="1135" type="line"/>
      <point x="752" y="475" type="line"/>
      <point x="871" y="475" type="line"/>
      <point x="1402" y="1139" type="line"/>
      <point x="1221" y="0" type="line"/>
      <point x="1359" y="0" type="line"/>
      <point x="1586" y="1428" type="line"/>
      <point x="1501" y="1428" type="line"/>
      <point x="825" y="564" type="line"/>
      <point x="435" y="1428" type="line"/>
      <point x="335" y="1428" type="line"/>
    </contour>
  </outline>
</glyph>
<glyph name="N" format="1">
  <advance width="1544"/>
  <unicode hex="004E"/>
  <outline>
    <contour>
      <point x="871" y="1428" type="move" name="top"/>
    </contour>
    <contour>
      <point x="620" y="0" type="move" name="bot"/>
    </contour>
    <contour>
      <point x="108" y="0" type="line"/>
      <point x="231" y="0" type="line"/>
      <point x="416" y="1169" type="line"/>
      <point x="1056" y="0" type="line"/>
      <point x="1208" y="0" type="line"/>
      <point x="1436" y="1428" type="line"/>
      <point x="1311" y="1428" type="line"/>
      <point x="1113" y="186" type="line"/>
      <point x="446" y="1428" type="line"/>
      <point x="335" y="1428" type="line"/>
    </contour>
  </outline>
</glyph>
<glyph name="O" format="1">
  <advance width="1500"/>
  <unicode hex="004F"/>
  <outline>
    <contour>
      <point x="872" y="1428" type="move" name="top"/>
    </contour>
    <contour>
      <point x="665" y="0" type="move" name="ogonek"/>
    </contour>
    <contour>
      <point x="661" y="100" type="curve" smooth="yes"/>
      <point x="385" y="100"/>
      <point x="253" y="159"/>
      <point x="300" y="447" type="curve" smooth="yes"/>
      <point x="380" y="963" type="line" smooth="yes"/>
      <point x="426" y="1253"/>
      <point x="580" y="1329"/>
      <point x="855" y="1329" type="curve" smooth="yes"/>
      <point x="1131" y="1329"/>
      <point x="1247" y="1255"/>
      <point x="1200" y="963" type="curve" smooth="yes"/>
      <point x="1119" y="447" type="line" smooth="yes"/>
      <point x="1073" y="159"/>
      <point x="940" y="100"/>
    </contour>
    <contour>
      <point x="642" y="-20" type="curve" smooth="yes"/>
      <point x="1081" y="-20"/>
      <point x="1221" y="189"/>
      <point x="1269" y="490" type="curve" smooth="yes"/>
      <point x="1335" y="916" type="line" smooth="yes"/>
      <point x="1385" y="1226"/>
      <point x="1315" y="1448"/>
      <point x="874" y="1448" type="curve" smooth="yes"/>
      <point x="418" y="1448"/>
      <point x="280" y="1238"/>
      <point x="231" y="928" type="curve" smooth="yes"/>
      <point x="158" y="477" type="line" smooth="yes"/>
      <point x="111" y="171"/>
      <point x="188" y="-20"/>
    </contour>
  </outline>
</glyph>
<glyph name="P" format="1">
  <advance width="1277"/>
  <unicode hex="0050"/>
  <outline>
    <contour>
      <point x="823" y="1428" type="move" name="top"/>
    </contour>
    <contour>
      <point x="108" y="0" type="line"/>
      <point x="253" y="0" type="line"/>
      <point x="339" y="541" type="line"/>
      <point x="784" y="541" type="line" smooth="yes"/>
      <point x="946" y="541"/>
      <point x="1142" y="634"/>
      <point x="1196" y="983" type="curve" smooth="yes"/>
      <point x="1203.57" y="1029.7"/>
      <point x="1207.14" y="1072.13"/>
      <point x="1207.14" y="1110.57" type="curve" smooth="yes"/>
      <point x="1207.14" y="1341.29"/>
      <point x="1078.44" y="1428"/>
      <point x="913" y="1428" type="curve" smooth="yes"/>
      <point x="335" y="1428" type="line"/>
    </contour>
    <contour>
      <point x="358" y="656" type="line"/>
      <point x="461" y="1310" type="line"/>
      <point x="886" y="1310" type="line" smooth="yes"/>
      <point x="1021.19" y="1310"/>
      <point x="1053.88" y="1220.42"/>
      <point x="1053.88" y="1121.25" type="curve" smooth="yes"/>
      <point x="1053.88" y="1069.3"/>
      <point x="1044.91" y="1014.72"/>
      <point x="1037" y="969" type="curve" smooth="yes"/>
      <point x="1017" y="837"/>
      <point x="971" y="656"/>
      <point x="781" y="656" type="curve" smooth="yes"/>
    </contour>
  </outline>
</glyph>
<glyph name="Q" format="1">
  <advance width="1494"/>
  <unicode hex="0051"/>
  <outline>
    <contour>
      <point x="761" y="-294" type="line"/>
      <point x="882" y="-237" type="line"/>
      <point x="762" y="-16" type="line"/>
      <point x="1125" y="14"/>
      <point x="1245" y="213"/>
      <point x="1289" y="490" type="curve" smooth="yes"/>
      <point x="1357" y="916" type="line" smooth="yes"/>
      <point x="1407" y="1226"/>
      <point x="1338" y="1448"/>
      <point x="897" y="1448" type="curve" smooth="yes"/>
      <point x="440" y="1448"/>
      <point x="302" y="1238"/>
      <point x="252" y="928" type="curve" smooth="yes"/>
      <point x="181" y="477" type="line" smooth="yes"/>
      <point x="134" y="180"/>
      <point x="205" y="-12"/>
      <point x="630" y="-21" type="curve"/>
    </contour>
    <contour>
      <point x="682" y="100" type="curve" smooth="yes"/>
      <point x="406" y="100"/>
      <point x="276" y="159"/>
      <point x="320" y="447" type="curve" smooth="yes"/>
      <point x="402" y="963" type="line" smooth="yes"/>
      <point x="449" y="1253"/>
      <point x="603" y="1329"/>
      <point x="877" y="1329" type="curve" smooth="yes"/>
      <point x="1154" y="1329"/>
      <point x="1268" y="1255"/>
      <point x="1222" y="963" type="curve" smooth="yes"/>
      <point x="1140" y="447" type="line" smooth="yes"/>
      <point x="1095" y="159"/>
      <point x="960" y="100"/>
    </contour>
  </outline>
</glyph>
<glyph name="R" format="1">
  <advance width="1428"/>
  <unicode hex="0052"/>
  <outline>
    <contour>
      <point x="829" y="1428" type="move" name="top"/>
    </contour>
    <contour>
      <point x="576" y="0" type="move" name="bot"/>
    </contour>
    <contour>
      <point x="108" y="0" type="line"/>
      <point x="253" y="0" type="line"/>
      <point x="350" y="609" type="line"/>
      <point x="350" y="609"/>
      <point x="863" y="610"/>
      <point x="880" y="610" type="curve"/>
      <point x="1086" y="0" type="line"/>
      <point x="1232" y="0" type="line"/>
      <point x="1014" y="642" type="line"/>
      <point x="1105" y="680"/>
      <point x="1227" y="743"/>
      <point x="1269" y="1008" type="curve" smooth="yes"/>
      <point x="1325" y="1365"/>
      <point x="1139" y="1428"/>
      <point x="985" y="1428" type="curve" smooth="yes"/>
      <point x="335" y="1428" type="line"/>
    </contour>
    <contour>
      <point x="369" y="726" type="line"/>
      <point x="461" y="1310" type="line"/>
      <point x="953" y="1310" type="line" smooth="yes"/>
      <point x="1154" y="1310"/>
      <point x="1136" y="1137"/>
      <point x="1113" y="987" type="curve" smooth="yes"/>
      <point x="1089" y="840"/>
      <point x="1021" y="726"/>
      <point x="832" y="726" type="curve" smooth="yes"/>
    </contour>
  </outline>
</glyph>
<glyph name="S" format="1">
  <advance width="1318"/>
  <unicode hex="0053"/>
  <outline>
    <contour>
      <point x="793" y="1428" type="move" name="top"/>
    </contour>
    <contour>
      <point x="524" y="0" type="move" name="bot"/>
    </contour>
    <contour>
      <point x="577" y="-20" type="curve" smooth="yes"/>
      <point x="912" y="-20"/>
      <point x="1068" y="119"/>
      <point x="1111" y="396" type="curve" smooth="yes"/>
      <point x="1145" y="608"/>
      <point x="1075" y="683"/>
      <point x="891" y="752" type="curve" smooth="yes"/>
      <point x="482" y="904" type="line" smooth="yes"/>
      <point x="355" y="953"/>
      <point x="372" y="1024"/>
      <point x="401" y="1147" type="curve" smooth="yes"/>
      <point x="431" y="1280"/>
      <point x="570" y="1329"/>
      <point x="797" y="1329" type="curve" smooth="yes"/>
      <point x="1012" y="1329"/>
      <point x="1128" y="1274"/>
      <point x="1193" y="1230" type="curve"/>
      <point x="1241" y="1356" type="line"/>
      <point x="1181" y="1401"/>
      <point x="1055" y="1448"/>
      <point x="776" y="1448" type="curve" smooth="yes"/>
      <point x="508" y="1448"/>
      <point x="295" y="1364"/>
      <point x="251" y="1086" type="curve" smooth="yes"/>
      <point x="219" y="884"/>
      <point x="304" y="832"/>
      <point x="468" y="769" type="curve" smooth="yes"/>
      <point x="854" y="628" type="line" smooth="yes"/>
      <point x="966" y="587"/>
      <point x="997" y="540"/>
      <point x="988" y="465" type="curve" smooth="yes"/>
      <point x="948" y="198"/>
      <point x="868" y="100"/>
      <point x="594" y="100" type="curve" smooth="yes"/>
      <point x="420" y="100"/>
      <point x="231" y="164"/>
      <point x="135" y="232" type="curve"/>
      <point x="63" y="116" type="line"/>
      <point x="203" y="25"/>
      <point x="353" y="-20"/>
    </contour>
  </outline>
</glyph>
<glyph name="T" format="1">
  <advance width="1210"/>
  <unicode hex="0054"/>
  <outline>
    <contour>
      <point x="609" y="748" type="move" name="mid"/>
    </contour>
    <contour>
      <point x="504" y="0" type="move" name="bot"/>
    </contour>
    <contour>
      <point x="736" y="1428" type="move" name="top"/>
    </contour>
    <contour>
      <point x="418" y="0" type="line"/>
      <point x="562" y="0" type="line"/>
      <point x="768" y="1300" type="line"/>
      <point x="1191" y="1300" type="line"/>
      <point x="1212" y="1428" type="line"/>
      <point x="225" y="1428" type="line"/>
      <point x="204" y="1300" type="line"/>
      <point x="624" y="1300" type="line"/>
    </contour>
  </outline>
</glyph>
<glyph name="U" format="1">
  <advance width="1497"/>
  <unicode hex="0055"/>
  <outline>
    <contour>
      <point x="700" y="0" type="move" name="ogonek"/>
    </contour>
    <contour>
      <point x="866" y="1428" type="move" name="top"/>
    </contour>
    <contour>
      <point x="645" y="-20" type="curve" smooth="yes"/>
      <point x="1071" y="-20"/>
      <point x="1214" y="209"/>
      <point x="1255" y="469" type="curve" smooth="yes"/>
      <point x="1407" y="1427" type="line"/>
      <point x="1262" y="1427" type="line"/>
      <point x="1108" y="450" type="line"/>
      <point x="1058" y="140"/>
      <point x="863" y="100"/>
      <point x="663" y="100" type="curve" smooth="yes"/>
      <point x="484.411" y="100"/>
      <point x="302.6" y="133.826"/>
      <point x="302.6" y="363.382" type="curve" smooth="yes"/>
      <point x="302.6" y="389.618"/>
      <point x="304.974" y="418.41"/>
      <point x="310" y="450" type="curve" smooth="yes"/>
      <point x="464" y="1427" type="line"/>
      <point x="319" y="1427" type="line"/>
      <point x="169" y="476" type="line" smooth="yes"/>
      <point x="161.945" y="432.688"/>
      <point x="157.798" y="390.238"/>
      <point x="157.798" y="349.532" type="curve" smooth="yes"/>
      <point x="157.798" y="142.121"/>
      <point x="265.483" y="-20"/>
    </contour>
  </outline>
</glyph>
<glyph name="V" format="1">
  <advance width="1327"/>
  <unicode hex="0056"/>
  <outline>
    <contour>
      <point x="511" y="0" type="line"/>
      <point x="578" y="0" type="line"/>
      <point x="1327" y="1428" type="line"/>
      <point x="1182" y="1428" type="line"/>
      <point x="592" y="298" type="line"/>
      <point x="370" y="1428" type="line"/>
      <point x="227" y="1428" type="line"/>
    </contour>
  </outline>
</glyph>
<glyph name="W" format="1">
  <advance width="2068"/>
  <unicode hex="0057"/>
  <outline>
    <contour>
      <point x="1175" y="1428" type="move" name="top"/>
    </contour>
    <contour>
      <point x="453" y="0" type="line"/>
      <point x="537" y="0" type="line"/>
      <point x="1157" y="1339" type="line"/>
      <point x="1319" y="0" type="line"/>
      <point x="1413" y="0" type="line"/>
      <point x="2045" y="1428" type="line"/>
      <point x="1921" y="1428" type="line"/>
      <point x="1409" y="274" type="line"/>
      <point x="1254" y="1428" type="line"/>
      <point x="1059" y="1428" type="line"/>
      <point x="536" y="281" type="line"/>
      <point x="377" y="1428" type="line"/>
      <point x="251" y="1428" type="line"/>
    </contour>
  </outline>
</glyph>
<glyph name="X" format="1">
  <advance width="1326"/>
  <unicode hex="0058"/>
  <outline>
    <contour>
      <point x="14" y="0" type="line"/>
      <point x="167" y="0" type="line"/>
      <point x="649" y="608" type="line"/>
      <point x="932" y="0" type="line"/>
      <point x="1085" y="0" type="line"/>
      <point x="741" y="725" type="line"/>
      <point x="1299" y="1428" type="line"/>
      <point x="1148" y="1428" type="line"/>
      <point x="689" y="839" type="line"/>
      <point x="409" y="1428" type="line"/>
      <point x="269" y="1428" type="line"/>
      <point x="597" y="721" type="line"/>
    </contour>
  </outline>
</glyph>
<glyph name="Y" format="1">
  <advance width="1305"/>
  <unicode hex="0059"/>
  <outline>
    <contour>
      <point x="784" y="1428" type="move" name="top"/>
    </contour>
    <contour>
      <point x="466" y="0" type="line"/>
      <point x="610" y="0" type="line"/>
      <point x="700" y="569" type="line"/>
      <point x="1353" y="1428" type="line"/>
      <point x="1201" y="1428" type="line"/>
      <point x="645" y="675" type="line"/>
      <point x="333" y="1428" type="line"/>
      <point x="180" y="1428" type="line"/>
      <point x="556" y="569" type="line"/>
    </contour>
  </outline>
</glyph>
<glyph name="Z" format="1">
  <advance width="1254"/>
  <unicode hex="005A"/>
  <outline>
    <contour>
      <point x="758" y="1428" type="move" name="top"/>
    </contour>
    <contour>
      <point x="101" y="0" type="line"/>
      <point x="956" y="0" type="line"/>
      <point x="979" y="138" type="line"/>
      <point x="272" y="138" type="line"/>
      <point x="1148" y="1294" type="line"/>
      <point x="1170" y="1428" type="line"/>
      <point x="363" y="1428" type="line"/>
      <point x="341" y="1295" type="line"/>
      <point x="1000" y="1295" type="line"/>
      <point x="123" y="134" type="line"/>
    </contour>
  </outline>
</glyph>
<glyph name="bracketleft" format="1">
  <advance width="724"/>
  <unicode hex="005B"/>
  <outline>
    <contour>
      <point x="159" y="-68" type="line"/>
      <point x="475" y="-68" type="line"/>
      <point x="493" y="50" type="line"/>
      <point x="315" y="50" type="line"/>
      <point x="524" y="1375" type="line"/>
      <point x="703" y="1375" type="line"/>
      <point x="721" y="1491" type="line"/>
      <point x="406" y="1491" type="line"/>
    </contour>
  </outline>
</glyph>
<glyph name="backslash" format="1">
  <advance width="614"/>
  <unicode hex="005C"/>
  <outline>
    <contour>
      <point x="310" y="0" type="line"/>
      <point x="457" y="0" type="line"/>
      <point x="311" y="1500" type="line"/>
      <point x="157" y="1500" type="line"/>
    </contour>
  </outline>
</glyph>
<glyph name="bracketright" format="1">
  <advance width="724"/>
  <unicode hex="005D"/>
  <outline>
    <contour>
      <point x="101" y="-68" type="line"/>
      <point x="417" y="-68" type="line"/>
      <point x="663" y="1491" type="line"/>
      <point x="348" y="1491" type="line"/>
      <point x="329" y="1373" type="line"/>
      <point x="507" y="1373" type="line"/>
      <point x="298" y="48" type="line"/>
      <point x="120" y="48" type="line"/>
    </contour>
  </outline>
</glyph>
<glyph name="asciicircum" format="1">
  <advance width="1257"/>
  <unicode hex="005E"/>
  <outline>
    <contour>
      <point x="152" y="695" type="line"/>
      <point x="320" y="695" type="line"/>
      <point x="664" y="1190" type="line"/>
      <point x="854" y="695" type="line"/>
      <point x="1026" y="695" type="line"/>
      <point x="776" y="1283" type="line"/>
      <point x="576" y="1283" type="line"/>
    </contour>
  </outline>
</glyph>
<glyph name="underscore" format="1">
  <advance width="944"/>
  <unicode hex="005F"/>
  <outline>
    <contour>
      <point x="7" y="-147" type="line"/>
      <point x="919" y="-147" type="line"/>
      <point x="940" y="-12" type="line"/>
      <point x="28" y="-12" type="line"/>
    </contour>
  </outline>
</glyph>
<glyph name="b" format="1">
  <advance width="1187"/>
  <unicode hex="0062"/>
  <outline>
    <contour>
      <point x="690" y="1052" type="move" name="top"/>
    </contour>
    <contour>
      <point x="482" y="-21" type="curve" smooth="yes"/>
      <point x="767" y="-21"/>
      <point x="940" y="150"/>
      <point x="975" y="366" type="curve" smooth="yes"/>
      <point x="1032" y="726" type="line" smooth="yes"/>
      <point x="1035.57" y="748.906"/>
      <point x="1037.33" y="770.796"/>
      <point x="1037.33" y="791.631" type="curve" smooth="yes"/>
      <point x="1037.33" y="969.087"/>
      <point x="909.522" y="1070"/>
      <point x="684" y="1070" type="curve" smooth="yes"/>
      <point x="579" y="1070"/>
      <point x="450" y="1034"/>
      <point x="373" y="992" type="curve"/>
      <point x="454" y="1500" type="line"/>
      <point x="316" y="1500" type="line"/>
      <point x="78" y="0" type="line"/>
      <point x="188" y="0" type="line"/>
      <point x="223" y="75" type="line"/>
      <point x="266" y="46"/>
      <point x="351" y="-21"/>
    </contour>
    <contour>
      <point x="483" y="101" type="curve" smooth="yes"/>
      <point x="385" y="101"/>
      <point x="301" y="140"/>
      <point x="243" y="171" type="curve"/>
      <point x="354" y="878" type="line"/>
      <point x="461" y="923"/>
      <point x="598" y="953"/>
      <point x="680" y="953" type="curve" smooth="yes"/>
      <point x="814.009" y="953"/>
      <point x="900.293" y="897.186"/>
      <point x="900.293" y="784.829" type="curve" smooth="yes"/>
      <point x="900.293" y="772.261"/>
      <point x="899.213" y="758.985"/>
      <point x="897" y="745" type="curve" smooth="yes"/>
      <point x="833" y="337" type="line" smooth="yes"/>
      <point x="810" y="194"/>
      <point x="650" y="101"/>
    </contour>
  </outline>
</glyph>
<glyph name="c" format="1">
  <advance width="1075"/>
  <unicode hex="0063"/>
  <outline>
    <contour>
      <point x="456" y="0" type="move" name="bot"/>
    </contour>
    <contour>
      <point x="667" y="1052" type="move" name="top"/>
    </contour>
    <contour>
      <point x="487" y="-21" type="curve" smooth="yes"/>
      <point x="741" y="-21"/>
      <point x="865" y="59"/>
      <point x="927" y="268" type="curve"/>
      <point x="801" y="268" type="line"/>
      <point x="756" y="122"/>
      <point x="712" y="94"/>
      <point x="502" y="94" type="curve" smooth="yes"/>
      <point x="351.838" y="94"/>
      <point x="255.361" y="143.738"/>
      <point x="255.361" y="277.588" type="curve" smooth="yes"/>
      <point x="255.361" y="294.379"/>
      <point x="256.879" y="312.494"/>
      <point x="260" y="332" type="curve" smooth="yes"/>
      <point x="324" y="735" type="line" smooth="yes"/>
      <point x="349" y="894"/>
      <point x="447" y="953"/>
      <point x="636" y="953" type="curve" smooth="yes"/>
      <point x="802.427" y="953"/>
      <point x="875.845" y="927.044"/>
      <point x="875.845" y="801.055" type="curve" smooth="yes"/>
      <point x="875.845" y="778.667"/>
      <point x="873.527" y="753.121"/>
      <point x="869" y="724" type="curve"/>
      <point x="1004" y="739" type="line"/>
      <point x="1008.83" y="768.772"/>
      <point x="1011.16" y="795.998"/>
      <point x="1011.16" y="820.877" type="curve" smooth="yes"/>
      <point x="1011.16" y="1022.46"/>
      <point x="858.622" y="1070"/>
      <point x="653" y="1070" type="curve" smooth="yes"/>
      <point x="401" y="1070"/>
      <point x="217" y="934"/>
      <point x="188" y="743" type="curve"/>
      <point x="126" y="354" type="line" smooth="yes"/>
      <point x="122.573" y="331.78"/>
      <point x="120.833" y="309.89"/>
      <point x="120.833" y="288.528" type="curve" smooth="yes"/>
      <point x="120.833" y="116.656"/>
      <point x="233.506" y="-21"/>
    </contour>
  </outline>
</glyph>
<glyph name="d" format="1">
  <advance width="1183"/>
  <unicode hex="0064"/>
  <outline>
    <contour>
      <point x="992" y="1252" type="move" name="mid"/>
    </contour>
    <contour>
      <point x="795" y="1052" type="move" name="caron.alt"/>
    </contour>
    <contour>
      <point x="654" y="1052" type="move" name="top"/>
    </contour>
    <contour>
      <point x="448" y="-21" type="curve" smooth="yes"/>
      <point x="557" y="-21"/>
      <point x="691" y="27"/>
      <point x="756" y="74" type="curve"/>
      <point x="775" y="0" type="line"/>
      <point x="870" y="0" type="line"/>
      <point x="1108" y="1500" type="line"/>
      <point x="970" y="1500" type="line"/>
      <point x="896" y="1029" type="line"/>
      <point x="832" y="1053"/>
      <point x="717" y="1070"/>
      <point x="647" y="1070" type="curve" smooth="yes"/>
      <point x="342" y="1070"/>
      <point x="186" y="946"/>
      <point x="151" y="724" type="curve" smooth="yes"/>
      <point x="91" y="342" type="line" smooth="yes"/>
      <point x="86.4149" y="314.628"/>
      <point x="83.9533" y="287.855"/>
      <point x="83.9533" y="262.042" type="curve" smooth="yes"/>
      <point x="83.9533" y="102.075"/>
      <point x="178.489" y="-21"/>
    </contour>
    <contour>
      <point x="467" y="101" type="curve" smooth="yes"/>
      <point x="330.654" y="101"/>
      <point x="221.103" y="163.802"/>
      <point x="221.103" y="286.342" type="curve" smooth="yes"/>
      <point x="221.103" y="297.714"/>
      <point x="222.047" y="309.601"/>
      <point x="224" y="322" type="curve" smooth="yes"/>
      <point x="292" y="754" type="line"/>
      <point x="316" y="897"/>
      <point x="456" y="953"/>
      <point x="618" y="953" type="curve" smooth="yes"/>
      <point x="713" y="953"/>
      <point x="814" y="938"/>
      <point x="876" y="905" type="curve"/>
      <point x="760" y="176" type="line"/>
      <point x="713" y="149"/>
      <point x="593" y="101"/>
    </contour>
  </outline>
</glyph>
<glyph name="e" format="1">
  <advance width="1112"/>
  <unicode hex="0065"/>
  <outline>
    <contour>
      <point x="647" y="1052" type="move" name="top"/>
    </contour>
    <contour>
      <point x="609" y="0" type="move" name="ogonek"/>
    </contour>
    <contour>
      <point x="498" y="0" type="move" name="bot"/>
    </contour>
    <contour>
      <point x="495" y="-21" type="curve" smooth="yes"/>
      <point x="798" y="-21"/>
      <point x="859" y="32"/>
      <point x="931" y="253" type="curve"/>
      <point x="817" y="253" type="line"/>
      <point x="769" y="94"/>
      <point x="719" y="96"/>
      <point x="511" y="96" type="curve" smooth="yes"/>
      <point x="269" y="96"/>
      <point x="238" y="186"/>
      <point x="269" y="385" type="curve" smooth="yes"/>
      <point x="289" y="519" type="line"/>
      <point x="975" y="519" type="line"/>
      <point x="1014" y="766" type="line" smooth="yes"/>
      <point x="1045" y="958"/>
      <point x="925" y="1070"/>
      <point x="658" y="1070" type="curve" smooth="yes"/>
      <point x="339" y="1070"/>
      <point x="217" y="924"/>
      <point x="186" y="736" type="curve" smooth="yes"/>
      <point x="132" y="397" type="line" smooth="yes"/>
      <point x="93" y="140"/>
      <point x="148" y="-21"/>
    </contour>
    <contour>
      <point x="305" y="622" type="line"/>
      <point x="327" y="753" type="line" smooth="yes"/>
      <point x="349" y="894"/>
      <point x="461" y="953"/>
      <point x="635" y="953" type="curve" smooth="yes"/>
      <point x="802" y="953"/>
      <point x="901" y="912"/>
      <point x="879" y="779" type="curve" smooth="yes"/>
      <point x="854" y="622" type="line"/>
    </contour>
  </outline>
</glyph>
<glyph name="f" format="1">
  <advance width="784"/>
  <unicode hex="0066"/>
  <outline>
    <contour>
      <point x="475" y="1428" type="move" name="top"/>
    </contour>
    <contour>
      <point x="191" y="0" type="line"/>
      <point x="328" y="0" type="line"/>
      <point x="474" y="928" type="line"/>
      <point x="757" y="928" type="line"/>
      <point x="778" y="1052" type="line"/>
      <point x="495" y="1052" type="line"/>
      <point x="529" y="1271" type="line" smooth="yes"/>
      <point x="542" y="1349"/>
      <point x="598" y="1399"/>
      <point x="711" y="1399" type="curve" smooth="yes"/>
      <point x="846" y="1399" type="line"/>
      <point x="847" y="1498" type="line"/>
      <point x="732" y="1498" type="line" smooth="yes"/>
      <point x="536" y="1498"/>
      <point x="419" y="1442"/>
      <point x="393" y="1279" type="curve" smooth="yes"/>
      <point x="357" y="1052" type="line"/>
      <point x="160" y="1052" type="line"/>
      <point x="139" y="928" type="line"/>
      <point x="337" y="928" type="line"/>
    </contour>
  </outline>
</glyph>
<glyph name="g" format="1">
  <advance width="1145"/>
  <unicode hex="0067"/>
  <outline>
    <contour>
      <point x="670" y="1052" type="move" name="top"/>
    </contour>
    <contour>
      <point x="495" y="-388" type="curve" smooth="yes"/>
      <point x="736" y="-388"/>
      <point x="886" y="-191"/>
      <point x="925" y="47" type="curve" smooth="yes"/>
      <point x="1084" y="1051" type="line"/>
      <point x="905" y="1051" type="line"/>
      <point x="903" y="962" type="line"/>
      <point x="903" y="1009"/>
      <point x="768" y="1070"/>
      <point x="666" y="1070" type="curve" smooth="yes"/>
      <point x="406" y="1070"/>
      <point x="249" y="945"/>
      <point x="212" y="714" type="curve" smooth="yes"/>
      <point x="160" y="387" type="line" smooth="yes"/>
      <point x="124" y="161"/>
      <point x="219" y="45"/>
      <point x="498" y="45" type="curve" smooth="yes"/>
      <point x="565" y="45"/>
      <point x="732" y="66"/>
      <point x="800" y="133" type="curve"/>
      <point x="775" y="-32" type="line" smooth="yes"/>
      <point x="749" y="-194"/>
      <point x="659" y="-279"/>
      <point x="456" y="-279" type="curve" smooth="yes"/>
      <point x="346" y="-279"/>
      <point x="234" y="-260"/>
      <point x="205" y="-243" type="curve"/>
      <point x="152" y="-358" type="line"/>
      <point x="229" y="-383"/>
      <point x="346" y="-388"/>
    </contour>
    <contour>
      <point x="536" y="167" type="curve" smooth="yes"/>
      <point x="383" y="167"/>
      <point x="269" y="208"/>
      <point x="291" y="346" type="curve" smooth="yes"/>
      <point x="354" y="743" type="line" smooth="yes"/>
      <point x="377" y="886"/>
      <point x="497" y="953"/>
      <point x="659" y="953" type="curve" smooth="yes"/>
      <point x="853" y="953"/>
      <point x="921" y="895"/>
      <point x="901" y="765" type="curve" smooth="yes"/>
      <point x="822" y="266" type="line"/>
      <point x="793" y="244"/>
      <point x="705" y="167"/>
    </contour>
  </outline>
</glyph>
<glyph name="h" format="1">
  <advance width="1195"/>
  <unicode hex="0068"/>
  <outline>
    <contour>
      <point x="634" y="913" type="move" name="top"/>
    </contour>
    <contour>
      <point x="77" y="0" type="line"/>
      <point x="215" y="0" type="line"/>
      <point x="337" y="770" type="line" smooth="yes"/>
      <point x="353" y="871"/>
      <point x="432" y="961"/>
      <point x="667" y="961" type="curve" smooth="yes"/>
      <point x="826" y="961"/>
      <point x="899" y="899"/>
      <point x="884" y="799" type="curve" smooth="yes"/>
      <point x="758" y="0" type="line"/>
      <point x="896" y="0" type="line"/>
      <point x="1015" y="760" type="line" smooth="yes"/>
      <point x="1041" y="920"/>
      <point x="982" y="1070"/>
      <point x="688" y="1070" type="curve" smooth="yes"/>
      <point x="531" y="1070"/>
      <point x="448" y="1024"/>
      <point x="366" y="954" type="curve"/>
      <point x="452" y="1499" type="line"/>
      <point x="314" y="1499" type="line"/>
    </contour>
  </outline>
</glyph>
<glyph name="k" format="1">
  <advance width="1105"/>
  <unicode hex="006B"/>
  <outline>
    <contour>
      <point x="485" y="0" type="move" name="bot"/>
    </contour>
    <contour>
      <point x="535" y="913" type="move" name="top"/>
    </contour>
    <contour>
      <point x="77" y="0" type="line"/>
      <point x="215" y="0" type="line"/>
      <point x="264" y="310" type="line"/>
      <point x="475" y="489" type="line"/>
      <point x="804" y="0" type="line"/>
      <point x="973" y="0" type="line"/>
      <point x="560" y="584" type="line"/>
      <point x="1081" y="1052" type="line"/>
      <point x="938" y="1052" type="line"/>
      <point x="291" y="477" type="line"/>
      <point x="452" y="1500" type="line"/>
      <point x="314" y="1500" type="line"/>
    </contour>
  </outline>
</glyph>
<glyph name="l" format="1">
  <advance width="667"/>
  <unicode hex="006C"/>
  <outline>
    <contour>
      <point x="400" y="1502" type="move" name="top"/>
    </contour>
    <contour>
      <point x="227" y="1052" type="move" name="caron.alt"/>
    </contour>
    <contour>
      <point x="206" y="0" type="move" name="bot"/>
    </contour>
    <contour>
      <point x="409" y="-6" type="curve" smooth="yes"/>
      <point x="427" y="-6" type="line"/>
      <point x="470" y="126" type="line"/>
      <point x="438" y="126" type="line" smooth="yes"/>
      <point x="274" y="126"/>
      <point x="244" y="149"/>
      <point x="278" y="355" type="curve" smooth="yes"/>
      <point x="459" y="1499" type="line"/>
      <point x="321" y="1499" type="line"/>
      <point x="141" y="361" type="line" smooth="yes"/>
      <point x="88" y="29"/>
      <point x="181" y="-6"/>
    </contour>
  </outline>
</glyph>
<glyph name="m" format="1">
  <advance width="1829"/>
  <unicode hex="006D"/>
  <outline>
    <contour>
      <point x="1035" y="1052" type="move" name="top"/>
    </contour>
    <contour>
      <point x="111" y="0" type="line"/>
      <point x="249" y="0" type="line"/>
      <point x="371" y="765" type="line" smooth="yes"/>
      <point x="386" y="865"/>
      <point x="441" y="959"/>
      <point x="677" y="959" type="curve" smooth="yes"/>
      <point x="821.332" y="959"/>
      <point x="898.072" y="903.925"/>
      <point x="898.072" y="817.405" type="curve" smooth="yes"/>
      <point x="898.072" y="809.212"/>
      <point x="897.384" y="800.737"/>
      <point x="896" y="792" type="curve" smooth="yes"/>
      <point x="770" y="0" type="line"/>
      <point x="908" y="0" type="line"/>
      <point x="1028" y="758" type="line"/>
      <point x="1040" y="864"/>
      <point x="1097" y="959"/>
      <point x="1334" y="959" type="curve" smooth="yes"/>
      <point x="1477.64" y="959"/>
      <point x="1549.46" y="905.134"/>
      <point x="1549.46" y="820.259" type="curve" smooth="yes"/>
      <point x="1549.46" y="811.185"/>
      <point x="1548.64" y="801.756"/>
      <point x="1547" y="792" type="curve" smooth="yes"/>
      <point x="1421" y="0" type="line"/>
      <point x="1559" y="0" type="line"/>
      <point x="1679" y="756" type="line" smooth="yes"/>
      <point x="1683.21" y="782.934"/>
      <point x="1685.8" y="809.699"/>
      <point x="1685.8" y="835.587" type="curve" smooth="yes"/>
      <point x="1685.8" y="963.484"/>
      <point x="1622.51" y="1070"/>
      <point x="1378" y="1070" type="curve" smooth="yes"/>
      <point x="1233" y="1070"/>
      <point x="1131" y="1024"/>
      <point x="1014" y="927" type="curve"/>
      <point x="979" y="1005"/>
      <point x="896" y="1070"/>
      <point x="716" y="1070" type="curve" smooth="yes"/>
      <point x="577" y="1070"/>
      <point x="494" y="1040"/>
      <point x="399" y="944" type="curve"/>
      <point x="416" y="1052" type="line"/>
      <point x="278" y="1052" type="line"/>
    </contour>
  </outline>
</glyph>
<glyph name="n" format="1">
  <advance width="1195"/>
  <unicode hex="006E"/>
  <outline>
    <contour>
      <point x="497" y="0" type="move" name="bot"/>
    </contour>
    <contour>
      <point x="768" y="1052" type="move" name="top"/>
    </contour>
    <contour>
      <point x="111" y="0" type="line"/>
      <point x="249" y="0" type="line"/>
      <point x="371" y="767" type="line" smooth="yes"/>
      <point x="387" y="867"/>
      <point x="467" y="961"/>
      <point x="702" y="961" type="curve" smooth="yes"/>
      <point x="845.952" y="961"/>
      <point x="919.412" y="908.541"/>
      <point x="919.412" y="824.402" type="curve" smooth="yes"/>
      <point x="919.412" y="815.606"/>
      <point x="918.609" y="806.464"/>
      <point x="917" y="797" type="curve" smooth="yes"/>
      <point x="791" y="0" type="line"/>
      <point x="929" y="0" type="line"/>
      <point x="1051" y="770" type="line" smooth="yes"/>
      <point x="1053.92" y="788.7"/>
      <point x="1055.48" y="807.181"/>
      <point x="1055.48" y="825.231" type="curve" smooth="yes"/>
      <point x="1055.48" y="959.013"/>
      <point x="970.008" y="1069.13"/>
      <point x="721.724" y="1069.13" type="curve" smooth="yes"/>
      <point x="596.062" y="1069.13"/>
      <point x="501.972" y="1049.01"/>
      <point x="399" y="944" type="curve"/>
      <point x="416" y="1052" type="line"/>
      <point x="278" y="1052" type="line"/>
    </contour>
  </outline>
</glyph>
<glyph name="o" format="1">
  <advance width="1151"/>
  <unicode hex="006F"/>
  <outline>
    <contour>
      <point x="502" y="0" type="move" name="bot"/>
    </contour>
    <contour>
      <point x="529" y="0" type="move" name="ogonek"/>
    </contour>
    <contour>
      <point x="655" y="1052" type="move" name="top"/>
    </contour>
    <contour>
      <point x="509" y="96" type="curve" smooth="yes"/>
      <point x="358.337" y="96"/>
      <point x="251.03" y="137.688"/>
      <point x="251.03" y="255.325" type="curve" smooth="yes"/>
      <point x="251.03" y="266.519"/>
      <point x="252.002" y="278.401"/>
      <point x="254" y="291" type="curve" smooth="yes"/>
      <point x="327" y="757" type="line" smooth="yes"/>
      <point x="350" y="901"/>
      <point x="473" y="953"/>
      <point x="643" y="953" type="curve" smooth="yes"/>
      <point x="790.285" y="953"/>
      <point x="899.91" y="909.482"/>
      <point x="899.91" y="791.823" type="curve" smooth="yes"/>
      <point x="899.91" y="780.866"/>
      <point x="898.959" y="769.267"/>
      <point x="897" y="757" type="curve" smooth="yes"/>
      <point x="824" y="291" type="line" smooth="yes"/>
      <point x="801" y="146"/>
      <point x="674" y="96"/>
    </contour>
    <contour>
      <point x="490" y="-21" type="curve"/>
      <point x="786" y="-21"/>
      <point x="935" y="123"/>
      <point x="964" y="309" type="curve" smooth="yes"/>
      <point x="1033" y="738" type="line" smooth="yes"/>
      <point x="1036.81" y="762.027"/>
      <point x="1038.89" y="785.468"/>
      <point x="1038.89" y="808.063" type="curve" smooth="yes"/>
      <point x="1038.89" y="957.557"/>
      <point x="947.673" y="1070"/>
      <point x="661" y="1070" type="curve" smooth="yes"/>
      <point x="328" y="1070"/>
      <point x="216" y="921"/>
      <point x="187" y="738" type="curve" smooth="yes"/>
      <point x="119" y="309" type="line" smooth="yes"/>
      <point x="115.516" y="287.516"/>
      <point x="113.705" y="266.572"/>
      <point x="113.705" y="246.332" type="curve" smooth="yes"/>
      <point x="113.705" y="92.2783"/>
      <point x="218.651" y="-21"/>
    </contour>
  </outline>
</glyph>
<glyph name="p" format="1">
  <advance width="1191"/>
  <unicode hex="0070"/>
  <outline>
    <contour>
      <point x="731" y="1052" type="move" name="top"/>
    </contour>
    <contour>
      <point x="79" y="-407" type="line"/>
      <point x="217" y="-407" type="line"/>
      <point x="289" y="44" type="line"/>
      <point x="335" y="16"/>
      <point x="416" y="-21"/>
      <point x="555" y="-21" type="curve" smooth="yes"/>
      <point x="815" y="-21"/>
      <point x="996" y="124"/>
      <point x="1032" y="355" type="curve" smooth="yes"/>
      <point x="1089" y="716" type="line" smooth="yes"/>
      <point x="1122" y="919"/>
      <point x="1026" y="1070"/>
      <point x="748" y="1070" type="curve" smooth="yes"/>
      <point x="625" y="1070"/>
      <point x="494" y="1014"/>
      <point x="439" y="966" type="curve"/>
      <point x="434" y="1052" type="line"/>
      <point x="311" y="1052" type="line"/>
    </contour>
    <contour>
      <point x="568" y="96" type="curve" smooth="yes"/>
      <point x="457" y="96"/>
      <point x="369" y="120"/>
      <point x="307" y="159" type="curve"/>
      <point x="410" y="814" type="line"/>
      <point x="422" y="837"/>
      <point x="550" y="953"/>
      <point x="710" y="953" type="curve" smooth="yes"/>
      <point x="863" y="953"/>
      <point x="978" y="876"/>
      <point x="956" y="737" type="curve" smooth="yes"/>
      <point x="890" y="326" type="line" smooth="yes"/>
      <point x="868" y="184"/>
      <point x="731" y="96"/>
    </contour>
  </outline>
</glyph>
<glyph name="q" format="1">
  <advance width="1194"/>
  <unicode hex="0071"/>
  <outline>
    <contour>
      <point x="742" y="-407" type="line"/>
      <point x="880" y="-407" type="line"/>
      <point x="1112" y="1052" type="line"/>
      <point x="933" y="1052" type="line"/>
      <point x="928" y="957" type="line"/>
      <point x="925" y="1006"/>
      <point x="793" y="1070"/>
      <point x="688" y="1070" type="curve" smooth="yes"/>
      <point x="403" y="1070"/>
      <point x="257" y="930"/>
      <point x="223" y="715" type="curve" smooth="yes"/>
      <point x="160" y="312" type="line" smooth="yes"/>
      <point x="156.796" y="292.047"/>
      <point x="155.235" y="272.956"/>
      <point x="155.235" y="254.737" type="curve" smooth="yes"/>
      <point x="155.235" y="73.9116"/>
      <point x="309.065" y="-21"/>
      <point x="538" y="-21" type="curve" smooth="yes"/>
      <point x="606" y="-21"/>
      <point x="741" y="-2"/>
      <point x="815" y="55" type="curve"/>
    </contour>
    <contour>
      <point x="546" y="96" type="curve" smooth="yes"/>
      <point x="408.295" y="96"/>
      <point x="288.527" y="125.895"/>
      <point x="288.527" y="240.152" type="curve" smooth="yes"/>
      <point x="288.527" y="249.524"/>
      <point x="289.332" y="259.463"/>
      <point x="291" y="270" type="curve" smooth="yes"/>
      <point x="365" y="743" type="line" smooth="yes"/>
      <point x="388" y="886"/>
      <point x="519" y="953"/>
      <point x="687" y="953" type="curve" smooth="yes"/>
      <point x="867.328" y="953"/>
      <point x="938.222" y="886.744"/>
      <point x="938.222" y="822.961" type="curve" smooth="yes"/>
      <point x="938.222" y="812.82"/>
      <point x="936.43" y="802.74"/>
      <point x="933" y="793" type="curve"/>
      <point x="838" y="190" type="line"/>
      <point x="818" y="160"/>
      <point x="701" y="96"/>
    </contour>
  </outline>
</glyph>
<glyph name="r" format="1">
  <advance width="764"/>
  <unicode hex="0072"/>
  <outline>
    <contour>
      <point x="520" y="1052" type="move" name="top"/>
    </contour>
    <contour>
      <point x="193" y="0" type="move" name="bot"/>
    </contour>
    <contour>
      <point x="117" y="0" type="line"/>
      <point x="255" y="0" type="line"/>
      <point x="369" y="723" type="line"/>
      <point x="376" y="841"/>
      <point x="554" y="951"/>
      <point x="761" y="947" type="curve"/>
      <point x="785" y="1066" type="line"/>
      <point x="614" y="1060"/>
      <point x="468" y="1016"/>
      <point x="391" y="856" type="curve"/>
      <point x="422" y="1052" type="line"/>
      <point x="284" y="1052" type="line"/>
    </contour>
  </outline>
</glyph>
<glyph name="s" format="1">
  <advance width="942"/>
  <unicode hex="0073"/>
  <outline>
    <contour>
      <point x="571" y="1052" type="move" name="top"/>
    </contour>
    <contour>
      <point x="420" y="0" type="move" name="bot"/>
    </contour>
    <contour>
      <point x="426" y="-23" type="curve" smooth="yes"/>
      <point x="696" y="-23"/>
      <point x="772" y="143"/>
      <point x="791" y="271" type="curve" smooth="yes"/>
      <point x="816" y="434"/>
      <point x="807" y="483"/>
      <point x="643" y="560" type="curve" smooth="yes"/>
      <point x="395" y="675" type="line" smooth="yes"/>
      <point x="315" y="708"/>
      <point x="302" y="726"/>
      <point x="316" y="803" type="curve" smooth="yes"/>
      <point x="333" y="915"/>
      <point x="373" y="953"/>
      <point x="574" y="953" type="curve" smooth="yes"/>
      <point x="655" y="953"/>
      <point x="776" y="923"/>
      <point x="833" y="903" type="curve"/>
      <point x="884" y="1032" type="line"/>
      <point x="827" y="1049"/>
      <point x="708" y="1072"/>
      <point x="549" y="1072" type="curve" smooth="yes"/>
      <point x="253" y="1072"/>
      <point x="213" y="943"/>
      <point x="188" y="786" type="curve" smooth="yes"/>
      <point x="170" y="662"/>
      <point x="214" y="619"/>
      <point x="351" y="564" type="curve" smooth="yes"/>
      <point x="595" y="460" type="line" smooth="yes"/>
      <point x="708" y="414"/>
      <point x="700" y="368"/>
      <point x="684" y="265" type="curve" smooth="yes"/>
      <point x="667" y="156"/>
      <point x="595" y="96"/>
      <point x="404" y="96" type="curve" smooth="yes"/>
      <point x="238" y="96"/>
      <point x="129" y="163"/>
      <point x="124" y="176" type="curve"/>
      <point x="66" y="66" type="line"/>
      <point x="59" y="53"/>
      <point x="186" y="-23"/>
    </contour>
  </outline>
</glyph>
<glyph name="t" format="1">
  <advance width="815"/>
  <unicode hex="0074"/>
  <outline>
    <contour>
      <point x="362" y="583" type="move" name="mid"/>
    </contour>
    <contour>
      <point x="341" y="37" type="move" name="bot"/>
    </contour>
    <contour>
      <point x="215" y="1052" type="move" name="caron.alt"/>
    </contour>
    <contour>
      <point x="556" y="1203" type="move" name="top"/>
    </contour>
    <contour>
      <point x="210.994" y="220.931" type="curve" smooth="yes"/>
      <point x="210.994" y="60.9583"/>
      <point x="336.364" y="-3.5587"/>
      <point x="570" y="-6" type="curve"/>
      <point x="617" y="126" type="line"/>
      <point x="456.535" y="126.248"/>
      <point x="351.751" y="141.786"/>
      <point x="351.751" y="251.758" type="curve" smooth="yes"/>
      <point x="351.751" y="262.851"/>
      <point x="352.817" y="274.904"/>
      <point x="355" y="288" type="curve" smooth="yes"/>
      <point x="456" y="928" type="line"/>
      <point x="728" y="928" type="line"/>
      <point x="748" y="1052" type="line"/>
      <point x="476" y="1052" type="line"/>
      <point x="527" y="1369" type="line"/>
      <point x="417" y="1369" type="line"/>
      <point x="345" y="1052" type="line"/>
      <point x="157" y="1052" type="line"/>
      <point x="137" y="928" type="line"/>
      <point x="318" y="928" type="line"/>
      <point x="216" y="280" type="line" smooth="yes"/>
      <point x="212.654" y="259.012"/>
      <point x="210.994" y="239.339"/>
    </contour>
  </outline>
</glyph>
<glyph name="u" format="1">
  <advance width="1194"/>
  <unicode hex="0075"/>
  <outline>
    <contour>
      <point x="868" y="0" type="move" name="ogonek"/>
    </contour>
    <contour>
      <point x="695" y="1052" type="move" name="top"/>
    </contour>
    <contour>
      <point x="463.7" y="-21.1677" type="curve" smooth="yes"/>
      <point x="632.028" y="-21.1677"/>
      <point x="717.487" y="39.6834"/>
      <point x="795" y="142" type="curve"/>
      <point x="800" y="0" type="line"/>
      <point x="916" y="0" type="line"/>
      <point x="1082" y="1052" type="line"/>
      <point x="945" y="1052" type="line"/>
      <point x="823" y="284" type="line" smooth="yes"/>
      <point x="812" y="214"/>
      <point x="719" y="86"/>
      <point x="484" y="86" type="curve" smooth="yes"/>
      <point x="340.384" y="86"/>
      <point x="276.531" y="146.427"/>
      <point x="276.531" y="231.121" type="curve" smooth="yes"/>
      <point x="276.531" y="240.782"/>
      <point x="277.362" y="250.76"/>
      <point x="279" y="261" type="curve" smooth="yes"/>
      <point x="404" y="1052" type="line"/>
      <point x="267" y="1052" type="line"/>
      <point x="146" y="289" type="line" smooth="yes"/>
      <point x="142.621" y="268.207"/>
      <point x="140.779" y="247.481"/>
      <point x="140.779" y="227.169" type="curve" smooth="yes"/>
      <point x="140.779" y="94.11"/>
      <point x="219.829" y="-21.1677"/>
    </contour>
  </outline>
</glyph>
<glyph name="v" format="1">
  <advance width="1064"/>
  <unicode hex="0076"/>
  <outline>
    <contour>
      <point x="407" y="0" type="line"/>
      <point x="537" y="0" type="line"/>
      <point x="1086" y="1052" type="line"/>
      <point x="945" y="1052" type="line"/>
      <point x="501" y="160" type="line"/>
      <point x="285" y="1052" type="line"/>
      <point x="145" y="1052" type="line"/>
    </contour>
  </outline>
</glyph>
<glyph name="w" format="1">
  <advance width="1567"/>
  <unicode hex="0077"/>
  <outline>
    <contour>
      <point x="869" y="1052" type="move" name="top"/>
    </contour>
    <contour>
      <point x="269" y="0" type="line"/>
      <point x="399" y="0" type="line"/>
      <point x="839" y="907" type="line"/>
      <point x="997" y="0" type="line"/>
      <point x="1117" y="0" type="line"/>
      <point x="1608" y="1052" type="line"/>
      <point x="1482" y="1052" type="line"/>
      <point x="1088" y="188" type="line"/>
      <point x="939" y="1052" type="line"/>
      <point x="782" y="1052" type="line"/>
      <point x="371" y="182" type="line"/>
      <point x="249" y="1052" type="line"/>
      <point x="126" y="1052" type="line"/>
    </contour>
  </outline>
</glyph>
<glyph name="x" format="1">
  <advance width="1019"/>
  <unicode hex="0078"/>
  <outline>
    <contour>
      <point x="-13" y="0" type="line"/>
      <point x="112" y="0" type="line"/>
      <point x="501" y="442" type="line"/>
      <point x="748" y="0" type="line"/>
      <point x="878" y="0" type="line"/>
      <point x="582" y="534" type="line"/>
      <point x="1038" y="1052" type="line"/>
      <point x="915" y="1052" type="line"/>
      <point x="535" y="623" type="line"/>
      <point x="294" y="1052" type="line"/>
      <point x="162" y="1052" type="line"/>
      <point x="451" y="529" type="line"/>
    </contour>
  </outline>
</glyph>
<glyph name="y" format="1">
  <advance width="1117"/>
  <unicode hex="0079"/>
  <outline>
    <contour>
      <point x="701" y="1052" type="move" name="top"/>
    </contour>
    <contour>
      <point x="103" y="-371" type="line"/>
      <point x="118.526" y="-371.957"/>
      <point x="133.578" y="-372.428"/>
      <point x="148.177" y="-372.428" type="curve" smooth="yes"/>
      <point x="408.144" y="-372.428"/>
      <point x="524.796" y="-223.143"/>
      <point x="628" y="-12" type="curve"/>
      <point x="1158" y="1052" type="line"/>
      <point x="1016" y="1052" type="line"/>
      <point x="570" y="134" type="line"/>
      <point x="365" y="1052" type="line"/>
      <point x="204" y="1052" type="line"/>
      <point x="493" y="-15" type="line"/>
      <point x="423.838" y="-172.95"/>
      <point x="288.291" y="-259.272"/>
      <point x="159.015" y="-259.272" type="curve" smooth="yes"/>
      <point x="149.971" y="-259.272"/>
      <point x="140.958" y="-258.85"/>
      <point x="132" y="-258" type="curve"/>
    </contour>
  </outline>
</glyph>
<glyph name="braceleft" format="1">
  <advance width="928"/>
  <unicode hex="007B"/>
  <outline>
    <contour>
      <point x="742" y="-254" type="curve"/>
      <point x="742" y="-254"/>
      <point x="763" y="-117"/>
      <point x="764" y="-117" type="curve" smooth="yes"/>
      <point x="417" y="-117"/>
      <point x="424" y="-57"/>
      <point x="469" y="225" type="curve" smooth="yes"/>
      <point x="474" y="254" type="line" smooth="yes"/>
      <point x="498" y="409"/>
      <point x="502" y="573"/>
      <point x="461" y="605" type="curve"/>
      <point x="517" y="643"/>
      <point x="561" y="790"/>
      <point x="586" y="955" type="curve" smooth="yes"/>
      <point x="590" y="976" type="line" smooth="yes"/>
      <point x="636" y="1266"/>
      <point x="649" y="1339"/>
      <point x="995" y="1339" type="curve" smooth="yes"/>
      <point x="995" y="1339"/>
      <point x="1017" y="1476"/>
      <point x="1017" y="1476" type="curve"/>
      <point x="472" y="1476"/>
      <point x="492" y="1237"/>
      <point x="452" y="990" type="curve" smooth="yes"/>
      <point x="451" y="986" type="line" smooth="yes"/>
      <point x="388" y="582"/>
      <point x="311" y="660"/>
      <point x="149" y="660" type="curve"/>
      <point x="134" y="561" type="line"/>
      <point x="296" y="561"/>
      <point x="394" y="630"/>
      <point x="331" y="225" type="curve" smooth="yes"/>
      <point x="328" y="212" type="line" smooth="yes"/>
      <point x="285" y="-61"/>
      <point x="207" y="-254"/>
    </contour>
  </outline>
</glyph>
<glyph name="braceright" format="1">
  <advance width="929"/>
  <unicode hex="007D"/>
  <outline>
    <contour>
      <point x="-39" y="-254" type="curve"/>
      <point x="497" y="-254"/>
      <point x="479" y="-61"/>
      <point x="523" y="212" type="curve"/>
      <point x="526" y="225" type="line"/>
      <point x="572.243" y="527.072"/>
      <point x="627.943" y="565.457"/>
      <point x="720.485" y="565.457" type="curve" smooth="yes"/>
      <point x="752.018" y="565.457"/>
      <point x="787.829" y="561"/>
      <point x="829" y="561" type="curve"/>
      <point x="844" y="660" type="line"/>
      <point x="799.15" y="660"/>
      <point x="759.034" y="653.947"/>
      <point x="725.835" y="653.947" type="curve" smooth="yes"/>
      <point x="664.214" y="653.947"/>
      <point x="626.424" y="674.8"/>
      <point x="626.424" y="793.912" type="curve" smooth="yes"/>
      <point x="626.424" y="840.995"/>
      <point x="632.328" y="903.431"/>
      <point x="645" y="986" type="curve"/>
      <point x="647" y="990" type="line"/>
      <point x="659.926" y="1071.86"/>
      <point x="679.113" y="1152.85"/>
      <point x="679.113" y="1224.54" type="curve" smooth="yes"/>
      <point x="679.113" y="1369.17"/>
      <point x="601.038" y="1476"/>
      <point x="236" y="1476" type="curve"/>
      <point x="236" y="1476"/>
      <point x="215" y="1339"/>
      <point x="214" y="1339" type="curve"/>
      <point x="462.642" y="1339"/>
      <point x="527.958" y="1301.3"/>
      <point x="527.958" y="1172.47" type="curve" smooth="yes"/>
      <point x="527.958" y="1122.02"/>
      <point x="517.944" y="1057.6"/>
      <point x="505" y="976" type="curve"/>
      <point x="501" y="955" type="line"/>
      <point x="489.512" y="879.182"/>
      <point x="482.459" y="807.165"/>
      <point x="482.459" y="747.777" type="curve" smooth="yes"/>
      <point x="482.459" y="677.921"/>
      <point x="492.218" y="625.539"/>
      <point x="516" y="605" type="curve"/>
      <point x="463" y="573"/>
      <point x="415" y="409"/>
      <point x="391" y="254" type="curve"/>
      <point x="385" y="225" type="line"/>
      <point x="341" y="-57"/>
      <point x="332" y="-117"/>
      <point x="-17" y="-117" type="curve"/>
      <point x="-16" y="-117"/>
      <point x="-39" y="-254"/>
    </contour>
  </outline>
</glyph>
<glyph name="asciitilde" format="1">
  <advance width="795"/>
  <unicode hex="007E"/>
  <outline>
    <contour>
      <point x="526" y="1198" type="curve" smooth="yes"/>
      <point x="637" y="1198"/>
      <point x="742" y="1302"/>
      <point x="766" y="1453" type="curve"/>
      <point x="676" y="1453" type="line"/>
      <point x="667" y="1397"/>
      <point x="630" y="1332"/>
      <point x="555" y="1332" type="curve" smooth="yes"/>
      <point x="489" y="1332"/>
      <point x="397" y="1466"/>
      <point x="269" y="1466" type="curve" smooth="yes"/>
      <point x="158" y="1466"/>
      <point x="53" y="1362"/>
      <point x="29" y="1211" type="curve"/>
      <point x="120" y="1211" type="line"/>
      <point x="129" y="1268"/>
      <point x="165" y="1332"/>
      <point x="240" y="1332" type="curve" smooth="yes"/>
      <point x="307" y="1332"/>
      <point x="400" y="1198"/>
    </contour>
  </outline>
</glyph>
<glyph name="sterling" format="1">
  <advance width="1266"/>
  <unicode hex="00A3"/>
  <outline>
    <contour>
      <point x="177" y="0" type="line"/>
      <point x="866" y="0" type="line"/>
      <point x="886" y="124" type="line"/>
      <point x="333" y="124" type="line"/>
      <point x="486" y="696" type="line"/>
      <point x="987" y="696" type="line"/>
      <point x="1006" y="807" type="line"/>
      <point x="518" y="807" type="line"/>
      <point x="607" y="1140" type="line"/>
      <point x="660" y="1332"/>
      <point x="781" y="1355"/>
      <point x="854" y="1355" type="curve" smooth="yes"/>
      <point x="973" y="1355"/>
      <point x="1091" y="1288"/>
      <point x="1089" y="1286" type="curve" smooth="yes"/>
      <point x="1149" y="1388" type="line"/>
      <point x="1006" y="1454"/>
      <point x="914" y="1465"/>
      <point x="851" y="1465" type="curve" smooth="yes"/>
      <point x="675" y="1465"/>
      <point x="522" y="1304"/>
      <point x="481" y="1163" type="curve"/>
      <point x="387" y="807" type="line"/>
      <point x="197" y="807" type="line"/>
      <point x="179" y="696" type="line"/>
      <point x="357" y="696" type="line"/>
    </contour>
  </outline>
</glyph>
<glyph name="currency" format="1">
  <advance width="1163"/>
  <unicode hex="00A4"/>
  <outline>
    <contour>
      <point x="333" y="844" type="line"/>
      <point x="283.059" y="781.573"/>
      <point x="250.641" y="712.554"/>
      <point x="250.641" y="613.41" type="curve" smooth="yes"/>
      <point x="250.641" y="589.003"/>
      <point x="252.843" y="565.345"/>
      <point x="258" y="543" type="curve"/>
      <point x="82" y="429" type="line"/>
      <point x="120" y="346" type="line"/>
      <point x="292" y="461" type="line"/>
      <point x="342" y="385"/>
      <point x="421" y="347"/>
      <point x="508" y="347" type="curve" smooth="yes"/>
      <point x="605" y="347"/>
      <point x="712" y="396"/>
      <point x="784" y="487" type="curve"/>
      <point x="946" y="371" type="line"/>
      <point x="1011" y="452" type="line"/>
      <point x="839" y="576" type="line"/>
      <point x="857.926" y="619.675"/>
      <point x="869.375" y="664.969"/>
      <point x="869.375" y="721.012" type="curve" smooth="yes"/>
      <point x="869.375" y="765.716"/>
      <point x="859.797" y="806.967"/>
      <point x="846" y="844" type="curve"/>
      <point x="1083" y="997" type="line"/>
      <point x="1044" y="1080" type="line"/>
      <point x="794" y="918" type="line"/>
      <point x="746" y="969"/>
      <point x="678" y="990"/>
      <point x="611" y="990" type="curve" smooth="yes"/>
      <point x="544" y="990"/>
      <point x="470" y="970"/>
      <point x="406" y="918" type="curve"/>
      <point x="220" y="1057" type="line"/>
      <point x="152" y="974" type="line"/>
    </contour>
    <contour>
      <point x="812.604" y="716.555" type="curve" smooth="yes"/>
      <point x="812.604" y="533.581"/>
      <point x="654.465" y="394"/>
      <point x="518" y="394" type="curve" smooth="yes"/>
      <point x="403.891" y="394"/>
      <point x="312.829" y="490.163"/>
      <point x="312.829" y="620.85" type="curve" smooth="yes"/>
      <point x="312.829" y="806.292"/>
      <point x="467.867" y="947"/>
      <point x="605" y="947" type="curve" smooth="yes"/>
      <point x="720.913" y="947"/>
      <point x="812.604" y="850.113"/>
    </contour>
  </outline>
</glyph>
<glyph name="yen" format="1">
  <advance width="1326"/>
  <unicode hex="00A5"/>
  <outline>
    <contour>
      <point x="1066" y="576" type="line"/>
      <point x="1092" y="733" type="line"/>
      <point x="253" y="733" type="line"/>
      <point x="227" y="576" type="line"/>
    </contour>
    <contour>
      <point x="1017" y="265" type="line"/>
      <point x="1043" y="421" type="line"/>
      <point x="203" y="421" type="line"/>
      <point x="177" y="265" type="line"/>
    </contour>
    <component base="Y"/>
  </outline>
</glyph>
<glyph name="brokenbar" format="1">
  <advance width="617"/>
  <unicode hex="00A6"/>
  <outline>
    <contour>
      <point x="96" y="-195" type="line"/>
      <point x="256" y="-195" type="line"/>
      <point x="360" y="467" type="line"/>
      <point x="200" y="467" type="line"/>
    </contour>
    <contour>
      <point x="265" y="877" type="line"/>
      <point x="425" y="877" type="line"/>
      <point x="540" y="1602" type="line"/>
      <point x="380" y="1602" type="line"/>
    </contour>
  </outline>
</glyph>
<glyph name="section" format="1">
  <advance width="952"/>
  <unicode hex="00A7"/>
  <outline>
    <contour>
      <point x="802" y="476" type="curve"/>
      <point x="839.259" y="541.92"/>
      <point x="866.093" y="686.512"/>
      <point x="866.093" y="781.124" type="curve" smooth="yes"/>
      <point x="866.093" y="877.458"/>
      <point x="823.791" y="917.199"/>
      <point x="683" y="968" type="curve"/>
      <point x="441" y="1051" type="line"/>
      <point x="377" y="1075"/>
      <point x="357.8" y="1093.88"/>
      <point x="357.8" y="1135.29" type="curve" smooth="yes"/>
      <point x="357.8" y="1145.64"/>
      <point x="359" y="1157.4"/>
      <point x="361" y="1171" type="curve" smooth="yes"/>
      <point x="380" y="1289"/>
      <point x="400" y="1334"/>
      <point x="635" y="1334" type="curve" smooth="yes"/>
      <point x="732" y="1334"/>
      <point x="876" y="1298"/>
      <point x="914" y="1295" type="curve"/>
      <point x="958" y="1430" type="line"/>
      <point x="873" y="1447"/>
      <point x="743" y="1451"/>
      <point x="609" y="1451" type="curve" smooth="yes"/>
      <point x="314" y="1451"/>
      <point x="250" y="1331"/>
      <point x="224" y="1170" type="curve" smooth="yes"/>
      <point x="219.912" y="1145.79"/>
      <point x="217.604" y="1123.65"/>
      <point x="217.604" y="1103.41" type="curve" smooth="yes"/>
      <point x="217.604" y="1059.27"/>
      <point x="228.577" y="1024.11"/>
      <point x="256" y="996" type="curve"/>
      <point x="203" y="944"/>
      <point x="189" y="885"/>
      <point x="174" y="792" type="curve" smooth="yes"/>
      <point x="169.794" y="765.247"/>
      <point x="167.569" y="741.665"/>
      <point x="167.569" y="720.701" type="curve" smooth="yes"/>
      <point x="167.569" y="617.07"/>
      <point x="221.931" y="577.419"/>
      <point x="360" y="535" type="curve"/>
      <point x="607" y="462" type="line"/>
      <point x="683.919" y="437.276"/>
      <point x="704.238" y="406.421"/>
      <point x="704.238" y="357.449" type="curve" smooth="yes"/>
      <point x="704.238" y="335.113"/>
      <point x="700.012" y="309.009"/>
      <point x="695" y="278" type="curve" smooth="yes"/>
      <point x="679" y="175"/>
      <point x="628" y="90"/>
      <point x="413" y="90" type="curve" smooth="yes"/>
      <point x="228.75" y="90"/>
      <point x="99.8359" y="155.044"/>
      <point x="85.5623" y="155.044" type="curve" smooth="yes"/>
      <point x="85.3493" y="155.044"/>
      <point x="85.1618" y="155.029"/>
      <point x="85" y="155" type="curve" smooth="yes"/>
      <point x="49" y="35" type="line" smooth="yes"/>
      <point x="49.814" y="35.1938"/>
      <point x="50.7917" y="35.2869"/>
      <point x="51.9318" y="35.2869" type="curve" smooth="yes"/>
      <point x="80.2082" y="35.2869"/>
      <point x="208.411" y="-22"/>
      <point x="417" y="-22" type="curve" smooth="yes"/>
      <point x="677" y="-22"/>
      <point x="780" y="112"/>
      <point x="805" y="270" type="curve" smooth="yes"/>
      <point x="812.641" y="319.124"/>
      <point x="819.389" y="361.693"/>
      <point x="819.389" y="398.034" type="curve" smooth="yes"/>
      <point x="819.389" y="428.273"/>
      <point x="814.717" y="454.199"/>
    </contour>
    <contour>
      <point x="347.228" y="744.68" type="curve" smooth="yes"/>
      <point x="347.228" y="795.608"/>
      <point x="387.221" y="914.277"/>
      <point x="399.27" y="914.277" type="curve" smooth="yes"/>
      <point x="399.539" y="914.277"/>
      <point x="399.783" y="914.186"/>
      <point x="400" y="914" type="curve" smooth="yes"/>
      <point x="624" y="851" type="line"/>
      <point x="700.922" y="825.113"/>
      <point x="722.591" y="798.132"/>
      <point x="722.591" y="745.375" type="curve" smooth="yes"/>
      <point x="722.591" y="679.229"/>
      <point x="706.865" y="617.55"/>
      <point x="679" y="566" type="curve"/>
      <point x="429" y="653" type="line" smooth="yes"/>
      <point x="368.199" y="675.184"/>
      <point x="347.228" y="698.718"/>
    </contour>
  </outline>
</glyph>
<glyph name="dieresis" format="1">
  <advance width="1060"/>
  <unicode hex="00A8"/>
  <outline>
    <contour>
      <point x="456" y="1052" type="move" name="_top"/>
    </contour>
    <contour>
      <point x="172" y="1402" type="line"/>
      <point x="343" y="1402" type="line"/>
      <point x="367" y="1552" type="line"/>
      <point x="195" y="1552" type="line"/>
    </contour>
    <contour>
      <point x="672" y="1402" type="line"/>
      <point x="842" y="1402" type="line"/>
      <point x="865" y="1552" type="line"/>
      <point x="695" y="1552" type="line"/>
    </contour>
  </outline>
</glyph>
<glyph name="copyright" format="1">
  <advance width="1789"/>
  <unicode hex="00A9"/>
  <outline>
    <contour>
      <point x="836" y="287" type="curve" smooth="yes"/>
      <point x="1112" y="287"/>
      <point x="1183" y="422"/>
      <point x="1211" y="598" type="curve"/>
      <point x="1216" y="632" type="line"/>
      <point x="1100" y="632" type="line"/>
      <point x="1090" y="571" type="line" smooth="yes"/>
      <point x="1066" y="419"/>
      <point x="1003" y="376"/>
      <point x="850" y="376" type="curve" smooth="yes"/>
      <point x="717.025" y="376"/>
      <point x="644.512" y="408.909"/>
      <point x="644.512" y="518.918" type="curve" smooth="yes"/>
      <point x="644.512" y="534.657"/>
      <point x="645.996" y="551.975"/>
      <point x="649" y="571" type="curve" smooth="yes"/>
      <point x="700" y="890" type="line" smooth="yes"/>
      <point x="724" y="1042"/>
      <point x="812" y="1091"/>
      <point x="963" y="1091" type="curve" smooth="yes"/>
      <point x="1091.06" y="1091"/>
      <point x="1146.72" y="1056.22"/>
      <point x="1146.72" y="954.355" type="curve" smooth="yes"/>
      <point x="1146.72" y="935.317"/>
      <point x="1144.78" y="913.936"/>
      <point x="1141" y="890" type="curve" smooth="yes"/>
      <point x="1131" y="826" type="line"/>
      <point x="1248" y="836" type="line"/>
      <point x="1252" y="861" type="line" smooth="yes"/>
      <point x="1257.62" y="896.279"/>
      <point x="1261.14" y="929.943"/>
      <point x="1261.14" y="961.292" type="curve" smooth="yes"/>
      <point x="1261.14" y="1091.67"/>
      <point x="1200.31" y="1182"/>
      <point x="977" y="1182" type="curve" smooth="yes"/>
      <point x="689" y="1182"/>
      <point x="605" y="1050"/>
      <point x="576" y="868" type="curve" smooth="yes"/>
      <point x="532" y="590" type="line" smooth="yes"/>
      <point x="527.476" y="561.08"/>
      <point x="524.858" y="533.595"/>
      <point x="524.858" y="507.837" type="curve" smooth="yes"/>
      <point x="524.858" y="374.169"/>
      <point x="595.369" y="287"/>
    </contour>
    <contour>
      <point x="795" y="82" type="curve" smooth="yes"/>
      <point x="469.715" y="82"/>
      <point x="257.83" y="301.613"/>
      <point x="257.83" y="608.814" type="curve" smooth="yes"/>
      <point x="257.83" y="645.376"/>
      <point x="260.831" y="683.179"/>
      <point x="267" y="722" type="curve" smooth="yes"/>
      <point x="325" y="1086"/>
      <point x="633" y="1361"/>
      <point x="997" y="1361" type="curve" smooth="yes"/>
      <point x="1323.69" y="1361"/>
      <point x="1533.26" y="1141.9"/>
      <point x="1533.26" y="835.97" type="curve" smooth="yes"/>
      <point x="1533.26" y="799.16"/>
      <point x="1530.23" y="761.094"/>
      <point x="1524" y="722" type="curve" smooth="yes"/>
      <point x="1466" y="357"/>
      <point x="1161" y="82"/>
    </contour>
    <contour>
      <point x="778" y="-14" type="curve" smooth="yes"/>
      <point x="1194" y="-14"/>
      <point x="1564" y="303"/>
      <point x="1630" y="722" type="curve" smooth="yes"/>
      <point x="1636.67" y="764.161"/>
      <point x="1639.91" y="805.299"/>
      <point x="1639.91" y="845.191" type="curve" smooth="yes"/>
      <point x="1639.91" y="1199.86"/>
      <point x="1383.94" y="1456"/>
      <point x="1010" y="1456" type="curve"/>
      <point x="597" y="1456"/>
      <point x="224" y="1139"/>
      <point x="158" y="722" type="curve" smooth="yes"/>
      <point x="151.38" y="679.975"/>
      <point x="148.171" y="638.977"/>
      <point x="148.171" y="599.221" type="curve" smooth="yes"/>
      <point x="148.171" y="242.6"/>
      <point x="406.423" y="-14"/>
    </contour>
  </outline>
</glyph>
<glyph name="guillemotleft" format="1">
  <advance width="1072"/>
  <unicode hex="00AB"/>
  <outline>
    <contour>
      <point x="322" y="80" type="line"/>
      <point x="473" y="150" type="line"/>
      <point x="326" y="530" type="line"/>
      <point x="593" y="910" type="line"/>
      <point x="457" y="980" type="line"/>
      <point x="113" y="530" type="line"/>
    </contour>
    <contour>
      <point x="736" y="80" type="line"/>
      <point x="885" y="150" type="line"/>
      <point x="740" y="530" type="line"/>
      <point x="1005" y="910" type="line"/>
      <point x="871" y="980" type="line"/>
      <point x="527" y="530" type="line"/>
    </contour>
  </outline>
</glyph>
<glyph name="logicalnot" format="1">
  <advance width="768"/>
  <unicode hex="00AC"/>
  <outline>
    <contour>
      <point x="500" y="397" type="line"/>
      <point x="622" y="397" type="line"/>
      <point x="661" y="653" type="line"/>
      <point x="99" y="653" type="line"/>
      <point x="82" y="537" type="line"/>
      <point x="522" y="537" type="line"/>
    </contour>
  </outline>
</glyph>
<glyph name="uni00AD" format="1">
  <advance width="1058"/>
  <unicode hex="00AD"/>
  <outline>
    <contour>
      <point x="526" y="566" type="move" name="_mid"/>
    </contour>
    <contour>
      <point x="186" y="502" type="line"/>
      <point x="819" y="502" type="line"/>
      <point x="840" y="642" type="line"/>
      <point x="206" y="642" type="line"/>
    </contour>
  </outline>
</glyph>
<glyph name="registered" format="1">
  <advance width="1789"/>
  <unicode hex="00AE"/>
  <outline>
    <contour>
      <point x="534" y="319" type="line"/>
      <point x="665" y="319" type="line"/>
      <point x="718" y="652" type="line"/>
      <point x="977" y="652" type="line"/>
      <point x="1104" y="319" type="line"/>
      <point x="1232" y="319" type="line"/>
      <point x="1103" y="666" type="line"/>
      <point x="1199" y="691"/>
      <point x="1270" y="760"/>
      <point x="1291" y="894" type="curve" smooth="yes"/>
      <point x="1294" y="908" type="line" smooth="yes"/>
      <point x="1317" y="1082"/>
      <point x="1226" y="1153"/>
      <point x="1069" y="1153" type="curve" smooth="yes"/>
      <point x="666" y="1153" type="line"/>
    </contour>
    <contour>
      <point x="732" y="742" type="line"/>
      <point x="783" y="1062" type="line"/>
      <point x="1059" y="1062" type="line" smooth="yes"/>
      <point x="1177" y="1062"/>
      <point x="1170" y="960"/>
      <point x="1161" y="901" type="curve" smooth="yes"/>
      <point x="1157" y="877" type="line"/>
      <point x="1146" y="814"/>
      <point x="1113" y="742"/>
      <point x="999" y="742" type="curve" smooth="yes"/>
    </contour>
    <contour>
      <point x="795" y="82" type="curve" smooth="yes"/>
      <point x="431" y="82"/>
      <point x="209" y="357"/>
      <point x="267" y="722" type="curve" smooth="yes"/>
      <point x="325" y="1086"/>
      <point x="633" y="1361"/>
      <point x="997" y="1361" type="curve" smooth="yes"/>
      <point x="1363" y="1361"/>
      <point x="1582" y="1086"/>
      <point x="1524" y="722" type="curve" smooth="yes"/>
      <point x="1466" y="357"/>
      <point x="1161" y="82"/>
    </contour>
    <contour>
      <point x="778" y="-14" type="curve" smooth="yes"/>
      <point x="1194" y="-14"/>
      <point x="1564" y="303"/>
      <point x="1630" y="722" type="curve" smooth="yes"/>
      <point x="1696" y="1139"/>
      <point x="1426" y="1456"/>
      <point x="1010" y="1456" type="curve" smooth="yes"/>
      <point x="597" y="1456"/>
      <point x="224" y="1139"/>
      <point x="158" y="722" type="curve" smooth="yes"/>
      <point x="92" y="303"/>
      <point x="365" y="-14"/>
    </contour>
  </outline>
</glyph>
<glyph name="degree" format="1">
  <advance width="1073"/>
  <unicode hex="00B0"/>
  <outline>
    <contour>
      <point x="494" y="821" type="curve" smooth="yes"/>
      <point x="367" y="821"/>
      <point x="269" y="938"/>
      <point x="293" y="1088" type="curve" smooth="yes"/>
      <point x="317" y="1240"/>
      <point x="453" y="1356"/>
      <point x="580" y="1356" type="curve" smooth="yes"/>
      <point x="708" y="1356"/>
      <point x="807" y="1240"/>
      <point x="782" y="1088" type="curve" smooth="yes"/>
      <point x="758" y="938"/>
      <point x="623" y="821"/>
    </contour>
    <contour>
      <point x="485" y="767" type="curve" smooth="yes"/>
      <point x="628" y="767"/>
      <point x="811" y="903"/>
      <point x="840" y="1087" type="curve" smooth="yes"/>
      <point x="868" y="1269"/>
      <point x="729" y="1407"/>
      <point x="586" y="1407" type="curve" smooth="yes"/>
      <point x="444" y="1407"/>
      <point x="262" y="1269"/>
      <point x="234" y="1087" type="curve" smooth="yes"/>
      <point x="205" y="903"/>
      <point x="344" y="767"/>
    </contour>
  </outline>
</glyph>
<glyph name="plusminus" format="1">
  <advance width="1051"/>
  <unicode hex="00B1"/>
  <outline>
    <contour>
      <point x="454" y="339" type="line"/>
      <point x="548" y="339" type="line"/>
      <point x="594" y="623" type="line"/>
      <point x="844" y="623" type="line"/>
      <point x="857" y="709" type="line"/>
      <point x="607" y="709" type="line"/>
      <point x="650" y="976" type="line"/>
      <point x="556" y="976" type="line"/>
      <point x="513" y="709" type="line"/>
      <point x="263" y="709" type="line"/>
      <point x="250" y="623" type="line"/>
      <point x="500" y="623" type="line"/>
    </contour>
    <contour>
      <point x="151" y="0" type="line"/>
      <point x="745" y="0" type="line"/>
      <point x="759" y="93" type="line"/>
      <point x="165" y="93" type="line"/>
    </contour>
  </outline>
</glyph>
<glyph name="twosuperior" format="1">
  <advance width="1077"/>
  <unicode hex="00B2"/>
  <outline>
    <contour>
      <point x="209" y="736" type="line"/>
      <point x="754" y="736" type="line"/>
      <point x="766" y="823" type="line"/>
      <point x="354" y="823" type="line"/>
      <point x="574" y="976" type="line"/>
      <point x="713" y="1091"/>
      <point x="812" y="1166"/>
      <point x="838" y="1332" type="curve" smooth="yes"/>
      <point x="840.653" y="1349.14"/>
      <point x="841.932" y="1365.42"/>
      <point x="841.932" y="1380.83" type="curve" smooth="yes"/>
      <point x="841.932" y="1516.46"/>
      <point x="742.899" y="1585"/>
      <point x="610" y="1585" type="curve" smooth="yes"/>
      <point x="466" y="1585"/>
      <point x="294" y="1505"/>
      <point x="262" y="1278" type="curve"/>
      <point x="370" y="1278" type="line"/>
      <point x="396" y="1463"/>
      <point x="485" y="1505"/>
      <point x="604" y="1505" type="curve" smooth="yes"/>
      <point x="687.666" y="1505"/>
      <point x="744.185" y="1468.55"/>
      <point x="744.185" y="1375.15" type="curve" smooth="yes"/>
      <point x="744.185" y="1362.49"/>
      <point x="743.148" y="1348.79"/>
      <point x="741" y="1334" type="curve" smooth="yes"/>
      <point x="720" y="1208"/>
      <point x="662" y="1158"/>
      <point x="532" y="1053" type="curve"/>
      <point x="220" y="830" type="line"/>
    </contour>
  </outline>
</glyph>
<glyph name="threesuperior" format="1">
  <advance width="1124"/>
  <unicode hex="00B3"/>
  <outline>
    <contour>
      <point x="540" y="701" type="curve" smooth="yes"/>
      <point x="720.49" y="701"/>
      <point x="880.239" y="799.652"/>
      <point x="880.239" y="1006.1" type="curve" smooth="yes"/>
      <point x="880.239" y="1099.77"/>
      <point x="828.439" y="1148.26"/>
      <point x="728" y="1168" type="curve"/>
      <point x="853" y="1201"/>
      <point x="902" y="1265"/>
      <point x="918" y="1352" type="curve" smooth="yes"/>
      <point x="920.632" y="1365.63"/>
      <point x="921.885" y="1378.75"/>
      <point x="921.885" y="1391.35" type="curve" smooth="yes"/>
      <point x="921.885" y="1512.76"/>
      <point x="805.405" y="1585"/>
      <point x="684" y="1585" type="curve" smooth="yes"/>
      <point x="524" y="1585"/>
      <point x="339" y="1560"/>
      <point x="299" y="1297" type="curve"/>
      <point x="392" y="1297" type="line"/>
      <point x="414" y="1477"/>
      <point x="520" y="1501"/>
      <point x="665" y="1501" type="curve" smooth="yes"/>
      <point x="786.583" y="1501"/>
      <point x="836.297" y="1440.83"/>
      <point x="836.297" y="1380.08" type="curve" smooth="yes"/>
      <point x="836.297" y="1374.38"/>
      <point x="835.858" y="1368.67"/>
      <point x="835" y="1363" type="curve" smooth="yes"/>
      <point x="822.16" y="1284.97"/>
      <point x="821.026" y="1205.96"/>
      <point x="542.51" y="1205.96" type="curve" smooth="yes"/>
      <point x="539.049" y="1205.96"/>
      <point x="535.546" y="1205.98"/>
      <point x="532" y="1206" type="curve"/>
      <point x="519" y="1122" type="line"/>
      <point x="523.438" y="1122.04"/>
      <point x="527.812" y="1122.05"/>
      <point x="532.121" y="1122.05" type="curve" smooth="yes"/>
      <point x="733.192" y="1122.05"/>
      <point x="794.468" y="1082.47"/>
      <point x="794.468" y="990.013" type="curve" smooth="yes"/>
      <point x="794.468" y="975.075"/>
      <point x="792.868" y="958.755"/>
      <point x="790" y="941" type="curve" smooth="yes"/>
      <point x="776" y="843"/>
      <point x="667" y="782"/>
      <point x="562" y="782" type="curve" smooth="yes"/>
      <point x="439.689" y="782"/>
      <point x="326.943" y="789.174"/>
      <point x="326.943" y="941.57" type="curve" smooth="yes"/>
      <point x="326.943" y="959.873"/>
      <point x="328.569" y="980.269"/>
      <point x="332" y="1003" type="curve"/>
      <point x="237" y="1003" type="line"/>
      <point x="233.601" y="976.12"/>
      <point x="231.953" y="951.563"/>
      <point x="231.953" y="929.136" type="curve" smooth="yes"/>
      <point x="231.953" y="736.28"/>
      <point x="353.861" y="700.983"/>
      <point x="533.073" y="700.983" type="curve" smooth="yes"/>
      <point x="535.373" y="700.983"/>
      <point x="537.682" y="700.989"/>
    </contour>
  </outline>
</glyph>
<glyph name="acute" format="1">
  <advance width="653"/>
  <unicode hex="00B4"/>
  <outline>
    <contour>
      <point x="251" y="1052" type="move" name="_top"/>
    </contour>
    <contour>
      <point x="232" y="1196" type="line"/>
      <point x="348" y="1196" type="line"/>
      <point x="645" y="1586" type="line"/>
      <point x="446" y="1586" type="line"/>
    </contour>
  </outline>
</glyph>
<glyph name="paragraph" format="1">
  <advance width="1267"/>
  <unicode hex="00B6"/>
  <outline>
    <contour>
      <point x="450" y="-336" type="line"/>
      <point x="587" y="-336" type="line"/>
      <point x="852" y="1340" type="line"/>
      <point x="936" y="1340" type="line"/>
      <point x="671" y="-336" type="line"/>
      <point x="785" y="-336" type="line"/>
      <point x="1064" y="1428" type="line"/>
      <point x="777" y="1428" type="line" smooth="yes"/>
      <point x="583" y="1428"/>
      <point x="340" y="1362"/>
      <point x="306" y="1146" type="curve" smooth="yes"/>
      <point x="304.587" y="1136.85"/>
      <point x="303.906" y="1127.89"/>
      <point x="303.906" y="1119.13" type="curve" smooth="yes"/>
      <point x="303.906" y="972.888"/>
      <point x="493.872" y="882.661"/>
      <point x="642" y="877" type="curve"/>
    </contour>
  </outline>
</glyph>
<glyph name="cedilla" format="1">
  <advance width="512"/>
  <unicode hex="00B8"/>
  <outline>
    <contour>
      <point x="249" y="0" type="move" name="_bot"/>
    </contour>
    <contour>
      <point x="341.955" y="-282.882" type="curve" smooth="yes"/>
      <point x="341.955" y="-347.717"/>
      <point x="282.647" y="-403"/>
      <point x="170" y="-403" type="curve" smooth="yes"/>
      <point x="148" y="-403"/>
      <point x="122" y="-401"/>
      <point x="96" y="-396" type="curve"/>
      <point x="84" y="-480" type="line"/>
      <point x="116" y="-485"/>
      <point x="147" y="-487"/>
      <point x="174" y="-487" type="curve" smooth="yes"/>
      <point x="340" y="-487"/>
      <point x="437" y="-398"/>
      <point x="450" y="-304" type="curve" smooth="yes"/>
      <point x="451.368" y="-296.478"/>
      <point x="452.041" y="-288.912"/>
      <point x="452.041" y="-281.348" type="curve" smooth="yes"/>
      <point x="452.041" y="-200.427"/>
      <point x="374.947" y="-119.778"/>
      <point x="246" y="-96" type="curve"/>
      <point x="252" y="-6" type="line"/>
      <point x="217" y="-6" type="line"/>
      <point x="193" y="-156" type="line"/>
      <point x="287.76" y="-158.787"/>
      <point x="341.955" y="-221.126"/>
    </contour>
  </outline>
</glyph>
<glyph name="onesuperior" format="1">
  <advance width="1004"/>
  <unicode hex="00B9"/>
  <outline>
    <contour>
      <point x="141" y="736" type="line"/>
      <point x="721" y="736" type="line"/>
      <point x="734" y="815" type="line"/>
      <point x="514" y="815" type="line"/>
      <point x="627" y="1538" type="line"/>
      <point x="537" y="1538" type="line"/>
      <point x="274" y="1514" type="line"/>
      <point x="271" y="1433" type="line"/>
      <point x="522" y="1454" type="line"/>
      <point x="421" y="815" type="line"/>
      <point x="153" y="815" type="line"/>
    </contour>
  </outline>
</glyph>
<glyph name="guillemotright" format="1">
  <advance width="1072"/>
  <unicode hex="00BB"/>
  <outline>
    <contour>
      <point x="183" y="80" type="line"/>
      <point x="527" y="530" type="line"/>
      <point x="318" y="980" type="line"/>
      <point x="169" y="910" type="line"/>
      <point x="314" y="530" type="line"/>
      <point x="49" y="150" type="line"/>
    </contour>
    <contour>
      <point x="597" y="80" type="line"/>
      <point x="941" y="530" type="line"/>
      <point x="732" y="980" type="line"/>
      <point x="581" y="910" type="line"/>
      <point x="728" y="530" type="line"/>
      <point x="461" y="150" type="line"/>
    </contour>
  </outline>
</glyph>
<glyph name="threequarters" format="1">
  <advance width="1546"/>
  <unicode hex="00BE"/>
  <outline>
    <contour>
      <point x="714.38" y="1042.16" type="curve" smooth="yes"/>
      <point x="714.38" y="908.73"/>
      <point x="653.095" y="839"/>
      <point x="512" y="839" type="curve" smooth="yes"/>
      <point x="383.549" y="839"/>
      <point x="317.393" y="865.938"/>
      <point x="317.393" y="990.873" type="curve" smooth="yes"/>
      <point x="317.393" y="1002.11"/>
      <point x="317.928" y="1014.13"/>
      <point x="319" y="1027" type="curve"/>
      <point x="214" y="1027" type="line"/>
      <point x="213.815" y="1020.86"/>
      <point x="213.722" y="1014.86"/>
      <point x="213.722" y="1009.01" type="curve" smooth="yes"/>
      <point x="213.722" y="825.265"/>
      <point x="305.174" y="783"/>
      <point x="499" y="783" type="curve" smooth="yes"/>
      <point x="667.421" y="783"/>
      <point x="815.279" y="841.209"/>
      <point x="815.279" y="1037.49" type="curve" smooth="yes"/>
      <point x="815.279" y="1147.75"/>
      <point x="741.963" y="1171.45"/>
      <point x="647" y="1182" type="curve"/>
      <point x="756" y="1191"/>
      <point x="822" y="1227"/>
      <point x="840" y="1344" type="curve" smooth="yes"/>
      <point x="842.075" y="1356.02"/>
      <point x="843.074" y="1367.32"/>
      <point x="843.074" y="1377.94" type="curve" smooth="yes"/>
      <point x="843.074" y="1490.12"/>
      <point x="731.634" y="1526"/>
      <point x="601" y="1526" type="curve" smooth="yes"/>
      <point x="449" y="1526"/>
      <point x="316" y="1509"/>
      <point x="276" y="1311" type="curve"/>
      <point x="381" y="1311" type="line"/>
      <point x="406" y="1467"/>
      <point x="484" y="1467"/>
      <point x="598" y="1467" type="curve" smooth="yes"/>
      <point x="702.747" y="1467"/>
      <point x="743.186" y="1430.58"/>
      <point x="743.186" y="1372.07" type="curve" smooth="yes"/>
      <point x="743.186" y="1364.11"/>
      <point x="742.437" y="1355.74"/>
      <point x="741" y="1347" type="curve" smooth="yes"/>
      <point x="727" y="1256"/>
      <point x="706" y="1206"/>
      <point x="483" y="1206" type="curve"/>
      <point x="476" y="1155" type="line"/>
      <point x="664.16" y="1155"/>
      <point x="714.38" y="1127.97"/>
    </contour>
    <contour>
      <point x="1317" y="0" type="line"/>
      <point x="1402" y="0" type="line"/>
      <point x="1435" y="205" type="line"/>
      <point x="1565" y="205" type="line"/>
      <point x="1571" y="253" type="line"/>
      <point x="1442" y="253" type="line"/>
      <point x="1478" y="484" type="line"/>
      <point x="1393" y="484" type="line"/>
      <point x="1356" y="253" type="line"/>
      <point x="1085" y="253" type="line"/>
      <point x="1564" y="783" type="line"/>
      <point x="1453" y="783" type="line"/>
      <point x="963" y="257" type="line"/>
      <point x="956" y="205" type="line"/>
      <point x="1350" y="205" type="line"/>
    </contour>
    <contour>
      <point x="445" y="0" type="line"/>
      <point x="552" y="0" type="line"/>
      <point x="1476" y="1411" type="line"/>
      <point x="1379" y="1411" type="line"/>
    </contour>
  </outline>
</glyph>
<glyph name="AE" format="1">
  <advance width="1597"/>
  <unicode hex="00C6"/>
  <outline>
    <contour>
      <point x="1083" y="1428" type="move" name="top"/>
    </contour>
    <contour>
      <point x="-5" y="5" type="line"/>
      <point x="134" y="0" type="line"/>
      <point x="248" y="283" type="line"/>
      <point x="794" y="283" type="line"/>
      <point x="749" y="0" type="line"/>
      <point x="1355" y="0" type="line"/>
      <point x="1371" y="104" type="line"/>
      <point x="903" y="104" type="line"/>
      <point x="995" y="675" type="line"/>
      <point x="1399" y="675" type="line"/>
      <point x="1415" y="788" type="line"/>
      <point x="1011" y="788" type="line"/>
      <point x="1097" y="1324" type="line"/>
      <point x="1557" y="1324" type="line"/>
      <point x="1574" y="1427" type="line"/>
      <point x="578" y="1427" type="line"/>
    </contour>
    <contour>
      <point x="289" y="381" type="line"/>
      <point x="654" y="1324" type="line"/>
      <point x="960" y="1324" type="line"/>
      <point x="810" y="381" type="line"/>
    </contour>
  </outline>
</glyph>
<glyph name="Oslash" format="1">
  <advance width="1510"/>
  <unicode hex="00D8"/>
  <outline>
    <contour>
      <point x="318" y="-182" type="line"/>
      <point x="1255" y="1616" type="line"/>
      <point x="1148" y="1663" type="line"/>
      <point x="213" y="-135" type="line"/>
    </contour>
    <component base="O"/>
  </outline>
</glyph>
<glyph name="germandbls" format="1">
  <advance width="1278"/>
  <unicode hex="00DF"/>
  <outline>
    <contour>
      <point x="104" y="0" type="line"/>
      <point x="218" y="0" type="line"/>
      <point x="397" y="1132" type="line" smooth="yes"/>
      <point x="429.383" y="1338.07"/>
      <point x="591.767" y="1340"/>
      <point x="736.736" y="1340" type="curve" smooth="yes"/>
      <point x="745" y="1340" type="line" smooth="yes"/>
      <point x="753.37" y="1340"/>
      <point x="761.823" y="1340.05"/>
      <point x="770.285" y="1340.05" type="curve" smooth="yes"/>
      <point x="862.667" y="1340.05"/>
      <point x="956.188" y="1334.16"/>
      <point x="956.188" y="1193.89" type="curve" smooth="yes"/>
      <point x="956.188" y="1173.55"/>
      <point x="954.221" y="1150.38"/>
      <point x="950" y="1124" type="curve" smooth="yes"/>
      <point x="927" y="982"/>
      <point x="858" y="923"/>
      <point x="618" y="923" type="curve"/>
      <point x="601" y="810" type="line"/>
      <point x="633.297" y="811.485"/>
      <point x="664.338" y="812.434"/>
      <point x="693.856" y="812.434" type="curve" smooth="yes"/>
      <point x="878.568" y="812.434"/>
      <point x="1003.65" y="775.275"/>
      <point x="1003.65" y="599.75" type="curve" smooth="yes"/>
      <point x="1003.65" y="576.642"/>
      <point x="1001.49" y="551.135"/>
      <point x="997" y="523" type="curve" smooth="yes"/>
      <point x="935" y="133"/>
      <point x="654" y="167"/>
      <point x="371" y="135" type="curve"/>
      <point x="370" y="12" type="line"/>
      <point x="762" y="12"/>
      <point x="1036" y="97"/>
      <point x="1107" y="541" type="curve" smooth="yes"/>
      <point x="1114.53" y="588.899"/>
      <point x="1117.84" y="630"/>
      <point x="1117.84" y="665.332" type="curve" smooth="yes"/>
      <point x="1117.84" y="916.204"/>
      <point x="951.012" y="876.185"/>
      <point x="944" y="913" type="curve"/>
      <point x="1020" y="934"/>
      <point x="1060" y="972"/>
      <point x="1085" y="1143" type="curve" smooth="yes"/>
      <point x="1089.25" y="1169.35"/>
      <point x="1091.36" y="1194.2"/>
      <point x="1091.36" y="1217.52" type="curve" smooth="yes"/>
      <point x="1091.36" y="1380.93"/>
      <point x="987.776" y="1469"/>
      <point x="790" y="1469" type="curve" smooth="yes"/>
      <point x="572" y="1469"/>
      <point x="329" y="1432"/>
      <point x="276" y="1094" type="curve" smooth="yes"/>
    </contour>
  </outline>
</glyph>
<glyph name="ae" format="1">
  <advance width="1745"/>
  <unicode hex="00E6"/>
  <outline>
    <contour>
      <point x="983" y="1052" type="move" name="top"/>
    </contour>
    <contour>
      <point x="413" y="-21" type="curve" smooth="yes"/>
      <point x="671" y="-21"/>
      <point x="782" y="90"/>
      <point x="813" y="207" type="curve"/>
      <point x="832" y="103"/>
      <point x="898" y="-21"/>
      <point x="1105" y="-21" type="curve" smooth="yes"/>
      <point x="1395" y="-21"/>
      <point x="1491" y="71"/>
      <point x="1556" y="297" type="curve"/>
      <point x="1435" y="297" type="line"/>
      <point x="1387" y="106"/>
      <point x="1312" y="94"/>
      <point x="1120" y="94" type="curve" smooth="yes"/>
      <point x="952" y="94"/>
      <point x="889" y="176"/>
      <point x="912" y="332" type="curve" smooth="yes"/>
      <point x="941" y="509" type="line"/>
      <point x="1598" y="509" type="line"/>
      <point x="1638" y="766" type="line" smooth="yes"/>
      <point x="1669" y="958"/>
      <point x="1535" y="1070"/>
      <point x="1289" y="1070" type="curve" smooth="yes"/>
      <point x="1135" y="1070"/>
      <point x="1027" y="1026"/>
      <point x="956" y="922" type="curve"/>
      <point x="940" y="1022"/>
      <point x="826" y="1070"/>
      <point x="686" y="1070" type="curve" smooth="yes"/>
      <point x="418" y="1070"/>
      <point x="266" y="1011"/>
      <point x="227" y="767" type="curve" smooth="yes"/>
      <point x="223" y="738" type="line"/>
      <point x="359" y="738" type="line"/>
      <point x="361" y="760" type="line" smooth="yes"/>
      <point x="379" y="868"/>
      <point x="395" y="953"/>
      <point x="653" y="953" type="curve" smooth="yes"/>
      <point x="884" y="953"/>
      <point x="859" y="849"/>
      <point x="848" y="775" type="curve" smooth="yes"/>
      <point x="834" y="689"/>
      <point x="827" y="618"/>
      <point x="584" y="568" type="curve" smooth="yes"/>
      <point x="242" y="498"/>
      <point x="130" y="425"/>
      <point x="106" y="292" type="curve" smooth="yes"/>
      <point x="78" y="138"/>
      <point x="163" y="-21"/>
    </contour>
    <contour>
      <point x="426" y="98" type="curve" smooth="yes"/>
      <point x="304" y="98"/>
      <point x="213" y="140"/>
      <point x="236" y="280" type="curve" smooth="yes"/>
      <point x="255" y="394"/>
      <point x="399" y="400"/>
      <point x="571" y="450" type="curve" smooth="yes"/>
      <point x="770" y="505"/>
      <point x="828" y="571"/>
      <point x="818" y="590" type="curve"/>
      <point x="769" y="291" type="line"/>
      <point x="734" y="180"/>
      <point x="567" y="98"/>
    </contour>
    <contour>
      <point x="957" y="620" type="line"/>
      <point x="981" y="760" type="line" smooth="yes"/>
      <point x="1003" y="901"/>
      <point x="1092" y="957"/>
      <point x="1266" y="957" type="curve" smooth="yes"/>
      <point x="1433" y="957"/>
      <point x="1540" y="919"/>
      <point x="1517" y="786" type="curve" smooth="yes"/>
      <point x="1491" y="620" type="line"/>
    </contour>
  </outline>
</glyph>
<glyph name="eth" format="1">
  <advance width="1066"/>
  <unicode hex="00F0"/>
  <outline>
    <contour>
      <point x="405" y="-18" type="curve"/>
      <point x="788" y="-18"/>
      <point x="807" y="155"/>
      <point x="831" y="308" type="curve" smooth="yes"/>
      <point x="918" y="856" type="line" smooth="yes"/>
      <point x="928.357" y="920.215"/>
      <point x="943.349" y="1002.97"/>
      <point x="943.349" y="1087.83" type="curve" smooth="yes"/>
      <point x="943.349" y="1207.81"/>
      <point x="913.385" y="1332"/>
      <point x="798" y="1414" type="curve"/>
      <point x="932" y="1545" type="line"/>
      <point x="861" y="1594" type="line"/>
      <point x="728" y="1461" type="line"/>
      <point x="656.544" y="1479.26"/>
      <point x="588.554" y="1485.55"/>
      <point x="528.912" y="1485.55" type="curve" smooth="yes"/>
      <point x="438.314" y="1485.55"/>
      <point x="366.975" y="1471.05"/>
      <point x="332" y="1462" type="curve"/>
      <point x="286" y="1357" type="line"/>
      <point x="324.695" y="1363.26"/>
      <point x="382.818" y="1370.17"/>
      <point x="450.604" y="1370.17" type="curve" smooth="yes"/>
      <point x="501.941" y="1370.17"/>
      <point x="558.821" y="1366.2"/>
      <point x="617" y="1355" type="curve"/>
      <point x="421" y="1143" type="line"/>
      <point x="494" y="1094" type="line"/>
      <point x="702" y="1316" type="line"/>
      <point x="784.76" y="1252.63"/>
      <point x="831.942" y="1161.46"/>
      <point x="831.942" y="1040" type="curve" smooth="yes"/>
      <point x="831.942" y="998.562"/>
      <point x="826.449" y="953.593"/>
      <point x="815" y="905" type="curve"/>
      <point x="791" y="928"/>
      <point x="726" y="975"/>
      <point x="580" y="975" type="curve" smooth="yes"/>
      <point x="317" y="975"/>
      <point x="150" y="846"/>
      <point x="121" y="663" type="curve" smooth="yes"/>
      <point x="62" y="297" type="line" smooth="yes"/>
      <point x="58.476" y="274.471"/>
      <point x="56.5993" y="252.624"/>
      <point x="56.5993" y="231.643" type="curve" smooth="yes"/>
      <point x="56.5993" y="85.921"/>
      <point x="147.128" y="-18"/>
    </contour>
    <contour>
      <point x="422" y="87" type="curve" smooth="yes"/>
      <point x="299.294" y="87"/>
      <point x="190.633" y="125.003"/>
      <point x="190.633" y="252.073" type="curve" smooth="yes"/>
      <point x="190.633" y="264.804"/>
      <point x="191.723" y="278.429"/>
      <point x="194" y="293" type="curve" smooth="yes"/>
      <point x="255" y="676" type="line"/>
      <point x="277" y="807"/>
      <point x="397" y="857"/>
      <point x="543" y="857" type="curve" smooth="yes"/>
      <point x="603" y="857"/>
      <point x="746" y="841"/>
      <point x="792" y="811" type="curve"/>
      <point x="791.96" y="812.976"/>
      <point x="791.762" y="813.922"/>
      <point x="791.419" y="813.922" type="curve" smooth="yes"/>
      <point x="783.864" y="813.922"/>
      <point x="705.803" y="353.499"/>
      <point x="699" y="318" type="curve"/>
      <point x="688" y="212"/>
      <point x="667" y="87"/>
    </contour>
  </outline>
</glyph>
<glyph name="divide" format="1">
  <advance width="1038"/>
  <unicode hex="00F7"/>
  <outline>
    <contour>
      <point x="356" y="88" type="line"/>
      <point x="547" y="88" type="line"/>
      <point x="578" y="285" type="line"/>
      <point x="387" y="285" type="line"/>
    </contour>
    <contour>
      <point x="82" y="468" type="line"/>
      <point x="934" y="468" type="line"/>
      <point x="953" y="589" type="line"/>
      <point x="101" y="589" type="line"/>
    </contour>
    <contour>
      <point x="468" y="784" type="line"/>
      <point x="659" y="784" type="line"/>
      <point x="690" y="981" type="line"/>
      <point x="499" y="981" type="line"/>
    </contour>
  </outline>
</glyph>
<glyph name="oslash" format="1">
  <advance width="1170"/>
  <unicode hex="00F8"/>
  <outline>
    <component base="o"/>
    <contour>
      <point x="667" y="1052" type="move" name="top"/>
    </contour>
    <contour>
      <point x="244" y="-233" type="line"/>
      <point x="1014" y="1196" type="line"/>
      <point x="920" y="1233" type="line"/>
      <point x="146" y="-196" type="line"/>
    </contour>
  </outline>
</glyph>
<glyph name="thorn" format="1">
  <advance width="1183"/>
  <unicode hex="00FE"/>
  <outline>
    <contour>
      <point x="37" y="-407" type="line"/>
      <point x="174" y="-407" type="line"/>
      <point x="245" y="44" type="line"/>
      <point x="291" y="16"/>
      <point x="372" y="-24"/>
      <point x="511" y="-24" type="curve" smooth="yes"/>
      <point x="771" y="-24"/>
      <point x="956" y="124"/>
      <point x="993" y="355" type="curve" smooth="yes"/>
      <point x="1050" y="716" type="line" smooth="yes"/>
      <point x="1082" y="919"/>
      <point x="980" y="1065"/>
      <point x="703" y="1065" type="curve" smooth="yes"/>
      <point x="583" y="1065"/>
      <point x="459" y="1020"/>
      <point x="392" y="969" type="curve"/>
      <point x="477" y="1500" type="line"/>
      <point x="343" y="1500" type="line"/>
    </contour>
    <contour>
      <point x="524" y="88" type="curve" smooth="yes"/>
      <point x="413" y="88"/>
      <point x="325" y="120"/>
      <point x="263" y="159" type="curve"/>
      <point x="368" y="814" type="line"/>
      <point x="380" y="837"/>
      <point x="506" y="951"/>
      <point x="666" y="951" type="curve" smooth="yes"/>
      <point x="819" y="951"/>
      <point x="938" y="873"/>
      <point x="916" y="734" type="curve" smooth="yes"/>
      <point x="850" y="326" type="line" smooth="yes"/>
      <point x="828" y="184"/>
      <point x="687" y="88"/>
    </contour>
  </outline>
</glyph>
<glyph name="Hbar" format="1">
  <advance width="1483"/>
  <unicode hex="0126"/>
  <outline>
    <component base="H"/>
    <contour>
      <point x="228" y="1017" type="line"/>
      <point x="1351" y="1017" type="line"/>
      <point x="1373" y="1153" type="line"/>
      <point x="249" y="1153" type="line"/>
    </contour>
  </outline>
</glyph>
<glyph name="hbar" format="1">
  <advance width="1206"/>
  <unicode hex="0127"/>
  <outline>
    <contour>
      <point x="126" y="1266" type="line"/>
      <point x="992" y="1266" type="line"/>
      <point x="1009" y="1378" type="line"/>
      <point x="143" y="1378" type="line"/>
    </contour>
    <component base="h"/>
  </outline>
</glyph>
<glyph name="dotlessi" format="1">
  <advance width="548"/>
  <unicode hex="0131"/>
  <outline>
    <contour>
      <point x="218" y="0" type="move" name="ogonek"/>
    </contour>
    <contour>
      <point x="374" y="1052" type="move" name="top"/>
    </contour>
    <contour>
      <point x="122" y="0" type="line"/>
      <point x="272" y="0" type="line"/>
      <point x="439" y="1052" type="line"/>
      <point x="289" y="1052" type="line"/>
    </contour>
  </outline>
</glyph>
<glyph name="kgreenlandic" format="1">
  <advance width="1109"/>
  <unicode hex="0138"/>
  <outline>
    <contour>
      <point x="112" y="0" type="line"/>
      <point x="249" y="0" type="line"/>
      <point x="302" y="335" type="line"/>
      <point x="507" y="507" type="line"/>
      <point x="846" y="0" type="line"/>
      <point x="998" y="0" type="line"/>
      <point x="608" y="570" type="line"/>
      <point x="1108" y="1052" type="line"/>
      <point x="970" y="1052" type="line"/>
      <point x="690" y="792"/>
      <point x="603" y="713"/>
      <point x="321" y="455" type="curve"/>
      <point x="415" y="1052" type="line"/>
      <point x="278" y="1052" type="line"/>
    </contour>
  </outline>
</glyph>
<glyph name="lslash" format="1">
  <advance width="708"/>
  <unicode hex="0142"/>
  <outline>
    <component base="l"/>
    <contour>
      <point x="41" y="578" type="line"/>
      <point x="627" y="870" type="line"/>
      <point x="645" y="982" type="line"/>
      <point x="60" y="690" type="line"/>
    </contour>
  </outline>
</glyph>
<glyph name="Eng" format="1">
  <advance width="1547"/>
  <unicode hex="014A"/>
  <outline>
    <contour>
      <point x="631" y="-368" type="line"/>
      <point x="895" y="-368"/>
      <point x="1193" y="-283"/>
      <point x="1253" y="98" type="curve" smooth="yes"/>
      <point x="1464" y="1427" type="line"/>
      <point x="1341" y="1427" type="line"/>
      <point x="1180" y="416" type="line"/>
      <point x="477" y="1427" type="line"/>
      <point x="367" y="1427" type="line"/>
      <point x="141" y="0" type="line"/>
      <point x="264" y="0" type="line"/>
      <point x="449" y="1169" type="line"/>
      <point x="1134" y="212" type="line"/>
      <point x="1119" y="114" type="line" smooth="yes"/>
      <point x="1067" y="-220"/>
      <point x="875" y="-233"/>
      <point x="620" y="-256" type="curve"/>
    </contour>
  </outline>
</glyph>
<glyph name="eng" format="1">
  <advance width="1209"/>
  <unicode hex="014B"/>
  <outline>
    <contour>
      <point x="586" y="-287" type="line"/>
      <point x="874" y="-287"/>
      <point x="935" y="-138"/>
      <point x="995" y="243" type="curve" smooth="yes"/>
      <point x="1076" y="756" type="line" smooth="yes"/>
      <point x="1079.73" y="778.953"/>
      <point x="1081.83" y="801.783"/>
      <point x="1081.83" y="824.052" type="curve" smooth="yes"/>
      <point x="1081.83" y="957.015"/>
      <point x="1006.82" y="1070"/>
      <point x="755" y="1070" type="curve" smooth="yes"/>
      <point x="598" y="1070"/>
      <point x="510" y="1028"/>
      <point x="429" y="962" type="curve"/>
      <point x="443" y="1052" type="line"/>
      <point x="306" y="1052" type="line"/>
      <point x="139" y="0" type="line"/>
      <point x="276" y="0" type="line"/>
      <point x="396" y="753" type="line" smooth="yes"/>
      <point x="411" y="853"/>
      <point x="493" y="953"/>
      <point x="728" y="953" type="curve" smooth="yes"/>
      <point x="872.102" y="953"/>
      <point x="946.387" y="900.431"/>
      <point x="946.387" y="816.138" type="curve" smooth="yes"/>
      <point x="946.387" y="807.423"/>
      <point x="945.593" y="798.37"/>
      <point x="944" y="789" type="curve" smooth="yes"/>
      <point x="857" y="236" type="line" smooth="yes"/>
      <point x="810.509" y="-60.0215"/>
      <point x="823.432" y="-176.004"/>
      <point x="613.062" y="-176.004" type="curve" smooth="yes"/>
      <point x="601.707" y="-176.004"/>
      <point x="589.701" y="-175.666"/>
      <point x="577" y="-175" type="curve"/>
    </contour>
  </outline>
</glyph>
<glyph name="OE" format="1">
  <advance width="1511"/>
  <unicode hex="0152"/>
  <outline>
    <contour>
      <point x="696" y="0" type="curve" smooth="yes"/>
      <point x="1220" y="0" type="line"/>
      <point x="1241" y="126" type="line"/>
      <point x="775" y="126" type="line"/>
      <point x="861" y="663" type="line"/>
      <point x="1266" y="663" type="line"/>
      <point x="1284" y="788" type="line"/>
      <point x="879" y="788" type="line"/>
      <point x="961" y="1301" type="line"/>
      <point x="1414" y="1301" type="line"/>
      <point x="1435" y="1428" type="line"/>
      <point x="924" y="1428" type="line" smooth="yes"/>
      <point x="922.852" y="1428"/>
      <point x="921.705" y="1428"/>
      <point x="920.56" y="1428" type="curve" smooth="yes"/>
      <point x="418.346" y="1428"/>
      <point x="274.886" y="1209.28"/>
      <point x="225" y="894" type="curve" smooth="yes"/>
      <point x="165" y="512" type="line" smooth="yes"/>
      <point x="157.276" y="463.079"/>
      <point x="152.788" y="416.644"/>
      <point x="152.788" y="373.162" type="curve" smooth="yes"/>
      <point x="152.788" y="146.442"/>
      <point x="274.784" y="5.68434e-14"/>
    </contour>
    <contour>
      <point x="702" y="125" type="line" smooth="yes"/>
      <point x="468.741" y="125"/>
      <point x="314.687" y="167.294"/>
      <point x="314.687" y="393.489" type="curve" smooth="yes"/>
      <point x="314.687" y="425.239"/>
      <point x="317.723" y="460.612"/>
      <point x="324" y="500" type="curve" smooth="yes"/>
      <point x="390" y="915" type="line" smooth="yes"/>
      <point x="440" y="1234"/>
      <point x="624" y="1305"/>
      <point x="889" y="1305" type="curve" smooth="yes"/>
      <point x="802" y="1305" type="line"/>
      <point x="615" y="125" type="line"/>
    </contour>
  </outline>
</glyph>
<glyph name="oe" format="1">
  <advance width="1706"/>
  <unicode hex="0153"/>
  <outline>
    <contour>
      <point x="474" y="-18" type="curve" smooth="yes"/>
      <point x="642" y="-18"/>
      <point x="737" y="41"/>
      <point x="808" y="141" type="curve"/>
      <point x="849" y="45"/>
      <point x="942" y="-18"/>
      <point x="1098" y="-18" type="curve" smooth="yes"/>
      <point x="1388" y="-18"/>
      <point x="1465" y="90"/>
      <point x="1529" y="315" type="curve"/>
      <point x="1409" y="315" type="line"/>
      <point x="1360" y="124"/>
      <point x="1304" y="94"/>
      <point x="1112" y="94" type="curve" smooth="yes"/>
      <point x="968.155" y="94"/>
      <point x="905.179" y="154.837"/>
      <point x="905.179" y="271.4" type="curve" smooth="yes"/>
      <point x="905.179" y="290.163"/>
      <point x="906.811" y="310.37"/>
      <point x="910" y="332" type="curve" smooth="yes"/>
      <point x="937" y="502" type="line"/>
      <point x="1560" y="502" type="line"/>
      <point x="1602" y="766" type="line" smooth="yes"/>
      <point x="1605.29" y="786.37"/>
      <point x="1606.92" y="805.839"/>
      <point x="1606.92" y="824.37" type="curve" smooth="yes"/>
      <point x="1606.92" y="980.504"/>
      <point x="1490.9" y="1070"/>
      <point x="1271" y="1070" type="curve" smooth="yes"/>
      <point x="1117" y="1070"/>
      <point x="1010" y="1032"/>
      <point x="936" y="934" type="curve"/>
      <point x="886" y="1033"/>
      <point x="787" y="1070"/>
      <point x="646" y="1070" type="curve" smooth="yes"/>
      <point x="391" y="1070"/>
      <point x="230" y="933"/>
      <point x="200" y="746" type="curve" smooth="yes"/>
      <point x="131" y="312" type="line" smooth="yes"/>
      <point x="127.077" y="286.841"/>
      <point x="124.948" y="262.45"/>
      <point x="124.948" y="239.081" type="curve" smooth="yes"/>
      <point x="124.948" y="89.6787"/>
      <point x="211.985" y="-18"/>
    </contour>
    <contour>
      <point x="491" y="94" type="curve" smooth="yes"/>
      <point x="347.13" y="94"/>
      <point x="262.351" y="137.919"/>
      <point x="262.351" y="250.018" type="curve" smooth="yes"/>
      <point x="262.351" y="263.365"/>
      <point x="263.553" y="277.679"/>
      <point x="266" y="293" type="curve" smooth="yes"/>
      <point x="340" y="764" type="line"/>
      <point x="364" y="908"/>
      <point x="475" y="957"/>
      <point x="629" y="957" type="curve" smooth="yes"/>
      <point x="769.263" y="957"/>
      <point x="845.692" y="911.291"/>
      <point x="845.692" y="806.58" type="curve" smooth="yes"/>
      <point x="845.692" y="793.339"/>
      <point x="844.47" y="779.155"/>
      <point x="842" y="764" type="curve" smooth="yes"/>
      <point x="768" y="293" type="line" smooth="yes"/>
      <point x="745" y="151"/>
      <point x="645" y="94"/>
    </contour>
    <contour>
      <point x="955" y="620" type="line"/>
      <point x="978" y="760" type="line" smooth="yes"/>
      <point x="1001" y="901"/>
      <point x="1075" y="957"/>
      <point x="1249" y="957" type="curve" smooth="yes"/>
      <point x="1396.83" y="957"/>
      <point x="1471.79" y="927.223"/>
      <point x="1471.79" y="828.132" type="curve" smooth="yes"/>
      <point x="1471.79" y="815.282"/>
      <point x="1470.53" y="801.267"/>
      <point x="1468" y="786" type="curve" smooth="yes"/>
      <point x="1442" y="620" type="line"/>
    </contour>
  </outline>
</glyph>
<glyph name="dotlessj" format="1">
  <advance width="548"/>
  <unicode hex="0237"/>
  <outline>
    <contour>
      <point x="421" y="1052" type="move" name="top"/>
    </contour>
    <contour>
      <point x="-79" y="-367" type="line"/>
      <point x="-39" y="-367" type="line" smooth="yes"/>
      <point x="-29.4835" y="-367"/>
      <point x="-20.1236" y="-367.034"/>
      <point x="-10.9225" y="-367.034" type="curve" smooth="yes"/>
      <point x="144.241" y="-367.034"/>
      <point x="254.247" y="-357.232"/>
      <point x="309" y="-7" type="curve" smooth="yes"/>
      <point x="477" y="1052" type="line"/>
      <point x="340" y="1052" type="line"/>
      <point x="168" y="-32" type="line" smooth="yes"/>
      <point x="137.706" y="-219.657"/>
      <point x="84.7509" y="-234.528"/>
      <point x="-8.14552" y="-234.528" type="curve" smooth="yes"/>
      <point x="-25.6417" y="-234.528"/>
      <point x="-44.5547" y="-234"/>
      <point x="-65" y="-234" type="curve" smooth="yes"/>
      <point x="-84" y="-234" type="line"/>
    </contour>
  </outline>
</glyph>
<glyph name="uni02C9" format="1">
  <advance width="514"/>
  <unicode hex="02C9"/>
  <outline>
    <contour>
      <point x="256" y="1433" type="move" name="_mid"/>
    </contour>
    <contour>
      <point x="196" y="1052" type="move" name="_top"/>
    </contour>
    <contour>
      <point x="3" y="1363" type="line"/>
      <point x="487" y="1363" type="line"/>
      <point x="511" y="1504" type="line"/>
      <point x="27" y="1504" type="line"/>
    </contour>
  </outline>
</glyph>
<glyph name="breve" format="1">
  <advance width="512"/>
  <unicode hex="02D8"/>
  <outline>
    <contour>
      <point x="206" y="1052" type="move" name="_top"/>
    </contour>
    <contour>
      <point x="241" y="1340" type="curve"/>
      <point x="387" y="1340"/>
      <point x="469" y="1460"/>
      <point x="479" y="1524" type="curve"/>
      <point x="363" y="1524" type="line"/>
      <point x="355" y="1474"/>
      <point x="304" y="1440"/>
      <point x="258" y="1440" type="curve" smooth="yes"/>
      <point x="214.985" y="1440"/>
      <point x="176.996" y="1468.48"/>
      <point x="176.996" y="1511.64" type="curve" smooth="yes"/>
      <point x="176.996" y="1515.64"/>
      <point x="177.322" y="1519.76"/>
      <point x="178" y="1524" type="curve"/>
      <point x="63" y="1524" type="line"/>
      <point x="62.0945" y="1518.2"/>
      <point x="61.6236" y="1511.95"/>
      <point x="61.6236" y="1505.37" type="curve" smooth="yes"/>
      <point x="61.6236" y="1439.25"/>
      <point x="109.13" y="1340"/>
    </contour>
  </outline>
</glyph>
<glyph name="ring" format="1">
  <advance width="464"/>
  <unicode hex="02DA"/>
  <outline>
    <contour>
      <point x="190" y="1052" type="move" name="_top"/>
    </contour>
    <contour>
      <point x="338.153" y="1341.32" type="curve" smooth="yes"/>
      <point x="338.153" y="1246.62"/>
      <point x="270.594" y="1210"/>
      <point x="215" y="1210" type="curve" smooth="yes"/>
      <point x="169.65" y="1210"/>
      <point x="125.881" y="1230.56"/>
      <point x="125.881" y="1292.77" type="curve" smooth="yes"/>
      <point x="125.881" y="1388.35"/>
      <point x="195.309" y="1424"/>
      <point x="249" y="1424" type="curve" smooth="yes"/>
      <point x="295.152" y="1424"/>
      <point x="338.153" y="1402.73"/>
    </contour>
    <contour>
      <point x="256" y="1475" type="curve" smooth="yes"/>
      <point x="176.242" y="1475"/>
      <point x="57.6947" y="1421.71"/>
      <point x="57.6947" y="1288.65" type="curve" smooth="yes"/>
      <point x="57.6947" y="1195.02"/>
      <point x="139.517" y="1160"/>
      <point x="208" y="1160" type="curve" smooth="yes"/>
      <point x="287.831" y="1160"/>
      <point x="406.305" y="1212.23"/>
      <point x="406.305" y="1345.37" type="curve" smooth="yes"/>
      <point x="406.305" y="1439.15"/>
      <point x="324.483" y="1475"/>
    </contour>
  </outline>
</glyph>
<glyph name="ogonek" format="1">
  <advance width="529"/>
  <unicode hex="02DB"/>
  <outline>
    <contour>
      <point x="391" y="0" type="move" name="_ogonek"/>
    </contour>
    <contour>
      <point x="370" y="-457" type="curve"/>
      <point x="373" y="-386" type="line"/>
      <point x="250.627" y="-386"/>
      <point x="226.092" y="-330.093"/>
      <point x="226.092" y="-278.549" type="curve" smooth="yes"/>
      <point x="226.092" y="-266.913"/>
      <point x="227.342" y="-255.498"/>
      <point x="229" y="-245" type="curve" smooth="yes"/>
      <point x="243" y="-162"/>
      <point x="321" y="-44"/>
      <point x="412" y="11" type="curve"/>
      <point x="381" y="11" type="line"/>
      <point x="209" y="-114"/>
      <point x="148" y="-205"/>
      <point x="137" y="-273" type="curve" smooth="yes"/>
      <point x="136.109" y="-279.401"/>
      <point x="135.644" y="-285.967"/>
      <point x="135.644" y="-292.628" type="curve" smooth="yes"/>
      <point x="135.644" y="-368.178"/>
      <point x="195.396" y="-456.081"/>
    </contour>
  </outline>
</glyph>
<glyph name="tilde" format="1">
  <advance width="364"/>
  <unicode hex="02DC"/>
  <outline>
    <contour>
      <point x="139" y="1052" type="move" name="_top"/>
    </contour>
    <contour>
      <point x="53" y="1186" type="curve" smooth="yes"/>
      <point x="181" y="1186"/>
      <point x="226" y="1296"/>
      <point x="307" y="1296" type="curve" smooth="yes"/>
      <point x="353" y="1296"/>
      <point x="380" y="1262"/>
      <point x="369" y="1199" type="curve"/>
      <point x="453" y="1199" type="line"/>
      <point x="478" y="1351"/>
      <point x="429" y="1409"/>
      <point x="309" y="1409" type="curve" smooth="yes"/>
      <point x="182" y="1409"/>
      <point x="135" y="1299"/>
      <point x="51" y="1299" type="curve" smooth="yes"/>
      <point x="7" y="1299"/>
      <point x="-17" y="1335"/>
      <point x="-7" y="1397" type="curve"/>
      <point x="-91" y="1397" type="line"/>
      <point x="-115" y="1245"/>
      <point x="-67" y="1186"/>
    </contour>
  </outline>
</glyph>
<glyph name="hungarumlaut" format="1">
  <advance width="1024"/>
  <unicode hex="02DD"/>
  <outline>
    <contour>
      <point x="374" y="1052" type="move" name="_top"/>
    </contour>
    <contour>
      <point x="168" y="1375" type="line"/>
      <point x="284" y="1375" type="line"/>
      <point x="581" y="1765" type="line"/>
      <point x="382" y="1765" type="line"/>
    </contour>
    <contour>
      <point x="578" y="1375" type="line"/>
      <point x="694" y="1375" type="line"/>
      <point x="991" y="1765" type="line"/>
      <point x="792" y="1765" type="line"/>
    </contour>
  </outline>
</glyph>
<glyph name="uni0312" format="1">
  <advance width="600"/>
  <unicode hex="0312"/>
  <outline>
    <component base="comma" xScale="-1" yScale="-1" xOffset="569" yOffset="1571"/>
    <contour>
      <point x="208" y="1052" type="move" name="_top"/>
    </contour>
  </outline>
</glyph>
<glyph name="Delta" format="1">
  <advance width="1433"/>
  <unicode hex="0394"/>
  <unicode hex="2206"/>
  <outline>
    <contour>
      <point x="79" y="0" type="line"/>
      <point x="1117" y="0" type="line"/>
      <point x="898" y="1428" type="line"/>
      <point x="745" y="1428" type="line"/>
    </contour>
    <contour>
      <point x="304" y="110" type="line"/>
      <point x="819" y="1229" type="line"/>
      <point x="983" y="110" type="line"/>
    </contour>
  </outline>
</glyph>
<glyph name="Sigma" format="1">
  <advance width="1132"/>
  <unicode hex="03A3"/>
  <outline>
    <contour>
      <point x="954" y="0" type="line"/>
      <point x="974" y="124" type="line"/>
      <point x="152" y="124" type="line"/>
      <point x="723" y="740" type="line"/>
      <point x="733" y="804" type="line"/>
      <point x="332" y="1306" type="line"/>
      <point x="1161" y="1306" type="line"/>
      <point x="1181" y="1428" type="line"/>
      <point x="238" y="1428" type="line"/>
      <point x="217" y="1302" type="line"/>
      <point x="619" y="763" type="line"/>
      <point x="32" y="133" type="line"/>
      <point x="10" y="0" type="line"/>
    </contour>
  </outline>
</glyph>
<glyph name="mu" format="1">
  <advance width="1211"/>
  <unicode hex="03BC"/>
  <outline>
    <contour>
      <point x="988" y="1052" type="line"/>
      <point x="869" y="304" type="line"/>
      <point x="857" y="222"/>
      <point x="765" y="96"/>
      <point x="530" y="96" type="curve" smooth="yes"/>
      <point x="386.473" y="96"/>
      <point x="322.8" y="162.002"/>
      <point x="322.8" y="249.138" type="curve" smooth="yes"/>
      <point x="322.8" y="258.532"/>
      <point x="323.54" y="268.171"/>
      <point x="325" y="278" type="curve" smooth="yes"/>
      <point x="447" y="1052" type="line"/>
      <point x="310" y="1052" type="line"/>
      <point x="70" y="-471" type="line"/>
      <point x="219" y="-471" type="line"/>
      <point x="294" y="10" type="line"/>
      <point x="335" y="-12"/>
      <point x="396" y="-24"/>
      <point x="481" y="-24" type="curve" smooth="yes"/>
      <point x="646" y="-24"/>
      <point x="763" y="36"/>
      <point x="842" y="132" type="curve"/>
      <point x="849" y="0" type="line"/>
      <point x="958" y="0" type="line"/>
      <point x="1125" y="1052" type="line"/>
    </contour>
  </outline>
</glyph>
<glyph name="pi" format="1">
  <advance width="1134"/>
  <unicode hex="03C0"/>
  <outline>
    <contour>
      <point x="92" y="919" type="line"/>
      <point x="52" y="893"/>
      <point x="214" y="967"/>
      <point x="330" y="961" type="curve"/>
      <point x="177" y="0" type="line"/>
      <point x="327" y="0" type="line"/>
      <point x="479" y="960" type="line"/>
      <point x="810" y="960" type="line"/>
      <point x="697" y="249" type="line"/>
      <point x="663" y="30"/>
      <point x="731" y="-20"/>
      <point x="919" y="-23" type="curve"/>
      <point x="989" y="105" type="line"/>
      <point x="854" y="138"/>
      <point x="831" y="157"/>
      <point x="860" y="327" type="curve"/>
      <point x="959" y="960" type="line"/>
      <point x="1141" y="960" type="line"/>
      <point x="1156" y="1052" type="line"/>
      <point x="292" y="1052" type="line"/>
      <point x="160" y="1052"/>
      <point x="78" y="981"/>
      <point x="106" y="1008" type="curve"/>
    </contour>
  </outline>
</glyph>
<glyph name="endash" format="1">
  <advance width="433"/>
  <unicode hex="2013"/>
  <outline>
    <contour>
      <point x="-82" y="702" type="line"/>
      <point x="495" y="702" type="line"/>
      <point x="511" y="804" type="line"/>
      <point x="-65" y="804" type="line"/>
    </contour>
  </outline>
</glyph>
<glyph name="quoteleft" format="1">
  <advance width="706"/>
  <unicode hex="2018"/>
  <outline>
    <contour>
      <point x="532" y="1447" type="line"/>
      <point x="469" y="1394"/>
      <point x="348" y="1276"/>
      <point x="319" y="1091" type="curve" smooth="yes"/>
      <point x="294" y="932" type="line"/>
      <point x="512" y="932" type="line"/>
      <point x="545" y="1140" type="line"/>
      <point x="418" y="1140" type="line"/>
      <point x="439" y="1268"/>
      <point x="539" y="1351"/>
      <point x="591" y="1404" type="curve"/>
    </contour>
  </outline>
</glyph>
<glyph name="quoteright" format="1">
  <advance width="730"/>
  <unicode hex="2019"/>
  <outline>
    <contour>
      <point x="174" y="932" type="line"/>
      <point x="237" y="985"/>
      <point x="358" y="1102"/>
      <point x="387" y="1287" type="curve" smooth="yes"/>
      <point x="412" y="1446" type="line"/>
      <point x="194" y="1446" type="line"/>
      <point x="161" y="1239" type="line"/>
      <point x="288" y="1239" type="line"/>
      <point x="267" y="1111"/>
      <point x="167" y="1028"/>
      <point x="115" y="975" type="curve"/>
    </contour>
  </outline>
</glyph>
<glyph name="quotesinglbase" format="1">
  <advance width="706"/>
  <unicode hex="201A"/>
  <outline>
    <contour>
      <point x="150" y="-307" type="line"/>
      <point x="213" y="-255"/>
      <point x="334" y="-137"/>
      <point x="363" y="48" type="curve" smooth="yes"/>
      <point x="388" y="207" type="line"/>
      <point x="170" y="207" type="line"/>
      <point x="137" y="0" type="line"/>
      <point x="264" y="0" type="line"/>
      <point x="243" y="-128"/>
      <point x="143" y="-211"/>
      <point x="91" y="-265" type="curve"/>
    </contour>
  </outline>
</glyph>
<glyph name="quotedblleft" format="1">
  <advance width="1104"/>
  <unicode hex="201C"/>
  <outline>
    <contour>
      <point x="556" y="1440" type="line"/>
      <point x="493" y="1387"/>
      <point x="372" y="1269"/>
      <point x="343" y="1084" type="curve" smooth="yes"/>
      <point x="318" y="925" type="line"/>
      <point x="536" y="925" type="line"/>
      <point x="569" y="1132" type="line"/>
      <point x="442" y="1132" type="line"/>
      <point x="463" y="1261"/>
      <point x="563" y="1344"/>
      <point x="615" y="1397" type="curve"/>
    </contour>
    <contour>
      <point x="930" y="1440" type="line"/>
      <point x="867" y="1387"/>
      <point x="746" y="1269"/>
      <point x="717" y="1084" type="curve" smooth="yes"/>
      <point x="692" y="925" type="line"/>
      <point x="910" y="925" type="line"/>
      <point x="943" y="1132" type="line"/>
      <point x="816" y="1132" type="line"/>
      <point x="836" y="1261"/>
      <point x="937" y="1344"/>
      <point x="989" y="1397" type="curve"/>
    </contour>
  </outline>
</glyph>
<glyph name="quotedblright" format="1">
  <advance width="1080"/>
  <unicode hex="201D"/>
  <outline>
    <contour>
      <point x="150" y="925" type="line"/>
      <point x="213" y="977"/>
      <point x="334" y="1095"/>
      <point x="363" y="1280" type="curve" smooth="yes"/>
      <point x="388" y="1439" type="line"/>
      <point x="170" y="1439" type="line"/>
      <point x="137" y="1232" type="line"/>
      <point x="264" y="1232" type="line"/>
      <point x="243" y="1104"/>
      <point x="143" y="1021"/>
      <point x="91" y="967" type="curve"/>
    </contour>
    <contour>
      <point x="523" y="925" type="line"/>
      <point x="586" y="977"/>
      <point x="707" y="1095"/>
      <point x="737" y="1280" type="curve" smooth="yes"/>
      <point x="761" y="1439" type="line"/>
      <point x="543" y="1439" type="line"/>
      <point x="511" y="1232" type="line"/>
      <point x="637" y="1232" type="line"/>
      <point x="617" y="1104"/>
      <point x="516" y="1021"/>
      <point x="464" y="967" type="curve"/>
    </contour>
  </outline>
</glyph>
<glyph name="quotedblbase" format="1">
  <advance width="1066"/>
  <unicode hex="201E"/>
  <outline>
    <contour>
      <point x="510" y="-307" type="line"/>
      <point x="573" y="-255"/>
      <point x="693" y="-137"/>
      <point x="723" y="48" type="curve" smooth="yes"/>
      <point x="748" y="207" type="line"/>
      <point x="530" y="207" type="line"/>
      <point x="497" y="0" type="line"/>
      <point x="623" y="0" type="line"/>
      <point x="603" y="-128"/>
      <point x="503" y="-211"/>
      <point x="451" y="-265" type="curve"/>
    </contour>
    <contour>
      <point x="150" y="-307" type="line"/>
      <point x="213" y="-255"/>
      <point x="334" y="-137"/>
      <point x="363" y="48" type="curve" smooth="yes"/>
      <point x="388" y="207" type="line"/>
      <point x="170" y="207" type="line"/>
      <point x="137" y="0" type="line"/>
      <point x="264" y="0" type="line"/>
      <point x="243" y="-128"/>
      <point x="143" y="-211"/>
      <point x="91" y="-265" type="curve"/>
    </contour>
  </outline>
</glyph>
<glyph name="dagger" format="1">
  <advance width="810"/>
  <unicode hex="2020"/>
  <outline>
    <contour>
      <point x="190" y="0" type="line"/>
      <point x="368" y="0" type="line"/>
      <point x="523" y="975" type="line"/>
      <point x="798" y="975" type="line"/>
      <point x="815" y="1088" type="line"/>
      <point x="540" y="1088" type="line"/>
      <point x="610" y="1519" type="line"/>
      <point x="432" y="1519" type="line"/>
      <point x="363" y="1088" type="line"/>
      <point x="97" y="1088" type="line"/>
      <point x="80" y="975" type="line"/>
      <point x="346" y="975" type="line"/>
    </contour>
  </outline>
</glyph>
<glyph name="daggerdbl" format="1">
  <advance width="886"/>
  <unicode hex="2021"/>
  <outline>
    <contour>
      <point x="229" y="0" type="line"/>
      <point x="407" y="0" type="line"/>
      <point x="474" y="425" type="line"/>
      <point x="784" y="425" type="line"/>
      <point x="801" y="519" type="line"/>
      <point x="490" y="519" type="line"/>
      <point x="561" y="966" type="line"/>
      <point x="871" y="966" type="line"/>
      <point x="885" y="1061" type="line"/>
      <point x="575" y="1061" type="line"/>
      <point x="649" y="1519" type="line"/>
      <point x="471" y="1519" type="line"/>
      <point x="397" y="1061" type="line"/>
      <point x="95" y="1061" type="line"/>
      <point x="81" y="966" type="line"/>
      <point x="383" y="966" type="line"/>
      <point x="312" y="519" type="line"/>
      <point x="10" y="519" type="line"/>
      <point x="-6" y="425" type="line"/>
      <point x="296" y="425" type="line"/>
    </contour>
  </outline>
</glyph>
<glyph name="bullet" format="1">
  <advance width="946"/>
  <unicode hex="2022"/>
  <outline>
    <contour>
      <point x="424" y="243" type="curve" smooth="yes"/>
      <point x="672" y="243"/>
      <point x="741" y="334"/>
      <point x="773" y="534" type="curve" smooth="yes"/>
      <point x="779.137" y="572.933"/>
      <point x="782.7" y="607.71"/>
      <point x="782.7" y="638.492" type="curve" smooth="yes"/>
      <point x="782.7" y="768.211"/>
      <point x="719.436" y="827"/>
      <point x="519" y="827" type="curve" smooth="yes"/>
      <point x="275" y="827"/>
      <point x="205" y="737"/>
      <point x="173" y="534" type="curve" smooth="yes"/>
      <point x="166.799" y="495.049"/>
      <point x="163.189" y="460.266"/>
      <point x="163.189" y="429.499" type="curve" smooth="yes"/>
      <point x="163.189" y="301.498"/>
      <point x="225.671" y="243"/>
    </contour>
  </outline>
</glyph>
<glyph name="perthousand" format="1">
  <advance width="2956"/>
  <unicode hex="2030"/>
  <outline>
    <contour>
      <point x="560" y="766" type="curve" smooth="yes"/>
      <point x="455.953" y="766"/>
      <point x="426.563" y="822.385"/>
      <point x="426.563" y="907.993" type="curve" smooth="yes"/>
      <point x="426.563" y="940.866"/>
      <point x="430.896" y="978.047"/>
      <point x="437" y="1018" type="curve" smooth="yes"/>
      <point x="452" y="1117" type="line"/>
      <point x="475" y="1256"/>
      <point x="504" y="1353"/>
      <point x="654" y="1353" type="curve" smooth="yes"/>
      <point x="762.611" y="1353"/>
      <point x="793.101" y="1302.82"/>
      <point x="793.101" y="1222.17" type="curve" smooth="yes"/>
      <point x="793.101" y="1190.7"/>
      <point x="788.457" y="1154.58"/>
      <point x="782" y="1115" type="curve" smooth="yes"/>
      <point x="767" y="1018" type="line" smooth="yes"/>
      <point x="745" y="874"/>
      <point x="705" y="766"/>
    </contour>
    <contour>
      <point x="544" y="658" type="curve" smooth="yes"/>
      <point x="774" y="658"/>
      <point x="869" y="808"/>
      <point x="905" y="1037" type="curve"/>
      <point x="914" y="1091" type="line" smooth="yes"/>
      <point x="920.63" y="1135.14"/>
      <point x="924.282" y="1175.83"/>
      <point x="924.282" y="1212.8" type="curve" smooth="yes"/>
      <point x="924.282" y="1370.99"/>
      <point x="857.429" y="1461"/>
      <point x="671" y="1461" type="curve" smooth="yes"/>
      <point x="440" y="1461"/>
      <point x="353" y="1323"/>
      <point x="316" y="1090" type="curve"/>
      <point x="308" y="1037" type="line" smooth="yes"/>
      <point x="300.728" y="990.945"/>
      <point x="296.639" y="948.031"/>
      <point x="296.639" y="908.869" type="curve" smooth="yes"/>
      <point x="296.639" y="754.158"/>
      <point x="360.459" y="658"/>
    </contour>
    <contour>
      <point x="1550" y="89" type="curve" smooth="yes"/>
      <point x="1445.44" y="89"/>
      <point x="1415.75" y="145.939"/>
      <point x="1415.75" y="232.256" type="curve" smooth="yes"/>
      <point x="1415.75" y="264.817"/>
      <point x="1419.97" y="301.558"/>
      <point x="1426" y="341" type="curve" smooth="yes"/>
      <point x="1442" y="440" type="line" smooth="yes"/>
      <point x="1465" y="579"/>
      <point x="1494" y="676"/>
      <point x="1644" y="676" type="curve" smooth="yes"/>
      <point x="1752.76" y="676"/>
      <point x="1782.67" y="625.678"/>
      <point x="1782.67" y="544.839" type="curve" smooth="yes"/>
      <point x="1782.67" y="513.443"/>
      <point x="1778.15" y="477.443"/>
      <point x="1772" y="438" type="curve" smooth="yes"/>
      <point x="1755" y="341" type="line"/>
      <point x="1733" y="197"/>
      <point x="1694" y="89"/>
    </contour>
    <contour>
      <point x="1533" y="-19" type="curve" smooth="yes"/>
      <point x="1763" y="-19"/>
      <point x="1857" y="131"/>
      <point x="1893" y="360" type="curve"/>
      <point x="1901" y="414" type="line" smooth="yes"/>
      <point x="1907.74" y="458.85"/>
      <point x="1911.47" y="500.144"/>
      <point x="1911.47" y="537.588" type="curve" smooth="yes"/>
      <point x="1911.47" y="694.666"/>
      <point x="1845.73" y="784"/>
      <point x="1660" y="784" type="curve" smooth="yes"/>
      <point x="1429" y="784"/>
      <point x="1342" y="646"/>
      <point x="1305" y="413" type="curve"/>
      <point x="1297" y="360" type="line" smooth="yes"/>
      <point x="1289.73" y="313.945"/>
      <point x="1285.64" y="271.031"/>
      <point x="1285.64" y="231.869" type="curve" smooth="yes"/>
      <point x="1285.64" y="77.1579"/>
      <point x="1349.46" y="-19"/>
    </contour>
    <contour>
      <point x="2344" y="89" type="curve" smooth="yes"/>
      <point x="2239.44" y="89"/>
      <point x="2209.75" y="145.939"/>
      <point x="2209.75" y="232.256" type="curve" smooth="yes"/>
      <point x="2209.75" y="264.817"/>
      <point x="2213.97" y="301.558"/>
      <point x="2220" y="341" type="curve" smooth="yes"/>
      <point x="2236" y="440" type="line" smooth="yes"/>
      <point x="2259" y="579"/>
      <point x="2288" y="676"/>
      <point x="2438" y="676" type="curve" smooth="yes"/>
      <point x="2546.76" y="676"/>
      <point x="2576.67" y="625.678"/>
      <point x="2576.67" y="544.839" type="curve" smooth="yes"/>
      <point x="2576.67" y="513.443"/>
      <point x="2572.15" y="477.443"/>
      <point x="2566" y="438" type="curve" smooth="yes"/>
      <point x="2549" y="341" type="line"/>
      <point x="2527" y="197"/>
      <point x="2488" y="89"/>
    </contour>
    <contour>
      <point x="2327" y="-19" type="curve" smooth="yes"/>
      <point x="2557" y="-19"/>
      <point x="2651" y="131"/>
      <point x="2687" y="360" type="curve"/>
      <point x="2695" y="414" type="line" smooth="yes"/>
      <point x="2701.74" y="458.85"/>
      <point x="2705.47" y="500.144"/>
      <point x="2705.47" y="537.588" type="curve" smooth="yes"/>
      <point x="2705.47" y="694.666"/>
      <point x="2639.73" y="784"/>
      <point x="2454" y="784" type="curve" smooth="yes"/>
      <point x="2223" y="784"/>
      <point x="2136" y="646"/>
      <point x="2099" y="413" type="curve"/>
      <point x="2091" y="360" type="line" smooth="yes"/>
      <point x="2083.73" y="313.945"/>
      <point x="2079.64" y="271.031"/>
      <point x="2079.64" y="231.869" type="curve" smooth="yes"/>
      <point x="2079.64" y="77.1579"/>
      <point x="2143.46" y="-19"/>
    </contour>
    <contour>
      <point x="638" y="0" type="line"/>
      <point x="778" y="0" type="line"/>
      <point x="1545" y="1446" type="line"/>
      <point x="1410" y="1446" type="line"/>
    </contour>
  </outline>
</glyph>
<glyph name="foursuperior" format="1">
  <advance width="1010"/>
  <unicode hex="2074"/>
  <outline>
    <contour>
      <point x="515" y="741" type="line"/>
      <point x="612" y="741" type="line"/>
      <point x="640" y="915" type="line"/>
      <point x="758" y="915" type="line"/>
      <point x="768" y="983" type="line"/>
      <point x="650" y="983" type="line"/>
      <point x="683" y="1188" type="line"/>
      <point x="585" y="1188" type="line"/>
      <point x="553" y="983" type="line"/>
      <point x="290" y="983" type="line"/>
      <point x="777" y="1532" type="line"/>
      <point x="678" y="1532" type="line"/>
      <point x="168" y="970" type="line"/>
      <point x="160" y="915" type="line"/>
      <point x="542" y="915" type="line"/>
    </contour>
  </outline>
</glyph>
<glyph name="Euro" format="1">
  <advance width="1442"/>
  <unicode hex="20AC"/>
  <outline>
    <component base="C"/>
    <contour>
      <point x="730" y="808" type="line"/>
      <point x="751" y="942" type="line"/>
      <point x="9" y="942" type="line"/>
      <point x="-12" y="808" type="line"/>
    </contour>
    <contour>
      <point x="679" y="486" type="line"/>
      <point x="702" y="620" type="line"/>
      <point x="-40" y="620" type="line"/>
      <point x="-63" y="486" type="line"/>
    </contour>
  </outline>
</glyph>
<glyph name="trademark" format="1">
  <advance width="1843"/>
  <unicode hex="2122"/>
  <outline>
    <contour>
      <point x="803" y="766" type="line"/>
      <point x="904" y="766" type="line"/>
      <point x="1001" y="1383" type="line"/>
      <point x="1121" y="931" type="line"/>
      <point x="1282" y="931" type="line"/>
      <point x="1537" y="1383" type="line"/>
      <point x="1440" y="766" type="line"/>
      <point x="1543" y="766" type="line"/>
      <point x="1651" y="1446" type="line"/>
      <point x="1467" y="1446" type="line"/>
      <point x="1208" y="991" type="line"/>
      <point x="1097" y="1446" type="line"/>
      <point x="911" y="1446" type="line"/>
    </contour>
    <contour>
      <point x="309" y="766" type="line"/>
      <point x="408" y="766" type="line"/>
      <point x="501" y="1350" type="line"/>
      <point x="731" y="1350" type="line"/>
      <point x="746" y="1446" type="line"/>
      <point x="187" y="1446" type="line"/>
      <point x="172" y="1350" type="line"/>
      <point x="402" y="1350" type="line"/>
    </contour>
  </outline>
</glyph>
<glyph name="Ohm" format="1">
  <advance width="1557"/>
  <unicode hex="2126"/>
  <outline>
    <contour>
      <point x="893" y="1455" type="curve" smooth="yes"/>
      <point x="551" y="1455"/>
      <point x="307" y="1344"/>
      <point x="205" y="698" type="curve" smooth="yes"/>
      <point x="190.58" y="606.046"/>
      <point x="183.76" y="528.229"/>
      <point x="183.76" y="462.067" type="curve" smooth="yes"/>
      <point x="183.76" y="248.335"/>
      <point x="254.931" y="156.217"/>
      <point x="371" y="102" type="curve"/>
      <point x="132" y="102" type="line"/>
      <point x="116" y="0" type="line"/>
      <point x="559" y="0" type="line"/>
      <point x="577" y="110" type="line"/>
      <point x="404.488" y="161.831"/>
      <point x="320.547" y="251.963"/>
      <point x="320.547" y="476.228" type="curve" smooth="yes"/>
      <point x="320.547" y="541.863"/>
      <point x="327.737" y="618.986"/>
      <point x="342" y="710" type="curve" smooth="yes"/>
      <point x="429" y="1258"/>
      <point x="597" y="1324"/>
      <point x="873" y="1324" type="curve" smooth="yes"/>
      <point x="1091.77" y="1324"/>
      <point x="1233.07" y="1280.67"/>
      <point x="1233.07" y="972.727" type="curve" smooth="yes"/>
      <point x="1233.07" y="900.611"/>
      <point x="1225.32" y="813.983"/>
      <point x="1209" y="710" type="curve" smooth="yes"/>
      <point x="1146" y="308"/>
      <point x="1028" y="177"/>
      <point x="785" y="110" type="curve"/>
      <point x="768" y="0" type="line"/>
      <point x="1211" y="0" type="line"/>
      <point x="1227" y="102" type="line"/>
      <point x="987" y="102" type="line"/>
      <point x="1161" y="173"/>
      <point x="1281" y="309"/>
      <point x="1342" y="698" type="curve" smooth="yes"/>
      <point x="1359.61" y="808.438"/>
      <point x="1367.92" y="903.24"/>
      <point x="1367.92" y="984.524" type="curve" smooth="yes"/>
      <point x="1367.92" y="1378.71"/>
      <point x="1172.39" y="1455"/>
    </contour>
  </outline>
</glyph>
<glyph name="estimated" format="1">
  <advance width="1195"/>
  <unicode hex="212E"/>
  <outline>
    <contour>
      <point x="718" y="1232" type="curve" smooth="yes"/>
      <point x="847" y="1232"/>
      <point x="964" y="1179"/>
      <point x="1017" y="1072" type="curve"/>
      <point x="971" y="779" type="line"/>
      <point x="309" y="779" type="line"/>
      <point x="356" y="1074" type="line"/>
      <point x="449" y="1178"/>
      <point x="590" y="1232"/>
    </contour>
    <contour>
      <point x="95" y="730" type="curve" smooth="yes"/>
      <point x="88.8075" y="690.74"/>
      <point x="85.6828" y="652.737"/>
      <point x="85.6828" y="616.283" type="curve" smooth="yes"/>
      <point x="85.6828" y="358.395"/>
      <point x="242.063" y="178"/>
      <point x="575" y="178" type="curve" smooth="yes"/>
      <point x="781" y="178"/>
      <point x="929" y="267"/>
      <point x="1047" y="385" type="curve"/>
      <point x="1021" y="419" type="line"/>
      <point x="885" y="296"/>
      <point x="709" y="240"/>
      <point x="576" y="240" type="curve" smooth="yes"/>
      <point x="450" y="240"/>
      <point x="316" y="293"/>
      <point x="244" y="395" type="curve"/>
      <point x="294" y="715" type="line"/>
      <point x="1107" y="715" type="line"/>
      <point x="1114.89" y="764.899"/>
      <point x="1118.89" y="812.658"/>
      <point x="1118.89" y="857.78" type="curve" smooth="yes"/>
      <point x="1118.89" y="1110.16"/>
      <point x="993.769" y="1280"/>
      <point x="724" y="1280" type="curve" smooth="yes"/>
      <point x="404" y="1280"/>
      <point x="144" y="1041"/>
    </contour>
  </outline>
</glyph>
<glyph name="partialdiff" format="1">
  <advance width="1194"/>
  <unicode hex="2202"/>
  <outline>
    <contour>
      <point x="344" y="-20" type="curve"/>
      <point x="672" y="-20"/>
      <point x="968" y="384"/>
      <point x="1053" y="920" type="curve"/>
      <point x="1119" y="1338"/>
      <point x="938" y="1514"/>
      <point x="699" y="1514" type="curve"/>
      <point x="601" y="1514"/>
      <point x="499" y="1488"/>
      <point x="378" y="1431" type="curve"/>
      <point x="388" y="1394" type="line"/>
      <point x="448" y="1417"/>
      <point x="530" y="1433"/>
      <point x="602" y="1433" type="curve"/>
      <point x="818" y="1433"/>
      <point x="974" y="1292"/>
      <point x="924" y="976" type="curve"/>
      <point x="922" y="961"/>
      <point x="920" y="945"/>
      <point x="915" y="929" type="curve"/>
      <point x="463" y="935"/>
      <point x="147" y="565"/>
      <point x="104" y="284" type="curve"/>
      <point x="75" y="112"/>
      <point x="151" y="-20"/>
    </contour>
    <contour>
      <point x="374" y="79" type="curve"/>
      <point x="276" y="79"/>
      <point x="248" y="159"/>
      <point x="263" y="256" type="curve"/>
      <point x="297" y="474"/>
      <point x="539" y="846"/>
      <point x="897" y="848" type="curve"/>
      <point x="833" y="550"/>
      <point x="649" y="79"/>
    </contour>
  </outline>
</glyph>
<glyph name="emptyset" format="1">
  <advance width="1552"/>
  <unicode hex="2205"/>
  <outline>
    <contour>
      <point x="696" y="144" type="curve" smooth="yes"/>
      <point x="390" y="144"/>
      <point x="202" y="375"/>
      <point x="250" y="682" type="curve" smooth="yes"/>
      <point x="300" y="987"/>
      <point x="560" y="1219"/>
      <point x="866" y="1219" type="curve" smooth="yes"/>
      <point x="1173" y="1219"/>
      <point x="1358" y="987"/>
      <point x="1309" y="682" type="curve" smooth="yes"/>
      <point x="1261" y="375"/>
      <point x="1003" y="144"/>
    </contour>
    <contour>
      <point x="682" y="66" type="curve" smooth="yes"/>
      <point x="1030" y="66"/>
      <point x="1340" y="331"/>
      <point x="1395" y="682" type="curve" smooth="yes"/>
      <point x="1451" y="1031"/>
      <point x="1225" y="1296"/>
      <point x="877" y="1296" type="curve" smooth="yes"/>
      <point x="531" y="1296"/>
      <point x="219" y="1031"/>
      <point x="163" y="682" type="curve" smooth="yes"/>
      <point x="108" y="331"/>
      <point x="336" y="66"/>
    </contour>
    <contour>
      <point x="114" y="44" type="line"/>
      <point x="162" y="0" type="line"/>
      <point x="1441" y="1283" type="line"/>
      <point x="1394" y="1327" type="line"/>
    </contour>
  </outline>
</glyph>
<glyph name="product" format="1">
  <advance width="1802"/>
  <unicode hex="220F"/>
  <outline>
    <contour>
      <point x="601" y="319" type="line"/>
      <point x="732" y="319" type="line"/>
      <point x="785" y="652" type="line"/>
      <point x="963" y="652" type="line" smooth="yes"/>
      <point x="1183" y="652"/>
      <point x="1256" y="760"/>
      <point x="1277" y="894" type="curve" smooth="yes"/>
      <point x="1280" y="908" type="line" smooth="yes"/>
      <point x="1303" y="1082"/>
      <point x="1212" y="1153"/>
      <point x="1055" y="1153" type="curve" smooth="yes"/>
      <point x="733" y="1153" type="line"/>
    </contour>
    <contour>
      <point x="799" y="742" type="line"/>
      <point x="850" y="1062" type="line"/>
      <point x="1045" y="1062" type="line" smooth="yes"/>
      <point x="1163" y="1062"/>
      <point x="1156" y="960"/>
      <point x="1147" y="901" type="curve" smooth="yes"/>
      <point x="1143" y="877" type="line"/>
      <point x="1132" y="814"/>
      <point x="1099" y="742"/>
      <point x="985" y="742" type="curve" smooth="yes"/>
    </contour>
    <contour>
      <point x="802" y="82" type="curve" smooth="yes"/>
      <point x="438" y="82"/>
      <point x="216" y="357"/>
      <point x="274" y="722" type="curve" smooth="yes"/>
      <point x="332" y="1086"/>
      <point x="640" y="1361"/>
      <point x="1004" y="1361" type="curve" smooth="yes"/>
      <point x="1370" y="1361"/>
      <point x="1589" y="1086"/>
      <point x="1531" y="722" type="curve" smooth="yes"/>
      <point x="1473" y="357"/>
      <point x="1168" y="82"/>
    </contour>
    <contour>
      <point x="785" y="-14" type="curve" smooth="yes"/>
      <point x="1201" y="-14"/>
      <point x="1571" y="303"/>
      <point x="1637" y="722" type="curve" smooth="yes"/>
      <point x="1703" y="1139"/>
      <point x="1433" y="1456"/>
      <point x="1017" y="1456" type="curve" smooth="yes"/>
      <point x="604" y="1456"/>
      <point x="231" y="1139"/>
      <point x="165" y="722" type="curve" smooth="yes"/>
      <point x="99" y="303"/>
      <point x="372" y="-14"/>
    </contour>
  </outline>
</glyph>
<glyph name="minus" format="1">
  <advance width="982"/>
  <unicode hex="2212"/>
  <outline>
    <contour>
      <point x="142" y="439" type="line"/>
      <point x="820" y="439" type="line"/>
      <point x="844" y="603" type="line"/>
      <point x="166" y="603" type="line"/>
    </contour>
  </outline>
</glyph>
<glyph name="bulletoperator" format="1">
  <advance width="992"/>
  <unicode hex="2219"/>
  <outline>
    <contour>
      <point x="515" y="-231" type="curve" smooth="yes"/>
      <point x="316.888" y="-231"/>
      <point x="59.1472" y="-77.9226"/>
      <point x="59.1472" y="114.886" type="curve" smooth="yes"/>
      <point x="59.1472" y="126.456"/>
      <point x="60.0753" y="138.169"/>
      <point x="62" y="150" type="curve" smooth="yes"/>
      <point x="95" y="360"/>
      <point x="254" y="383"/>
      <point x="463" y="383" type="curve" smooth="yes"/>
      <point x="661.112" y="383"/>
      <point x="918.853" y="230.813"/>
      <point x="918.853" y="37.2654" type="curve" smooth="yes"/>
      <point x="918.853" y="25.6512"/>
      <point x="917.925" y="13.8881"/>
      <point x="916" y="2" type="curve" smooth="yes"/>
      <point x="883" y="-208"/>
      <point x="724" y="-231"/>
    </contour>
  </outline>
</glyph>
<glyph name="radical" format="1">
  <advance width="1220"/>
  <unicode hex="221A"/>
  <outline>
    <contour>
      <point x="102" y="400" type="line"/>
      <point x="221" y="400" type="line"/>
      <point x="340" y="0" type="line"/>
      <point x="475" y="0" type="line"/>
      <point x="1340" y="1506" type="line"/>
      <point x="1239" y="1506" type="line"/>
      <point x="437" y="117" type="line"/>
      <point x="332" y="511" type="line"/>
      <point x="119" y="511" type="line"/>
    </contour>
  </outline>
</glyph>
<glyph name="infinity" format="1">
  <advance width="1411"/>
  <unicode hex="221E"/>
  <outline>
    <contour>
      <point x="239" y="560" type="curve"/>
      <point x="414" y="560"/>
      <point x="686" y="806"/>
      <point x="686" y="806" type="curve"/>
      <point x="686" y="806"/>
      <point x="904" y="560"/>
      <point x="1079" y="560" type="curve" smooth="yes"/>
      <point x="1307" y="560"/>
      <point x="1422" y="743"/>
      <point x="1440" y="853" type="curve" smooth="yes"/>
      <point x="1441.96" y="865.068"/>
      <point x="1442.99" y="878.034"/>
      <point x="1442.99" y="891.56" type="curve" smooth="yes"/>
      <point x="1442.99" y="1002.45"/>
      <point x="1373.43" y="1151"/>
      <point x="1172" y="1151" type="curve" smooth="yes"/>
      <point x="997" y="1151"/>
      <point x="709" y="947"/>
      <point x="709" y="947" type="curve"/>
      <point x="709" y="947"/>
      <point x="507" y="1151"/>
      <point x="332" y="1151" type="curve" smooth="yes"/>
      <point x="104" y="1151"/>
      <point x="-10" y="966"/>
      <point x="-28" y="856" type="curve" smooth="yes"/>
      <point x="-29.9961" y="843.801"/>
      <point x="-31.0576" y="830.668"/>
      <point x="-31.0576" y="816.957" type="curve" smooth="yes"/>
      <point x="-31.0576" y="707.034"/>
      <point x="37.1735" y="560"/>
    </contour>
    <contour>
      <point x="121.53" y="808.751" type="curve" smooth="yes"/>
      <point x="121.53" y="937.923"/>
      <point x="210.921" y="1081"/>
      <point x="323" y="1081" type="curve" smooth="yes"/>
      <point x="389.967" y="1081"/>
      <point x="623.18" y="880.358"/>
      <point x="623.18" y="865.193" type="curve" smooth="yes"/>
      <point x="623.18" y="864.598"/>
      <point x="622.82" y="864.288"/>
      <point x="622.077" y="864.288" type="curve" smooth="yes"/>
      <point x="620.832" y="864.288"/>
      <point x="618.511" y="865.155"/>
      <point x="615" y="867" type="curve"/>
      <point x="618.874" y="868.796"/>
      <point x="621.392" y="869.644"/>
      <point x="622.682" y="869.644" type="curve" smooth="yes"/>
      <point x="623.379" y="869.644"/>
      <point x="623.717" y="869.397"/>
      <point x="623.717" y="868.918" type="curve" smooth="yes"/>
      <point x="623.717" y="854.493"/>
      <point x="316.602" y="630"/>
      <point x="249" y="630" type="curve" smooth="yes"/>
      <point x="162.557" y="630"/>
      <point x="121.53" y="717.169"/>
    </contour>
    <contour>
      <point x="1268.47" y="900.989" type="curve" smooth="yes"/>
      <point x="1268.47" y="771.128"/>
      <point x="1179.89" y="630"/>
      <point x="1068" y="630" type="curve" smooth="yes"/>
      <point x="1001.06" y="630"/>
      <point x="768.795" y="846.057"/>
      <point x="768.795" y="864.306" type="curve" smooth="yes"/>
      <point x="768.795" y="865.111"/>
      <point x="769.246" y="865.531"/>
      <point x="770.183" y="865.531" type="curve" smooth="yes"/>
      <point x="771.486" y="865.531"/>
      <point x="773.728" y="864.719"/>
      <point x="777" y="863" type="curve"/>
      <point x="772.85" y="861.075"/>
      <point x="770.248" y="860.171"/>
      <point x="769.039" y="860.171" type="curve" smooth="yes"/>
      <point x="768.502" y="860.171"/>
      <point x="768.24" y="860.35"/>
      <point x="768.24" y="860.697" type="curve" smooth="yes"/>
      <point x="768.24" y="872.561"/>
      <point x="1073.43" y="1081"/>
      <point x="1141" y="1081" type="curve" smooth="yes"/>
      <point x="1227.44" y="1081"/>
      <point x="1268.47" y="992.366"/>
    </contour>
  </outline>
</glyph>
<glyph name="integral" format="1">
  <advance width="1008"/>
  <unicode hex="222B"/>
  <outline>
    <contour>
      <point x="143" y="-450" type="curve" smooth="yes"/>
      <point x="328" y="-450"/>
      <point x="435" y="-386"/>
      <point x="468" y="-184" type="curve" smooth="yes"/>
      <point x="687" y="1198" type="line" smooth="yes"/>
      <point x="702" y="1291"/>
      <point x="740" y="1367"/>
      <point x="902" y="1367" type="curve" smooth="yes"/>
      <point x="910" y="1367"/>
      <point x="910" y="1370"/>
      <point x="916" y="1369" type="curve"/>
      <point x="932" y="1479" type="line"/>
      <point x="904" y="1482"/>
      <point x="867" y="1484"/>
      <point x="840" y="1484" type="curve" smooth="yes"/>
      <point x="645" y="1484"/>
      <point x="544" y="1420"/>
      <point x="505" y="1179" type="curve" smooth="yes"/>
      <point x="286" y="-213" type="line" smooth="yes"/>
      <point x="272" y="-299"/>
      <point x="221" y="-333"/>
      <point x="98" y="-333" type="curve" smooth="yes"/>
      <point x="83" y="-333"/>
      <point x="73" y="-335"/>
      <point x="59" y="-334" type="curve"/>
      <point x="43" y="-444" type="line"/>
      <point x="74" y="-448"/>
      <point x="113" y="-450"/>
    </contour>
  </outline>
</glyph>
